<?xml version="1.0" encoding="UTF-8"?>
<!DOCTYPE svg PUBLIC "-//W3C//DTD SVG 1.1//EN" "http://www.w3.org/Graphics/SVG/1.1/DTD/svg11.dtd">
<svg xmlns="http://www.w3.org/2000/svg" version="1.1" width="1080px" height="946px" style="shape-rendering:geometricPrecision; text-rendering:geometricPrecision; image-rendering:optimizeQuality; fill-rule:evenodd; clip-rule:evenodd" xmlns:xlink="http://www.w3.org/1999/xlink">
<g><path style="opacity:1" fill="#fefefe" d="M -0.5,-0.5 C 359.5,-0.5 719.5,-0.5 1079.5,-0.5C 1079.5,314.833 1079.5,630.167 1079.5,945.5C 719.5,945.5 359.5,945.5 -0.5,945.5C -0.5,630.167 -0.5,314.833 -0.5,-0.5 Z"/></g>
<g><path style="opacity:1" fill="#201e1f" d="M 516.5,24.5 C 610.94,22.5009 688.607,57.1676 749.5,128.5C 813.713,214.537 826.546,307.871 788,408.5C 748.678,495.48 682.512,549.98 589.5,572C 482.525,590.23 393.025,559.064 321,478.5C 267.045,410.573 247.379,333.573 262,247.5C 283.887,152.286 339.387,84.7864 428.5,45C 456.852,33.7772 486.186,26.9439 516.5,24.5 Z"/></g>
<g><path style="opacity:1" fill="#eeefef" d="M 497.5,317.5 C 495.647,318.124 493.98,317.457 492.5,315.5C 491.82,313.111 490.986,310.778 490,308.5C 489.5,309.667 488.667,310.5 487.5,311C 487.148,313.138 487.648,315.304 489,317.5C 489.464,311.825 490.131,311.492 491,316.5C 491.903,317.701 493.069,318.535 494.5,319C 493.151,339.616 491.485,360.116 489.5,380.5C 473.347,352.197 457.18,323.864 441,295.5C 420.811,323.9 400.645,352.234 380.5,380.5C 379.778,380.082 379.278,379.416 379,378.5C 377,381.167 375,383.833 373,386.5C 372.072,383.965 370.238,382.965 367.5,383.5C 367.832,371.149 367.499,358.815 366.5,346.5C 365.056,347.981 364.389,347.648 364.5,345.5C 383.324,314.523 402.157,283.523 421,252.5C 428.874,242.329 439.04,239.162 451.5,243C 455.922,244.968 459.755,247.802 463,251.5C 474.768,273.369 486.268,295.369 497.5,317.5 Z"/></g>
<g><path style="opacity:1" fill="#e9eaeb" d="M 364.5,345.5 C 364.389,347.648 365.056,347.981 366.5,346.5C 367.499,358.815 367.832,371.149 367.5,383.5C 370.238,382.965 372.072,383.965 373,386.5C 375,383.833 377,381.167 379,378.5C 379.278,379.416 379.778,380.082 380.5,380.5C 376.418,388.413 370.751,394.913 363.5,400C 353.91,402.484 344.577,401.818 335.5,398C 334.667,397.167 333.833,396.333 333,395.5C 316.543,344.332 300.709,292.998 285.5,241.5C 301.181,241.167 316.848,241.501 332.5,242.5C 342.393,276.79 352.227,311.123 362,345.5C 362.77,346.598 363.603,346.598 364.5,345.5 Z"/></g>
<g><path style="opacity:1" fill="#0e3820" d="M 563.5,245.5 C 554.265,243.007 544.932,242.84 535.5,245C 534.069,245.465 532.903,246.299 532,247.5C 530.395,250.191 528.895,252.858 527.5,255.5C 527.34,253.801 527.506,252.134 528,250.5C 529.833,247.333 532.333,244.833 535.5,243C 544.167,242.333 552.833,242.333 561.5,243C 562.381,243.708 563.047,244.542 563.5,245.5 Z"/></g>
<g><path style="opacity:1" fill="#168d55" d="M 729.5,245.5 C 730.105,247.026 731.271,248.026 733,248.5C 734.413,250.652 735.246,252.986 735.5,255.5C 733.526,253.691 731.86,251.691 730.5,249.5C 727.355,246.934 723.688,245.434 719.5,245C 711.96,244.041 704.627,244.541 697.5,246.5C 698.29,245.206 699.29,244.039 700.5,243C 710.393,241.861 720.06,242.694 729.5,245.5 Z"/></g>
<g><path style="opacity:1" fill="#122c1b" d="M 563.5,245.5 C 565.5,245.5 567.5,245.5 569.5,245.5C 572.016,249.874 574.016,254.54 575.5,259.5C 573.041,257.948 571.541,255.615 571,252.5C 568.447,250.018 565.947,247.685 563.5,245.5 Z"/></g>
<g><path style="opacity:1" fill="#132e1d" d="M 729.5,245.5 C 720.06,242.694 710.393,241.861 700.5,243C 699.29,244.039 698.29,245.206 697.5,246.5C 695.952,246.821 695.285,247.821 695.5,249.5C 692.806,250.861 690.806,252.861 689.5,255.5C 690.36,252.151 691.86,249.151 694,246.5C 696.124,245.378 697.957,243.878 699.5,242C 708.167,241.667 716.833,241.333 725.5,241C 727.45,239.504 729.45,239.337 731.5,240.5C 729.995,241.842 729.328,243.508 729.5,245.5 Z"/></g>
<g><path style="opacity:1" fill="#02a759" d="M 730.5,249.5 C 731.86,251.691 733.526,253.691 735.5,255.5C 736.35,260.991 737.683,266.324 739.5,271.5C 738.504,271.586 737.671,271.252 737,270.5C 736.667,268.833 736.333,267.167 736,265.5C 736.328,270.069 736.162,274.569 735.5,279C 719.503,279.5 703.503,279.667 687.5,279.5C 686.48,278.606 686.647,275.606 688,270.5C 693.767,266.251 696.6,260.584 696.5,253.5C 699.012,253.423 701.012,254.423 702.5,256.5C 701.332,259.839 700.166,263.172 699,266.5C 692.749,270.54 693.249,272.206 700.5,271.5C 700.222,269.654 700.889,268.32 702.5,267.5C 703.493,262.88 703.827,258.214 703.5,253.5C 709.5,253.5 715.5,253.5 721.5,253.5C 721.5,252.167 721.5,250.833 721.5,249.5C 722.833,249.5 724.167,249.5 725.5,249.5C 725.384,252.91 727.05,254.244 730.5,253.5C 730.5,252.167 730.5,250.833 730.5,249.5 Z"/></g>
<g><path style="opacity:1" fill="#129a58" d="M 563.5,245.5 C 565.947,247.685 568.447,250.018 571,252.5C 571.541,255.615 573.041,257.948 575.5,259.5C 575.5,260.5 575.5,261.5 575.5,262.5C 573.883,261.962 572.216,261.629 570.5,261.5C 570.777,251.946 566.277,247.279 557,247.5C 554.617,246.234 551.95,245.568 549,245.5C 543.791,246.094 538.624,246.928 533.5,248C 531.248,250.859 531.248,253.525 533.5,256C 533.207,259.094 531.541,260.594 528.5,260.5C 528.737,261.791 528.404,262.791 527.5,263.5C 527.5,260.833 527.5,258.167 527.5,255.5C 528.895,252.858 530.395,250.191 532,247.5C 532.903,246.299 534.069,245.465 535.5,245C 544.932,242.84 554.265,243.007 563.5,245.5 Z"/></g>
<g><path style="opacity:1" fill="#113426" d="M 527.5,263.5 C 526.673,267.807 526.007,272.14 525.5,276.5C 525.167,276.5 524.833,276.5 524.5,276.5C 523.995,273.159 523.828,269.826 524,266.5C 525.039,265.29 526.206,264.29 527.5,263.5 Z"/></g>
<g><path style="opacity:1" fill="#149155" d="M 695.5,249.5 C 694.588,251.595 693.421,253.595 692,255.5C 691.023,257.74 690.523,260.073 690.5,262.5C 688.567,262.729 686.9,263.562 685.5,265C 684.696,266.771 683.529,268.271 682,269.5C 680.987,273.104 680.487,276.771 680.5,280.5C 679.784,279.689 678.95,279.022 678,278.5C 675.694,279.646 673.527,280.98 671.5,282.5C 671.5,282.167 671.5,281.833 671.5,281.5C 677.688,272.7 683.688,264.034 689.5,255.5C 690.806,252.861 692.806,250.861 695.5,249.5 Z"/></g>
<g><path style="opacity:1" fill="#1a9156" d="M 575.5,262.5 C 579.47,267.084 582.97,272.084 586,277.5C 587.322,280.965 588.822,284.298 590.5,287.5C 588.61,287.703 587.11,287.037 586,285.5C 584.748,282.986 584.248,280.32 584.5,277.5C 582.549,277.227 581.049,277.893 580,279.5C 581.191,274.465 579.858,270.131 576,266.5C 575.51,265.207 575.343,263.873 575.5,262.5 Z"/></g>
<g><path style="opacity:1" fill="#0b2e1b" d="M 671.5,281.5 C 671.5,281.833 671.5,282.167 671.5,282.5C 671.5,283.167 671.5,283.833 671.5,284.5C 668.833,286.5 666.5,288.833 664.5,291.5C 665.62,288.613 666.62,285.613 667.5,282.5C 668.736,281.754 670.07,281.421 671.5,281.5 Z"/></g>
<g><path style="opacity:1" fill="#10693b" d="M 524.5,276.5 C 524.833,276.5 525.167,276.5 525.5,276.5C 525.354,280.387 524.687,284.054 523.5,287.5C 523.552,283.802 523.886,280.135 524.5,276.5 Z"/></g>
<g><path style="opacity:1" fill="#0ea858" d="M 575.5,262.5 C 575.343,263.873 575.51,265.207 576,266.5C 579.858,270.131 581.191,274.465 580,279.5C 581.049,277.893 582.549,277.227 584.5,277.5C 584.248,280.32 584.748,282.986 586,285.5C 587.11,287.037 588.61,287.703 590.5,287.5C 591.338,287.842 591.672,288.508 591.5,289.5C 592.546,291.736 593.879,293.736 595.5,295.5C 596.167,295.833 596.833,296.167 597.5,296.5C 597.707,299.241 598.707,301.574 600.5,303.5C 601.398,306.396 603.065,308.729 605.5,310.5C 605.5,310.833 605.5,311.167 605.5,311.5C 606.167,313.167 606.833,314.833 607.5,316.5C 605.273,315.599 604.273,313.933 604.5,311.5C 602.5,310.833 600.5,310.167 598.5,309.5C 598.443,314.682 597.776,314.682 596.5,309.5C 594.995,312.131 594.329,311.797 594.5,308.5C 597.91,308.616 599.244,306.95 598.5,303.5C 597.448,303.649 596.448,303.483 595.5,303C 596.21,299.918 595.21,297.251 592.5,295C 589.666,294.955 587.166,294.121 585,292.5C 584.5,293 584,293.5 583.5,294C 575.507,294.5 567.507,294.666 559.5,294.5C 559.719,293.325 559.386,292.325 558.5,291.5C 557.34,293.073 556.34,294.739 555.5,296.5C 558.202,300.281 559.535,304.614 559.5,309.5C 557.275,305.396 554.775,301.396 552,297.5C 551.617,298.056 551.117,298.389 550.5,298.5C 548.605,299.973 546.939,301.64 545.5,303.5C 545.579,301.334 546.246,299.334 547.5,297.5C 546.353,295.269 545.353,292.935 544.5,290.5C 543.571,291.689 543.238,293.022 543.5,294.5C 538.156,294.334 532.823,294.501 527.5,295C 524.698,297.105 523.365,299.939 523.5,303.5C 523.062,298.359 523.062,293.025 523.5,287.5C 524.687,284.054 525.354,280.387 525.5,276.5C 526.007,272.14 526.673,267.807 527.5,263.5C 528.404,262.791 528.737,261.791 528.5,260.5C 531.541,260.594 533.207,259.094 533.5,256C 531.248,253.525 531.248,250.859 533.5,248C 538.624,246.928 543.791,246.094 549,245.5C 551.95,245.568 554.617,246.234 557,247.5C 566.277,247.279 570.777,251.946 570.5,261.5C 572.216,261.629 573.883,261.962 575.5,262.5 Z"/></g>
<g><path style="opacity:1" fill="#0eaa57" d="M 730.5,249.5 C 730.5,250.833 730.5,252.167 730.5,253.5C 727.05,254.244 725.384,252.91 725.5,249.5C 724.167,249.5 722.833,249.5 721.5,249.5C 721.5,250.833 721.5,252.167 721.5,253.5C 715.5,253.5 709.5,253.5 703.5,253.5C 703.827,258.214 703.493,262.88 702.5,267.5C 700.889,268.32 700.222,269.654 700.5,271.5C 693.249,272.206 692.749,270.54 699,266.5C 700.166,263.172 701.332,259.839 702.5,256.5C 701.012,254.423 699.012,253.423 696.5,253.5C 696.6,260.584 693.767,266.251 688,270.5C 686.647,275.606 686.48,278.606 687.5,279.5C 703.503,279.667 719.503,279.5 735.5,279C 736.162,274.569 736.328,270.069 736,265.5C 736.333,267.167 736.667,268.833 737,270.5C 737.671,271.252 738.504,271.586 739.5,271.5C 739.833,271.5 740.167,271.5 740.5,271.5C 740.335,274.518 740.502,277.518 741,280.5C 742.534,288.423 744.701,296.089 747.5,303.5C 746.778,303.082 746.278,302.416 746,301.5C 745.29,302.973 744.124,303.64 742.5,303.5C 742.216,306.777 742.549,309.943 743.5,313C 740.833,313.667 738.167,313.667 735.5,313C 736.704,311.647 737.371,309.981 737.5,308C 737.035,305.397 736.368,302.897 735.5,300.5C 730.125,300.828 724.792,300.495 719.5,299.5C 718.758,298.713 717.925,298.047 717,297.5C 715.577,299.345 714.41,301.345 713.5,303.5C 711.674,303.08 709.674,303.08 707.5,303.5C 707.238,304.978 707.571,306.311 708.5,307.5C 709.883,304.924 710.717,305.258 711,308.5C 711.553,311.359 711.386,314.192 710.5,317C 711.267,320.634 712.434,324.134 714,327.5C 714.497,330.146 714.664,332.813 714.5,335.5C 714.167,335.5 713.833,335.5 713.5,335.5C 713.279,330.426 711.946,325.759 709.5,321.5C 709.672,320.508 709.338,319.842 708.5,319.5C 707.695,313.936 706.362,308.603 704.5,303.5C 703.539,301.735 703.205,299.735 703.5,297.5C 703.052,295.535 702.052,295.202 700.5,296.5C 699.675,298.801 699.008,301.135 698.5,303.5C 695.5,308.833 692.5,314.167 689.5,319.5C 689.844,315.772 690.51,312.105 691.5,308.5C 690.833,308.167 690.167,307.833 689.5,307.5C 690.81,304.439 693.143,303.106 696.5,303.5C 696.578,300.748 696.745,298.082 697,295.5C 694.35,298.651 691.516,301.651 688.5,304.5C 687.691,306.071 687.357,307.738 687.5,309.5C 680.825,309.666 674.158,309.5 667.5,309C 667.112,307.475 667.112,305.808 667.5,304C 666.207,303.51 664.873,303.343 663.5,303.5C 663.435,305.696 662.768,307.696 661.5,309.5C 660.28,310.711 659.113,310.711 658,309.5C 657.583,310.756 656.75,311.423 655.5,311.5C 655.5,310.167 655.5,308.833 655.5,307.5C 655.5,306.167 655.5,304.833 655.5,303.5C 657.199,303.473 658.533,302.806 659.5,301.5C 662.887,297.952 666.053,294.286 669,290.5C 670.122,288.58 670.956,286.58 671.5,284.5C 671.5,283.833 671.5,283.167 671.5,282.5C 673.527,280.98 675.694,279.646 678,278.5C 678.95,279.022 679.784,279.689 680.5,280.5C 680.487,276.771 680.987,273.104 682,269.5C 683.529,268.271 684.696,266.771 685.5,265C 686.9,263.562 688.567,262.729 690.5,262.5C 690.523,260.073 691.023,257.74 692,255.5C 693.421,253.595 694.588,251.595 695.5,249.5C 695.285,247.821 695.952,246.821 697.5,246.5C 704.627,244.541 711.96,244.041 719.5,245C 723.688,245.434 727.355,246.934 730.5,249.5 Z"/></g>
<g><path style="opacity:1" fill="#238d57" d="M 671.5,284.5 C 670.956,286.58 670.122,288.58 669,290.5C 666.053,294.286 662.887,297.952 659.5,301.5C 661.172,298.164 662.838,294.83 664.5,291.5C 666.5,288.833 668.833,286.5 671.5,284.5 Z"/></g>
<g><path style="opacity:1" fill="#162c19" d="M 522.5,287.5 C 522.473,293.051 521.806,298.384 520.5,303.5C 520.376,297.931 521.043,292.598 522.5,287.5 Z"/></g>
<g><path style="opacity:1" fill="#205f3b" d="M 591.5,289.5 C 594.034,290.634 595.367,292.634 595.5,295.5C 593.879,293.736 592.546,291.736 591.5,289.5 Z"/></g>
<g><path style="opacity:1" fill="#1f7e48" d="M 703.5,297.5 C 701.559,299.295 699.893,301.295 698.5,303.5C 699.008,301.135 699.675,298.801 700.5,296.5C 702.052,295.202 703.052,295.535 703.5,297.5 Z"/></g>
<g><path style="opacity:1" fill="#20ae55" d="M 545.5,303.5 C 543.553,304.473 541.553,305.473 539.5,306.5C 539.709,307.086 540.043,307.586 540.5,308C 537.698,311.576 535.698,315.409 534.5,319.5C 531.022,324.434 527.522,329.434 524,334.5C 523.329,335.252 522.496,335.586 521.5,335.5C 520.265,335.721 519.265,336.388 518.5,337.5C 518.167,337.167 517.833,336.833 517.5,336.5C 519.747,326.294 521.247,315.961 522,305.5C 523.439,307.275 524.439,309.275 525,311.5C 525.167,310.167 525.333,308.833 525.5,307.5C 525.415,305.667 524.748,304.334 523.5,303.5C 523.365,299.939 524.698,297.105 527.5,295C 532.823,294.501 538.156,294.334 543.5,294.5C 543.238,293.022 543.571,291.689 544.5,290.5C 545.353,292.935 546.353,295.269 547.5,297.5C 546.246,299.334 545.579,301.334 545.5,303.5 Z"/></g>
<g><path style="opacity:1" fill="#073418" d="M 597.5,296.5 C 599.818,298.185 600.818,300.519 600.5,303.5C 598.707,301.574 597.707,299.241 597.5,296.5 Z"/></g>
<g><path style="opacity:1" fill="#1fae55" d="M 607.5,316.5 C 607.5,317.5 607.5,318.5 607.5,319.5C 608.5,319.5 609.5,319.5 610.5,319.5C 610.572,322.553 611.572,325.219 613.5,327.5C 609.811,324.516 608.144,325.516 608.5,330.5C 597.5,330.5 586.5,330.5 575.5,330.5C 575.565,327.529 574.731,324.862 573,322.5C 572.5,323.5 572,324.5 571.5,325.5C 573.14,328.742 574.473,332.076 575.5,335.5C 574.167,334.167 572.833,332.833 571.5,331.5C 569.957,326.976 567.623,322.976 564.5,319.5C 563.831,316.151 562.164,313.484 559.5,311.5C 559.5,311.167 559.5,310.833 559.5,310.5C 559.5,310.167 559.5,309.833 559.5,309.5C 559.535,304.614 558.202,300.281 555.5,296.5C 556.34,294.739 557.34,293.073 558.5,291.5C 559.386,292.325 559.719,293.325 559.5,294.5C 567.507,294.666 575.507,294.5 583.5,294C 584,293.5 584.5,293 585,292.5C 587.166,294.121 589.666,294.955 592.5,295C 595.21,297.251 596.21,299.918 595.5,303C 596.448,303.483 597.448,303.649 598.5,303.5C 599.244,306.95 597.91,308.616 594.5,308.5C 594.329,311.797 594.995,312.131 596.5,309.5C 597.776,314.682 598.443,314.682 598.5,309.5C 600.5,310.167 602.5,310.833 604.5,311.5C 604.273,313.933 605.273,315.599 607.5,316.5 Z"/></g>
<g><path style="opacity:1" fill="#162f1c" d="M 559.5,309.5 C 559.5,309.833 559.5,310.167 559.5,310.5C 558.504,310.586 557.671,310.252 557,309.5C 553.892,306.656 551.725,303.656 550.5,300.5C 550.5,299.833 550.5,299.167 550.5,298.5C 551.117,298.389 551.617,298.056 552,297.5C 554.775,301.396 557.275,305.396 559.5,309.5 Z"/></g>
<g><path style="opacity:1" fill="#0b2d16" d="M 600.5,303.5 C 601.5,303.5 602.5,303.5 603.5,303.5C 604.167,305.833 604.833,308.167 605.5,310.5C 603.065,308.729 601.398,306.396 600.5,303.5 Z"/></g>
<g><path style="opacity:1" fill="#1cae56" d="M 747.5,303.5 C 747.871,309.242 749.205,314.575 751.5,319.5C 751.5,321.167 751.5,322.833 751.5,324.5C 740.833,324.5 730.167,324.5 719.5,324.5C 719.5,328.167 719.5,331.833 719.5,335.5C 718.5,335.5 717.5,335.5 716.5,335.5C 716.5,337.5 716.5,339.5 716.5,341.5C 715.833,340.5 715.167,339.5 714.5,338.5C 714.5,337.5 714.5,336.5 714.5,335.5C 714.664,332.813 714.497,330.146 714,327.5C 712.434,324.134 711.267,320.634 710.5,317C 711.386,314.192 711.553,311.359 711,308.5C 710.717,305.258 709.883,304.924 708.5,307.5C 707.571,306.311 707.238,304.978 707.5,303.5C 709.674,303.08 711.674,303.08 713.5,303.5C 714.41,301.345 715.577,299.345 717,297.5C 717.925,298.047 718.758,298.713 719.5,299.5C 724.792,300.495 730.125,300.828 735.5,300.5C 736.368,302.897 737.035,305.397 737.5,308C 737.371,309.981 736.704,311.647 735.5,313C 738.167,313.667 740.833,313.667 743.5,313C 742.549,309.943 742.216,306.777 742.5,303.5C 744.124,303.64 745.29,302.973 746,301.5C 746.278,302.416 746.778,303.082 747.5,303.5 Z"/></g>
<g><path style="opacity:1" fill="#249a56" d="M 740.5,271.5 C 743.842,284.19 747.508,296.857 751.5,309.5C 752.901,312.704 753.901,316.037 754.5,319.5C 753.5,319.5 752.5,319.5 751.5,319.5C 749.205,314.575 747.871,309.242 747.5,303.5C 744.701,296.089 742.534,288.423 741,280.5C 740.502,277.518 740.335,274.518 740.5,271.5 Z"/></g>
<g><path style="opacity:1" fill="#3ea165" d="M 545.5,303.5 C 541.801,308.856 538.134,314.19 534.5,319.5C 535.698,315.409 537.698,311.576 540.5,308C 540.043,307.586 539.709,307.086 539.5,306.5C 541.553,305.473 543.553,304.473 545.5,303.5 Z"/></g>
<g><path style="opacity:1" fill="#132c17" d="M 704.5,303.5 C 706.362,308.603 707.695,313.936 708.5,319.5C 705.459,314.703 704.126,309.37 704.5,303.5 Z"/></g>
<g><path style="opacity:1" fill="#1a281d" d="M 520.5,303.5 C 518.254,317.797 516.254,332.131 514.5,346.5C 513.673,347.439 513.006,347.105 512.5,345.5C 513.493,338.969 514.493,332.302 515.5,325.5C 514.241,319.205 513.241,312.872 512.5,306.5C 512.833,305.5 513.167,304.5 513.5,303.5C 514.08,306.975 514.913,310.309 516,313.5C 517.526,309.997 519.026,306.664 520.5,303.5 Z"/></g>
<g><path style="opacity:1" fill="#142e17" d="M 559.5,311.5 C 562.164,313.484 563.831,316.151 564.5,319.5C 560.486,318.457 558.82,315.791 559.5,311.5 Z"/></g>
<g><path style="opacity:1" fill="#0d2e16" d="M 652.5,309.5 C 650.656,313.192 648.323,316.525 645.5,319.5C 646.835,315.505 649.169,312.172 652.5,309.5 Z"/></g>
<g><path style="opacity:1" fill="#f3f4f4" d="M 550.5,298.5 C 550.5,299.167 550.5,299.833 550.5,300.5C 545.335,331.819 540.168,363.153 535,394.5C 521.731,404.062 508.731,403.728 496,393.5C 493.807,389.114 491.64,384.78 489.5,380.5C 491.485,360.116 493.151,339.616 494.5,319C 493.069,318.535 491.903,317.701 491,316.5C 490.131,311.492 489.464,311.825 489,317.5C 487.648,315.304 487.148,313.138 487.5,311C 488.667,310.5 489.5,309.667 490,308.5C 490.986,310.778 491.82,313.111 492.5,315.5C 493.98,317.457 495.647,318.124 497.5,317.5C 502.868,326.578 507.868,335.911 512.5,345.5C 513.006,347.105 513.673,347.439 514.5,346.5C 518.096,343.643 520.429,339.976 521.5,335.5C 522.496,335.586 523.329,335.252 524,334.5C 527.522,329.434 531.022,324.434 534.5,319.5C 538.134,314.19 541.801,308.856 545.5,303.5C 546.939,301.64 548.605,299.973 550.5,298.5 Z"/></g>
<g><path style="opacity:1" fill="#192f21" d="M 605.5,311.5 C 608.707,312.532 611.207,314.532 613,317.5C 613.127,318.777 612.627,319.943 611.5,321C 613.478,323.147 614.811,325.647 615.5,328.5C 614.833,328.167 614.167,327.833 613.5,327.5C 611.572,325.219 610.572,322.553 610.5,319.5C 609.5,319.5 608.5,319.5 607.5,319.5C 607.5,318.5 607.5,317.5 607.5,316.5C 606.833,314.833 606.167,313.167 605.5,311.5 Z"/></g>
<g><path style="opacity:1" fill="#32a358" d="M 655.5,307.5 C 655.5,308.833 655.5,310.167 655.5,311.5C 652.294,313.064 650.96,315.731 651.5,319.5C 650.5,319.5 649.5,319.5 648.5,319.5C 648.5,320.833 648.5,322.167 648.5,323.5C 651.5,323.833 652.833,322.5 652.5,319.5C 653.5,319.5 654.5,319.5 655.5,319.5C 655.627,322.245 654.46,324.245 652,325.5C 650.989,324.663 649.822,324.33 648.5,324.5C 648.649,325.552 648.483,326.552 648,327.5C 647.282,326.549 646.449,326.383 645.5,327C 642.984,329.683 640.317,332.183 637.5,334.5C 637.055,337.053 637.055,339.72 637.5,342.5C 633.745,340.726 631.911,342.059 632,346.5C 630.844,345.007 630.01,345.174 629.5,347C 630.414,348.406 631.08,349.906 631.5,351.5C 629.099,350.951 626.765,350.118 624.5,349C 623.62,347.644 623.286,346.144 623.5,344.5C 624.267,345.172 624.934,346.005 625.5,347C 626.167,347.667 626.833,347.667 627.5,347C 630.086,343.264 632.419,339.43 634.5,335.5C 636.547,333.45 638.214,331.117 639.5,328.5C 641.857,325.814 643.857,322.814 645.5,319.5C 648.323,316.525 650.656,313.192 652.5,309.5C 653.5,308.833 654.5,308.167 655.5,307.5 Z"/></g>
<g><path style="opacity:1" fill="#3aa15d" d="M 522.5,287.5 C 522.833,287.5 523.167,287.5 523.5,287.5C 523.062,293.025 523.062,298.359 523.5,303.5C 524.748,304.334 525.415,305.667 525.5,307.5C 525.333,308.833 525.167,310.167 525,311.5C 524.439,309.275 523.439,307.275 522,305.5C 521.247,315.961 519.747,326.294 517.5,336.5C 517.833,336.833 518.167,337.167 518.5,337.5C 519.265,336.388 520.265,335.721 521.5,335.5C 520.429,339.976 518.096,343.643 514.5,346.5C 516.254,332.131 518.254,317.797 520.5,303.5C 521.806,298.384 522.473,293.051 522.5,287.5 Z"/></g>
<g><path style="opacity:1" fill="#1a2c1d" d="M 564.5,319.5 C 567.623,322.976 569.957,326.976 571.5,331.5C 570.5,331.5 569.5,331.5 568.5,331.5C 568.824,328.306 567.658,327.306 565,328.5C 564.502,325.518 564.335,322.518 564.5,319.5 Z"/></g>
<g><path style="opacity:1" fill="#122a16" d="M 751.5,309.5 C 752.675,309.281 753.675,309.614 754.5,310.5C 756.198,315.006 757.364,319.673 758,324.5C 759,325.5 760,326.5 761,327.5C 762.25,334.507 763.417,341.507 764.5,348.5C 763.833,347.833 763.167,347.167 762.5,346.5C 762.5,346.167 762.5,345.833 762.5,345.5C 760.124,336.641 757.457,327.974 754.5,319.5C 753.901,316.037 752.901,312.704 751.5,309.5 Z"/></g>
<g><path style="opacity:1" fill="#132a17" d="M 639.5,328.5 C 638.214,331.117 636.547,333.45 634.5,335.5C 633.53,331.069 635.197,328.735 639.5,328.5 Z"/></g>
<g><path style="opacity:1" fill="#1e5f36" d="M 687.5,323.5 C 686.532,326.1 685.199,328.434 683.5,330.5C 683.725,327.454 685.058,325.121 687.5,323.5 Z"/></g>
<g><path style="opacity:1" fill="#143f1f" d="M 709.5,321.5 C 711.946,325.759 713.279,330.426 713.5,335.5C 712.801,333.444 711.801,331.444 710.5,329.5C 709.52,326.914 709.187,324.247 709.5,321.5 Z"/></g>
<g><path style="opacity:1" fill="#3c985a" d="M 754.5,319.5 C 757.457,327.974 760.124,336.641 762.5,345.5C 761.206,344.71 760.039,343.71 759,342.5C 756.663,334.982 755.163,327.315 754.5,319.5 Z"/></g>
<g><path style="opacity:1" fill="#194a24" d="M 683.5,330.5 C 682.78,334.945 680.78,338.612 677.5,341.5C 678.759,337.353 680.759,333.686 683.5,330.5 Z"/></g>
<g><path style="opacity:1" fill="#1a231c" d="M 634.5,335.5 C 632.419,339.43 630.086,343.264 627.5,347C 626.833,347.667 626.167,347.667 625.5,347C 624.934,346.005 624.267,345.172 623.5,344.5C 623.5,343.833 623.5,343.167 623.5,342.5C 622.92,340.251 621.587,338.585 619.5,337.5C 618.927,334.097 617.594,331.097 615.5,328.5C 617.144,328.286 618.644,328.62 620,329.5C 620.054,332.861 621.054,335.861 623,338.5C 624.968,334.635 626.634,330.635 628,326.5C 629.289,329.351 629.789,332.351 629.5,335.5C 628.5,335.5 627.5,335.5 626.5,335.5C 626.284,337.681 627.117,339.347 629,340.5C 630.704,338.627 632.537,336.96 634.5,335.5 Z"/></g>
<g><path style="opacity:1" fill="#30b055" d="M 689.5,319.5 C 687.824,320.183 687.157,321.517 687.5,323.5C 685.058,325.121 683.725,327.454 683.5,330.5C 680.759,333.686 678.759,337.353 677.5,341.5C 675.326,344.515 673.659,347.849 672.5,351.5C 671.662,351.842 671.328,352.508 671.5,353.5C 670.542,353.953 669.708,354.619 669,355.5C 666.727,359.525 664.561,363.525 662.5,367.5C 663.465,363.521 663.965,359.521 664,355.5C 662.89,357.037 661.39,357.703 659.5,357.5C 659.445,360.614 658.112,362.948 655.5,364.5C 655.337,362.143 655.503,359.81 656,357.5C 658.016,356.045 658.849,354.045 658.5,351.5C 651.165,351.395 643.999,351.395 637,351.5C 636.5,351.167 636,350.833 635.5,350.5C 637.171,348.49 637.838,346.157 637.5,343.5C 636.5,343.5 635.5,343.5 634.5,343.5C 634.5,346.167 634.5,348.833 634.5,351.5C 633.5,351.5 632.5,351.5 631.5,351.5C 631.08,349.906 630.414,348.406 629.5,347C 630.01,345.174 630.844,345.007 632,346.5C 631.911,342.059 633.745,340.726 637.5,342.5C 637.055,339.72 637.055,337.053 637.5,334.5C 640.317,332.183 642.984,329.683 645.5,327C 646.449,326.383 647.282,326.549 648,327.5C 648.483,326.552 648.649,325.552 648.5,324.5C 649.822,324.33 650.989,324.663 652,325.5C 654.46,324.245 655.627,322.245 655.5,319.5C 654.5,319.5 653.5,319.5 652.5,319.5C 652.833,322.5 651.5,323.833 648.5,323.5C 648.5,322.167 648.5,320.833 648.5,319.5C 649.5,319.5 650.5,319.5 651.5,319.5C 650.96,315.731 652.294,313.064 655.5,311.5C 656.75,311.423 657.583,310.756 658,309.5C 659.113,310.711 660.28,310.711 661.5,309.5C 662.768,307.696 663.435,305.696 663.5,303.5C 664.873,303.343 666.207,303.51 667.5,304C 667.112,305.808 667.112,307.475 667.5,309C 674.158,309.5 680.825,309.666 687.5,309.5C 687.357,307.738 687.691,306.071 688.5,304.5C 691.516,301.651 694.35,298.651 697,295.5C 696.745,298.082 696.578,300.748 696.5,303.5C 693.143,303.106 690.81,304.439 689.5,307.5C 690.167,307.833 690.833,308.167 691.5,308.5C 690.51,312.105 689.844,315.772 689.5,319.5 Z"/></g>
<g><path style="opacity:1" fill="#256432" d="M 619.5,337.5 C 621.587,338.585 622.92,340.251 623.5,342.5C 621.413,341.415 620.08,339.749 619.5,337.5 Z"/></g>
<g><path style="opacity:1" fill="#32b155" d="M 751.5,319.5 C 752.5,319.5 753.5,319.5 754.5,319.5C 755.163,327.315 756.663,334.982 759,342.5C 760.039,343.71 761.206,344.71 762.5,345.5C 762.5,345.833 762.5,346.167 762.5,346.5C 762.5,348.167 762.5,349.833 762.5,351.5C 761.566,350.432 761.232,349.099 761.5,347.5C 760.5,347.5 759.5,347.5 758.5,347.5C 758.5,354.167 758.5,360.833 758.5,367.5C 757.167,367.5 755.833,367.5 754.5,367.5C 753.6,362.2 753.6,356.867 754.5,351.5C 747.167,351.5 739.833,351.5 732.5,351.5C 732.453,354.568 731.953,357.568 731,360.5C 730.259,359.359 729.425,359.359 728.5,360.5C 727.516,357.572 727.183,354.572 727.5,351.5C 725.712,351.215 724.045,351.548 722.5,352.5C 723.246,353.736 723.579,355.07 723.5,356.5C 722.041,356.567 720.708,356.234 719.5,355.5C 719.768,353.901 719.434,352.568 718.5,351.5C 717.833,348.167 717.167,344.833 716.5,341.5C 716.5,339.5 716.5,337.5 716.5,335.5C 717.5,335.5 718.5,335.5 719.5,335.5C 719.5,331.833 719.5,328.167 719.5,324.5C 730.167,324.5 740.833,324.5 751.5,324.5C 751.5,322.833 751.5,321.167 751.5,319.5 Z"/></g>
<g><path style="opacity:1" fill="#16491f" d="M 714.5,338.5 C 715.167,339.5 715.833,340.5 716.5,341.5C 717.167,344.833 717.833,348.167 718.5,351.5C 717.307,351.03 716.64,350.03 716.5,348.5C 715.62,345.198 714.954,341.865 714.5,338.5 Z"/></g>
<g><path style="opacity:1" fill="#3ab353" d="M 613.5,327.5 C 614.167,327.833 614.833,328.167 615.5,328.5C 617.594,331.097 618.927,334.097 619.5,337.5C 620.08,339.749 621.413,341.415 623.5,342.5C 623.5,343.167 623.5,343.833 623.5,344.5C 623.286,346.144 623.62,347.644 624.5,349C 626.765,350.118 629.099,350.951 631.5,351.5C 632.5,351.5 633.5,351.5 634.5,351.5C 634.5,348.833 634.5,346.167 634.5,343.5C 635.5,343.5 636.5,343.5 637.5,343.5C 637.838,346.157 637.171,348.49 635.5,350.5C 636,350.833 636.5,351.167 637,351.5C 643.999,351.395 651.165,351.395 658.5,351.5C 658.849,354.045 658.016,356.045 656,357.5C 655.503,359.81 655.337,362.143 655.5,364.5C 639.5,364.5 623.5,364.5 607.5,364.5C 606.69,366.798 605.856,369.132 605,371.5C 603.294,370.692 602.461,369.359 602.5,367.5C 600.876,367.36 599.71,368.027 599,369.5C 598.228,368.151 597.061,367.318 595.5,367C 596.428,366.612 597.095,365.945 597.5,365C 596.81,363.079 596.476,361.245 596.5,359.5C 595.689,361.391 594.356,362.724 592.5,363.5C 592.251,362.418 592.085,361.085 592,359.5C 591.329,360.252 590.496,360.586 589.5,360.5C 588.833,360.5 588.5,360.167 588.5,359.5C 588.657,358.127 588.49,356.793 588,355.5C 585.02,350.211 582.02,344.878 579,339.5C 578.184,338.177 577.017,337.511 575.5,337.5C 575.5,336.833 575.5,336.167 575.5,335.5C 574.473,332.076 573.14,328.742 571.5,325.5C 572,324.5 572.5,323.5 573,322.5C 574.731,324.862 575.565,327.529 575.5,330.5C 586.5,330.5 597.5,330.5 608.5,330.5C 608.144,325.516 609.811,324.516 613.5,327.5 Z"/></g>
<g><path style="opacity:1" fill="#0b3216" d="M 677.5,341.5 C 677.376,345.748 675.71,349.082 672.5,351.5C 673.659,347.849 675.326,344.515 677.5,341.5 Z"/></g>
<g><path style="opacity:1" fill="#172f14" d="M 582.5,351.5 C 584.5,354.167 586.5,356.833 588.5,359.5C 588.5,360.167 588.833,360.5 589.5,360.5C 589.433,361.959 589.766,363.292 590.5,364.5C 589.178,364.67 588.011,364.337 587,363.5C 586.947,360.39 585.614,358.056 583,356.5C 582.506,354.866 582.34,353.199 582.5,351.5 Z"/></g>
<g><path style="opacity:1" fill="#469c58" d="M 575.5,337.5 C 577.017,337.511 578.184,338.177 579,339.5C 582.02,344.878 585.02,350.211 588,355.5C 588.49,356.793 588.657,358.127 588.5,359.5C 586.5,356.833 584.5,354.167 582.5,351.5C 580.692,346.55 578.358,341.883 575.5,337.5 Z"/></g>
<g><path style="opacity:1" fill="#489d59" d="M 762.5,346.5 C 763.167,347.167 763.833,347.833 764.5,348.5C 764.863,352.7 765.863,356.7 767.5,360.5C 767.5,361.167 767.5,361.833 767.5,362.5C 766.503,362.53 765.836,362.03 765.5,361C 764.232,357.794 763.232,354.627 762.5,351.5C 762.5,349.833 762.5,348.167 762.5,346.5 Z"/></g>
<g><path style="opacity:1" fill="#51ad59" d="M 719.5,355.5 C 720.708,356.234 722.041,356.567 723.5,356.5C 724.26,360.081 724.76,363.748 725,367.5C 725.29,369.044 725.956,370.377 727,371.5C 728.105,368.583 729.105,365.583 730,362.5C 730.667,361.167 731.333,361.167 732,362.5C 732.667,366.167 732.667,369.833 732,373.5C 730.397,374.886 729.563,376.719 729.5,379C 729.869,383.433 731.035,387.6 733,391.5C 733.497,394.146 733.664,396.813 733.5,399.5C 733.167,399.5 732.833,399.5 732.5,399.5C 731.833,398.167 731.167,396.833 730.5,395.5C 729.096,387.752 727.263,380.086 725,372.5C 724.626,370.509 723.793,368.842 722.5,367.5C 722.41,363.786 721.41,360.452 719.5,357.5C 719.5,356.833 719.5,356.167 719.5,355.5 Z"/></g>
<g><path style="opacity:1" fill="#5e7e5d" d="M 767.5,362.5 C 768.931,363.78 769.598,365.447 769.5,367.5C 767.744,366.448 767.077,364.781 767.5,362.5 Z"/></g>
<g><path style="opacity:1" fill="#173017" d="M 671.5,353.5 C 671.004,357.194 669.337,360.361 666.5,363C 664.765,369.666 661.432,375.166 656.5,379.5C 658.482,375.535 660.482,371.535 662.5,367.5C 664.561,363.525 666.727,359.525 669,355.5C 669.708,354.619 670.542,353.953 671.5,353.5 Z"/></g>
<g><path style="opacity:1" fill="#0e3415" d="M 719.5,357.5 C 721.41,360.452 722.41,363.786 722.5,367.5C 721.069,367.119 720.236,366.119 720,364.5C 719.503,362.19 719.337,359.857 719.5,357.5 Z"/></g>
<g><path style="opacity:1" fill="#172b15" d="M 774.5,383.5 C 773.662,383.158 773.328,382.492 773.5,381.5C 772.107,376.753 770.774,372.086 769.5,367.5C 769.598,365.447 768.931,363.78 767.5,362.5C 767.5,361.833 767.5,361.167 767.5,360.5C 768.117,360.389 768.617,360.056 769,359.5C 770.515,361.677 772.015,363.844 773.5,366C 770.78,369.048 770.947,371.881 774,374.5C 774.498,377.482 774.665,380.482 774.5,383.5 Z"/></g>
<g><path style="opacity:1" fill="#1e3f1d" d="M 593.5,369.5 C 596.231,372.295 597.898,375.628 598.5,379.5C 595.769,376.705 594.102,373.372 593.5,369.5 Z"/></g>
<g><path style="opacity:1" fill="#519b59" d="M 769.5,367.5 C 770.774,372.086 772.107,376.753 773.5,381.5C 770.074,377.535 768.74,372.869 769.5,367.5 Z"/></g>
<g><path style="opacity:1" fill="#52b653" d="M 662.5,367.5 C 660.482,371.535 658.482,375.535 656.5,379.5C 655.662,379.842 655.328,380.508 655.5,381.5C 652.441,385.937 649.608,390.603 647,395.5C 645.188,396.977 643.355,398.31 641.5,399.5C 640.508,399.328 639.842,399.662 639.5,400.5C 630.697,402.158 622.03,401.825 613.5,399.5C 613.167,399.5 612.833,399.5 612.5,399.5C 611.207,397.704 609.707,396.037 608,394.5C 607.517,393.552 607.351,392.552 607.5,391.5C 607.02,388.995 606.02,386.662 604.5,384.5C 604.043,383.702 603.376,383.369 602.5,383.5C 602.167,383.5 601.833,383.5 601.5,383.5C 600.5,382.167 599.5,380.833 598.5,379.5C 597.898,375.628 596.231,372.295 593.5,369.5C 592.64,367.712 591.64,366.045 590.5,364.5C 589.766,363.292 589.433,361.959 589.5,360.5C 590.496,360.586 591.329,360.252 592,359.5C 592.085,361.085 592.251,362.418 592.5,363.5C 594.356,362.724 595.689,361.391 596.5,359.5C 596.476,361.245 596.81,363.079 597.5,365C 597.095,365.945 596.428,366.612 595.5,367C 597.061,367.318 598.228,368.151 599,369.5C 599.71,368.027 600.876,367.36 602.5,367.5C 602.461,369.359 603.294,370.692 605,371.5C 605.856,369.132 606.69,366.798 607.5,364.5C 623.5,364.5 639.5,364.5 655.5,364.5C 658.112,362.948 659.445,360.614 659.5,357.5C 661.39,357.703 662.89,357.037 664,355.5C 663.965,359.521 663.465,363.521 662.5,367.5 Z"/></g>
<g><path style="opacity:1" fill="#68a966" d="M 602.5,383.5 C 603.376,383.369 604.043,383.702 604.5,384.5C 606.02,386.662 607.02,388.995 607.5,391.5C 605.05,389.371 603.383,386.704 602.5,383.5 Z"/></g>
<g><path style="opacity:1" fill="#4db752" d="M 762.5,351.5 C 763.232,354.627 764.232,357.794 765.5,361C 765.836,362.03 766.503,362.53 767.5,362.5C 767.077,364.781 767.744,366.448 769.5,367.5C 768.74,372.869 770.074,377.535 773.5,381.5C 773.328,382.492 773.662,383.158 774.5,383.5C 774.468,389.744 775.468,395.744 777.5,401.5C 762.659,402.095 747.993,401.428 733.5,399.5C 733.664,396.813 733.497,394.146 733,391.5C 731.035,387.6 729.869,383.433 729.5,379C 729.563,376.719 730.397,374.886 732,373.5C 732.667,369.833 732.667,366.167 732,362.5C 731.333,361.167 730.667,361.167 730,362.5C 729.105,365.583 728.105,368.583 727,371.5C 725.956,370.377 725.29,369.044 725,367.5C 724.76,363.748 724.26,360.081 723.5,356.5C 723.579,355.07 723.246,353.736 722.5,352.5C 724.045,351.548 725.712,351.215 727.5,351.5C 727.183,354.572 727.516,357.572 728.5,360.5C 729.425,359.359 730.259,359.359 731,360.5C 731.953,357.568 732.453,354.568 732.5,351.5C 739.833,351.5 747.167,351.5 754.5,351.5C 753.6,356.867 753.6,362.2 754.5,367.5C 755.833,367.5 757.167,367.5 758.5,367.5C 758.5,360.833 758.5,354.167 758.5,347.5C 759.5,347.5 760.5,347.5 761.5,347.5C 761.232,349.099 761.566,350.432 762.5,351.5 Z"/></g>
<g><path style="opacity:1" fill="#123115" d="M 722.5,367.5 C 723.793,368.842 724.626,370.509 725,372.5C 727.263,380.086 729.096,387.752 730.5,395.5C 729.685,394.571 728.852,393.571 728,392.5C 724.936,384.335 723.102,376.002 722.5,367.5 Z"/></g>
<g><path style="opacity:1" fill="#162916" d="M 601.5,383.5 C 601.833,383.5 602.167,383.5 602.5,383.5C 603.383,386.704 605.05,389.371 607.5,391.5C 607.351,392.552 607.517,393.552 608,394.5C 609.707,396.037 611.207,397.704 612.5,399.5C 609.407,398.771 606.907,397.104 605,394.5C 604.527,392.221 603.527,390.221 602,388.5C 601.506,386.866 601.34,385.199 601.5,383.5 Z"/></g>
<g><path style="opacity:1" fill="#153612" d="M 655.5,381.5 C 653.81,387.939 650.81,393.606 646.5,398.5C 644.955,399.452 643.288,399.785 641.5,399.5C 643.355,398.31 645.188,396.977 647,395.5C 649.608,390.603 652.441,385.937 655.5,381.5 Z"/></g>
<g><path style="opacity:1" fill="#231b23" d="M 729.5,399.5 C 728.847,402.058 729.847,404.225 732.5,406C 733.749,406.74 734.749,406.573 735.5,405.5C 750.504,405.667 765.504,405.5 780.5,405C 783.126,402.971 784.126,403.805 783.5,407.5C 780.523,408.071 777.69,409.071 775,410.5C 773.266,409.751 771.433,409.251 769.5,409C 758.172,408.5 746.838,408.333 735.5,408.5C 735.5,410.167 735.5,411.833 735.5,413.5C 732.26,413.232 729.094,412.566 726,411.5C 723.98,412.032 723.147,413.365 723.5,415.5C 722.167,415.5 720.833,415.5 719.5,415.5C 719.5,414.167 719.5,412.833 719.5,411.5C 721.346,411.778 722.68,411.111 723.5,409.5C 722.892,405.936 721.725,402.603 720,399.5C 719.333,397.5 719.333,395.5 720,393.5C 721.319,395.25 721.819,397.25 721.5,399.5C 723.167,399.5 724.833,399.5 726.5,399.5C 726.646,394.579 727.646,394.579 729.5,399.5 Z"/></g>
<g><path style="opacity:1" fill="#68a561" d="M 774.5,383.5 C 774.833,383.5 775.167,383.5 775.5,383.5C 776.824,389.813 778.157,396.146 779.5,402.5C 763.833,402.5 748.167,402.5 732.5,402.5C 732.5,401.5 732.5,400.5 732.5,399.5C 732.833,399.5 733.167,399.5 733.5,399.5C 747.993,401.428 762.659,402.095 777.5,401.5C 775.468,395.744 774.468,389.744 774.5,383.5 Z"/></g>
<g><path style="opacity:1" fill="#173013" d="M 613.5,399.5 C 622.03,401.825 630.697,402.158 639.5,400.5C 634.41,402.144 629.077,403.144 623.5,403.5C 620.813,403.664 618.146,403.497 615.5,403C 614.027,402.29 613.36,401.124 613.5,399.5 Z"/></g>
<g><path style="opacity:1" fill="#152b12" d="M 775.5,383.5 C 779.092,388.144 780.759,393.477 780.5,399.5C 781.675,399.281 782.675,399.614 783.5,400.5C 781.972,401.861 780.305,403.028 778.5,404C 763.994,404.169 749.661,404.669 735.5,405.5C 734.749,406.573 733.749,406.74 732.5,406C 729.847,404.225 728.847,402.058 729.5,399.5C 730.434,398.432 730.768,397.099 730.5,395.5C 731.167,396.833 731.833,398.167 732.5,399.5C 732.5,400.5 732.5,401.5 732.5,402.5C 748.167,402.5 763.833,402.5 779.5,402.5C 778.157,396.146 776.824,389.813 775.5,383.5 Z"/></g>
<g><path style="opacity:1" fill="#281629" d="M 623.5,403.5 C 628.875,403.172 634.208,403.505 639.5,404.5C 634.015,405.167 628.681,405.833 623.5,406.5C 623.5,406.833 623.5,407.167 623.5,407.5C 620.753,407.813 618.086,407.48 615.5,406.5C 615.709,405.914 616.043,405.414 616.5,405C 619.036,404.814 621.369,404.314 623.5,403.5 Z"/></g>
<g><path style="opacity:1" fill="#192316" d="M 623.5,406.5 C 628.833,406.5 634.167,406.5 639.5,406.5C 639.5,407.5 639.5,408.5 639.5,409.5C 634.167,409.5 628.833,409.5 623.5,409.5C 623.5,410.5 623.5,411.5 623.5,412.5C 620.603,412.875 617.937,412.375 615.5,411C 616.167,410.333 616.833,409.667 617.5,409C 619.708,408.809 621.708,408.309 623.5,407.5C 623.5,407.167 623.5,406.833 623.5,406.5 Z"/></g>
<g><path style="opacity:1" fill="#d8ecd1" d="M 636.5,655.5 C 628.167,655.5 619.833,655.5 611.5,655.5C 610.833,655.5 610.167,655.5 609.5,655.5C 612.998,652.056 617.332,650.723 622.5,651.5C 627.907,650.768 632.573,652.101 636.5,655.5 Z"/></g>
<g><path style="opacity:1" fill="#deefd6" d="M 719.5,655.5 C 717.833,655.5 716.167,655.5 714.5,655.5C 705.5,655.5 696.5,655.5 687.5,655.5C 687.5,654.5 687.5,653.5 687.5,652.5C 689.695,653.608 691.695,653.441 693.5,652C 699.5,651.333 705.5,651.333 711.5,652C 714.601,652.638 717.268,653.805 719.5,655.5 Z"/></g>
<g><path style="opacity:1" fill="#69bd50" d="M 611.5,655.5 C 619.833,655.5 628.167,655.5 636.5,655.5C 638.179,655.285 639.179,655.952 639.5,657.5C 640.879,664.882 642.713,672.216 645,679.5C 646.431,682.391 647.931,685.057 649.5,687.5C 649.5,692.833 649.5,698.167 649.5,703.5C 648.5,703.5 647.5,703.5 646.5,703.5C 645.444,698.219 644.777,692.886 644.5,687.5C 643.5,687.5 642.5,687.5 641.5,687.5C 640.517,678.348 639.684,678.348 639,687.5C 638.83,698.341 638.33,709.008 637.5,719.5C 636.596,718.791 636.263,717.791 636.5,716.5C 636.54,713.119 636.207,709.786 635.5,706.5C 635.665,702.818 635.499,699.152 635,695.5C 633.453,692.299 631.953,689.132 630.5,686C 631.476,683.853 631.309,681.686 630,679.5C 629.667,679.833 629.333,680.167 629,680.5C 627.333,679.833 625.667,679.167 624,678.5C 624.366,685.522 624.866,693.189 625.5,701.5C 625.263,724.456 625.263,747.456 625.5,770.5C 622.116,770.66 618.783,770.327 615.5,769.5C 612.481,770.17 609.481,770.837 606.5,771.5C 605.341,735.571 605.174,699.571 606,663.5C 607.631,660.636 609.464,657.97 611.5,655.5 Z"/></g>
<g><path style="opacity:1" fill="#7bb869" d="M 639.5,657.5 C 640.458,657.953 641.292,658.619 642,659.5C 642.881,662.647 644.047,665.647 645.5,668.5C 646.546,674.914 647.879,681.247 649.5,687.5C 647.931,685.057 646.431,682.391 645,679.5C 642.713,672.216 640.879,664.882 639.5,657.5 Z"/></g>
<g><path style="opacity:1" fill="#f1feed" d="M 607.5,655.5 C 607.608,657.514 606.942,659.18 605.5,660.5C 604.883,660.611 604.383,660.944 604,661.5C 603.5,696.832 603.333,732.165 603.5,767.5C 602.806,733.99 602.139,700.323 601.5,666.5C 601.618,661.673 603.618,658.006 607.5,655.5 Z"/></g>
<g><path style="opacity:1" fill="#b7e1ac" d="M 605.5,660.5 C 604.513,696.79 604.18,733.124 604.5,769.5C 603.662,769.158 603.328,768.492 603.5,767.5C 603.333,732.165 603.5,696.832 604,661.5C 604.383,660.944 604.883,660.611 605.5,660.5 Z"/></g>
<g><path style="opacity:1" fill="#7bb867" d="M 607.5,655.5 C 608.167,655.5 608.833,655.5 609.5,655.5C 610.167,655.5 610.833,655.5 611.5,655.5C 609.464,657.97 607.631,660.636 606,663.5C 605.174,699.571 605.341,735.571 606.5,771.5C 607.301,773.042 607.634,774.708 607.5,776.5C 605.552,774.68 604.552,772.346 604.5,769.5C 604.18,733.124 604.513,696.79 605.5,660.5C 606.942,659.18 607.608,657.514 607.5,655.5 Z"/></g>
<g><path style="opacity:1" fill="#83bf74" d="M 714.5,655.5 C 716.167,655.5 717.833,655.5 719.5,655.5C 719.5,656.167 719.5,656.833 719.5,657.5C 720.476,658.815 721.476,660.148 722.5,661.5C 723.667,697.495 723.833,733.495 723,769.5C 722.478,772.281 721.311,774.615 719.5,776.5C 719.231,774.571 719.731,772.905 721,771.5C 721.667,735.5 721.667,699.5 721,663.5C 719.648,661.568 717.815,660.234 715.5,659.5C 714.754,658.264 714.421,656.93 714.5,655.5 Z"/></g>
<g><path style="opacity:1" fill="#f0feed" d="M 719.5,657.5 C 723.703,658.204 726.036,660.704 726.5,665C 725.873,667.135 725.373,669.302 725,671.5C 724.667,706.5 724.333,741.5 724,776.5C 722.89,778.037 721.39,778.703 719.5,778.5C 719.5,778.167 719.5,777.833 719.5,777.5C 719.5,777.167 719.5,776.833 719.5,776.5C 721.311,774.615 722.478,772.281 723,769.5C 723.833,733.495 723.667,697.495 722.5,661.5C 721.476,660.148 720.476,658.815 719.5,657.5 Z"/></g>
<g><path style="opacity:1" fill="#85bd72" d="M 683.5,664.5 C 683.666,668.514 683.499,672.514 683,676.5C 681.054,679.139 680.054,682.139 680,685.5C 679.583,686.756 678.75,687.423 677.5,687.5C 678.504,679.445 680.504,671.778 683.5,664.5 Z"/></g>
<g><path style="opacity:1" fill="#f1fee8" d="M 685.5,658.5 C 684.833,660.5 684.167,662.5 683.5,664.5C 680.504,671.778 678.504,679.445 677.5,687.5C 676.082,693.012 674.082,698.345 671.5,703.5C 672.929,695.854 674.429,688.188 676,680.5C 677.899,673.05 680.065,665.717 682.5,658.5C 683.5,658.5 684.5,658.5 685.5,658.5 Z"/></g>
<g><path style="opacity:1" fill="#edfbe3" d="M 645.5,668.5 C 647.776,668.756 648.943,670.09 649,672.5C 651.073,682.877 653.24,693.21 655.5,703.5C 653.733,698.214 651.733,692.881 649.5,687.5C 647.879,681.247 646.546,674.914 645.5,668.5 Z"/></g>
<g><path style="opacity:1" fill="#89bf78" d="M 774.5,687.5 C 775.598,688.397 775.598,689.23 774.5,690C 769.021,691.052 764.021,692.885 759.5,695.5C 763.591,691.342 768.591,688.675 774.5,687.5 Z"/></g>
<g><path style="opacity:1" fill="#cfedcb" d="M 801.5,688.5 C 804.522,688.804 807.522,689.304 810.5,690C 811.252,690.671 811.586,691.504 811.5,692.5C 809.254,691.545 806.921,690.878 804.5,690.5C 802.973,690.573 801.973,689.906 801.5,688.5 Z"/></g>
<g><path style="opacity:1" fill="#eafce3" d="M 828.5,709.5 C 826.355,706.567 824.188,703.567 822,700.5C 818.6,697.586 815.1,694.92 811.5,692.5C 812.822,692.67 813.989,692.337 815,691.5C 815.772,692.849 816.939,693.682 818.5,694C 821.383,697.249 824.383,700.416 827.5,703.5C 828.466,705.396 828.799,707.396 828.5,709.5 Z"/></g>
<g><path style="opacity:1" fill="#81b76f" d="M 629.5,687.5 C 630.427,690.588 631.76,693.588 633.5,696.5C 634.167,699.977 634.834,703.311 635.5,706.5C 636.207,709.786 636.54,713.119 636.5,716.5C 635.715,714.626 635.048,712.626 634.5,710.5C 632.958,702.79 631.292,695.123 629.5,687.5 Z"/></g>
<g><path style="opacity:1" fill="#8ec480" d="M 677.5,687.5 C 677.286,693.259 676.453,698.926 675,704.5C 674.578,706.426 673.411,707.426 671.5,707.5C 671.5,706.167 671.5,704.833 671.5,703.5C 674.082,698.345 676.082,693.012 677.5,687.5 Z"/></g>
<g><path style="opacity:1" fill="#6fbb59" d="M 804.5,690.5 C 806.921,690.878 809.254,691.545 811.5,692.5C 815.1,694.92 818.6,697.586 822,700.5C 824.188,703.567 826.355,706.567 828.5,709.5C 829.508,712.844 830.508,716.177 831.5,719.5C 829.922,718.934 828.588,717.934 827.5,716.5C 826.905,713.683 825.572,711.35 823.5,709.5C 822.28,709.887 821.613,710.72 821.5,712C 822.322,714.434 822.656,716.934 822.5,719.5C 821.167,719.5 819.833,719.5 818.5,719.5C 818.5,717.833 818.5,716.167 818.5,714.5C 816.876,714.36 815.71,715.027 815,716.5C 812.797,714.331 811.964,711.665 812.5,708.5C 811.448,708.649 810.448,708.483 809.5,708C 807.994,705.575 806.327,703.242 804.5,701C 802.866,700.506 801.199,700.34 799.5,700.5C 799.5,699.167 799.5,697.833 799.5,696.5C 804.454,697.473 809.121,699.306 813.5,702C 813.854,703.626 813.854,705.459 813.5,707.5C 817.074,708.092 819.074,706.592 819.5,703C 818.809,701.933 818.309,700.766 818,699.5C 813.639,699.489 810.639,697.489 809,693.5C 807.348,692.601 805.848,691.601 804.5,690.5 Z"/></g>
<g><path style="opacity:1" fill="#69bd50" d="M 774.5,687.5 C 783.553,687.222 792.553,687.556 801.5,688.5C 801.973,689.906 802.973,690.573 804.5,690.5C 805.848,691.601 807.348,692.601 809,693.5C 810.639,697.489 813.639,699.489 818,699.5C 818.309,700.766 818.809,701.933 819.5,703C 819.074,706.592 817.074,708.092 813.5,707.5C 813.854,705.459 813.854,703.626 813.5,702C 809.121,699.306 804.454,697.473 799.5,696.5C 799.5,697.833 799.5,699.167 799.5,700.5C 801.199,700.34 802.866,700.506 804.5,701C 806.327,703.242 807.994,705.575 809.5,708C 810.448,708.483 811.448,708.649 812.5,708.5C 811.964,711.665 812.797,714.331 815,716.5C 815.71,715.027 816.876,714.36 818.5,714.5C 818.5,716.167 818.5,717.833 818.5,719.5C 819.833,719.5 821.167,719.5 822.5,719.5C 822.656,716.934 822.322,714.434 821.5,712C 821.613,710.72 822.28,709.887 823.5,709.5C 825.572,711.35 826.905,713.683 827.5,716.5C 828.588,717.934 829.922,718.934 831.5,719.5C 831.5,720.167 831.5,720.833 831.5,721.5C 831.5,728.833 831.5,736.167 831.5,743.5C 831.813,746.247 831.48,748.914 830.5,751.5C 827.477,756.212 824.977,761.212 823,766.5C 822.329,767.252 821.496,767.586 820.5,767.5C 817.114,769.468 813.448,770.968 809.5,772C 805.948,774.095 802.614,776.261 799.5,778.5C 792.492,778.666 785.492,778.5 778.5,778C 773.622,776.098 768.622,774.598 763.5,773.5C 762.185,771.684 760.685,770.017 759,768.5C 758.316,767.216 758.483,766.049 759.5,765C 756.117,763.198 752.95,761.031 750,758.5C 749.503,756.19 749.337,753.857 749.5,751.5C 748.5,751.5 747.5,751.5 746.5,751.5C 746.849,747.936 746.183,744.602 744.5,741.5C 743.503,734.197 743.169,726.863 743.5,719.5C 744.989,713.998 746.989,708.665 749.5,703.5C 752.52,700.484 755.854,697.817 759.5,695.5C 764.021,692.885 769.021,691.052 774.5,690C 775.598,689.23 775.598,688.397 774.5,687.5 Z"/></g>
<g><path style="opacity:1" fill="#89be74" d="M 783.5,703.5 C 777.137,706.026 771.804,710.026 767.5,715.5C 769.761,707.676 775.095,703.676 783.5,703.5 Z"/></g>
<g><path style="opacity:1" fill="#fcfdfb" d="M 783.5,703.5 C 789.435,703.045 794.768,704.378 799.5,707.5C 801.833,710.003 803.999,712.669 806,715.5C 807.707,717.909 808.54,720.575 808.5,723.5C 808.914,732.362 808.247,741.028 806.5,749.5C 805.099,752.634 803.432,755.634 801.5,758.5C 799.463,759.846 797.463,761.18 795.5,762.5C 794.167,762.5 792.833,762.5 791.5,762.5C 787.119,762.628 782.785,762.295 778.5,761.5C 776.809,758.153 775.142,754.819 773.5,751.5C 771.833,751.5 770.167,751.5 768.5,751.5C 768.167,751.5 767.833,751.5 767.5,751.5C 766.185,745.568 765.185,739.568 764.5,733.5C 764.848,728.777 765.515,724.111 766.5,719.5C 767.434,718.432 767.768,717.099 767.5,715.5C 771.804,710.026 777.137,706.026 783.5,703.5 Z"/></g>
<g><path style="opacity:1" fill="#6abd52" d="M 687.5,655.5 C 696.5,655.5 705.5,655.5 714.5,655.5C 714.421,656.93 714.754,658.264 715.5,659.5C 717.815,660.234 719.648,661.568 721,663.5C 721.667,699.5 721.667,735.5 721,771.5C 719.731,772.905 719.231,774.571 719.5,776.5C 719.5,776.833 719.5,777.167 719.5,777.5C 714.13,777.608 708.797,777.275 703.5,776.5C 703.628,774.345 703.128,772.345 702,770.5C 701.833,762 701.667,753.5 701.5,745C 701.99,722.814 702.49,700.647 703,678.5C 696.288,680.606 693.788,684.939 695.5,691.5C 692.905,700.661 691.239,709.995 690.5,719.5C 688.34,728.037 686.34,736.704 684.5,745.5C 683.542,747.302 682.875,749.302 682.5,751.5C 681.5,751.5 680.5,751.5 679.5,751.5C 679.205,761.041 676.539,769.708 671.5,777.5C 671.5,777.833 671.5,778.167 671.5,778.5C 666.167,778.5 660.833,778.5 655.5,778.5C 655.5,778.167 655.5,777.833 655.5,777.5C 655.627,774.755 654.46,772.755 652,771.5C 651.146,764.757 649.979,758.091 648.5,751.5C 649.5,751.5 650.5,751.5 651.5,751.5C 651.307,747.993 651.973,744.66 653.5,741.5C 652.917,739.998 652.084,738.665 651,737.5C 649.601,750.124 647.434,750.457 644.5,738.5C 646.366,735.07 647.532,731.403 648,727.5C 650.203,725.331 651.036,722.665 650.5,719.5C 648.833,719.5 647.167,719.5 645.5,719.5C 645.167,721.5 644.833,723.5 644.5,725.5C 642.833,725.5 641.167,725.5 639.5,725.5C 639.334,715.494 639.5,705.494 640,695.5C 642.023,697.769 642.856,700.436 642.5,703.5C 643.5,703.5 644.5,703.5 645.5,703.5C 644.857,711.362 648.524,715.029 656.5,714.5C 659.334,721.14 661.001,728.14 661.5,735.5C 662.833,735.5 664.167,735.5 665.5,735.5C 666.675,725.978 668.675,716.645 671.5,707.5C 673.411,707.426 674.578,706.426 675,704.5C 676.453,698.926 677.286,693.259 677.5,687.5C 678.75,687.423 679.583,686.756 680,685.5C 680.054,682.139 681.054,679.139 683,676.5C 683.499,672.514 683.666,668.514 683.5,664.5C 684.167,662.5 684.833,660.5 685.5,658.5C 686.906,658.027 687.573,657.027 687.5,655.5 Z"/></g>
<g><path style="opacity:1" fill="#78ba61" d="M 703.5,776.5 C 701.461,775.089 700.461,773.089 700.5,770.5C 700.5,742.833 700.5,715.167 700.5,687.5C 699.5,687.5 698.5,687.5 697.5,687.5C 697.296,690.518 696.963,693.518 696.5,696.5C 694.229,704.222 692.229,711.889 690.5,719.5C 691.239,709.995 692.905,700.661 695.5,691.5C 693.788,684.939 696.288,680.606 703,678.5C 702.49,700.647 701.99,722.814 701.5,745C 701.667,753.5 701.833,762 702,770.5C 703.128,772.345 703.628,774.345 703.5,776.5 Z"/></g>
<g><path style="opacity:1" fill="#cef0c9" d="M 700.5,770.5 C 699.833,744.997 699.167,719.33 698.5,693.5C 697.824,694.602 697.158,695.602 696.5,696.5C 696.963,693.518 697.296,690.518 697.5,687.5C 698.5,687.5 699.5,687.5 700.5,687.5C 700.5,715.167 700.5,742.833 700.5,770.5 Z"/></g>
<g><path style="opacity:1" fill="#89c177" d="M 799.5,707.5 C 803.747,709.577 807.247,712.577 810,716.5C 810.29,724.017 810.79,731.517 811.5,739C 810.669,745.142 808.836,750.975 806,756.5C 804.89,758.037 803.39,758.703 801.5,758.5C 803.432,755.634 805.099,752.634 806.5,749.5C 807.927,747.852 808.76,745.852 809,743.5C 809.821,736.654 809.654,729.987 808.5,723.5C 808.54,720.575 807.707,717.909 806,715.5C 803.999,712.669 801.833,710.003 799.5,707.5 Z"/></g>
<g><path style="opacity:1" fill="#6fbc59" d="M 649.5,687.5 C 651.733,692.881 653.733,698.214 655.5,703.5C 655.552,707.198 655.886,710.865 656.5,714.5C 648.524,715.029 644.857,711.362 645.5,703.5C 644.5,703.5 643.5,703.5 642.5,703.5C 642.856,700.436 642.023,697.769 640,695.5C 639.5,705.494 639.334,715.494 639.5,725.5C 641.167,725.5 642.833,725.5 644.5,725.5C 644.833,723.5 645.167,721.5 645.5,719.5C 647.167,719.5 648.833,719.5 650.5,719.5C 651.036,722.665 650.203,725.331 648,727.5C 647.532,731.403 646.366,735.07 644.5,738.5C 647.434,750.457 649.601,750.124 651,737.5C 652.084,738.665 652.917,739.998 653.5,741.5C 651.973,744.66 651.307,747.993 651.5,751.5C 650.5,751.5 649.5,751.5 648.5,751.5C 649.979,758.091 651.146,764.757 652,771.5C 654.46,772.755 655.627,774.755 655.5,777.5C 654.115,776.386 652.615,775.386 651,774.5C 650.61,771.896 649.776,769.562 648.5,767.5C 646.385,757.49 644.051,747.49 641.5,737.5C 641.253,736.287 640.586,735.62 639.5,735.5C 639.464,730.07 638.797,724.737 637.5,719.5C 638.33,709.008 638.83,698.341 639,687.5C 639.684,678.348 640.517,678.348 641.5,687.5C 642.5,687.5 643.5,687.5 644.5,687.5C 644.777,692.886 645.444,698.219 646.5,703.5C 647.5,703.5 648.5,703.5 649.5,703.5C 649.5,698.167 649.5,692.833 649.5,687.5 Z"/></g>
<g><path style="opacity:1" fill="#edfde6" d="M 749.5,703.5 C 746.989,708.665 744.989,713.998 743.5,719.5C 742.71,720.609 742.21,721.942 742,723.5C 740.035,738.534 743.202,752.201 751.5,764.5C 749.833,764.5 748.167,764.5 746.5,764.5C 746.855,760.065 745.355,756.398 742,753.5C 740.508,742.206 740.174,730.872 741,719.5C 742.688,714.26 744.855,709.26 747.5,704.5C 747.957,703.702 748.624,703.369 749.5,703.5 Z"/></g>
<g><path style="opacity:1" fill="#f1fdec" d="M 628.5,687.5 C 628.833,687.5 629.167,687.5 629.5,687.5C 631.292,695.123 632.958,702.79 634.5,710.5C 633.175,711.953 632.342,711.619 632,709.5C 631.505,707.527 631.338,705.527 631.5,703.5C 630.5,703.5 629.5,703.5 628.5,703.5C 628.612,708.511 628.946,713.511 629.5,718.5C 628.744,737.823 628.244,757.157 628,776.5C 626.89,778.037 625.39,778.703 623.5,778.5C 625.086,775.743 626.086,772.743 626.5,769.5C 627.167,742.167 627.833,714.833 628.5,687.5 Z"/></g>
<g><path style="opacity:1" fill="#a5d396" d="M 628.5,687.5 C 627.833,714.833 627.167,742.167 626.5,769.5C 626.333,740.165 626.5,710.831 627,681.5C 628.128,683.345 628.628,685.345 628.5,687.5 Z"/></g>
<g><path style="opacity:1" fill="#94bd8b" d="M 831.5,721.5 C 833.364,727.925 833.864,734.592 833,741.5C 832.722,742.416 832.222,743.082 831.5,743.5C 831.5,736.167 831.5,728.833 831.5,721.5 Z"/></g>
<g><path style="opacity:1" fill="#e5fdde" d="M 808.5,723.5 C 809.654,729.987 809.821,736.654 809,743.5C 808.76,745.852 807.927,747.852 806.5,749.5C 808.247,741.028 808.914,732.362 808.5,723.5 Z"/></g>
<g><path style="opacity:1" fill="#7dba66" d="M 766.5,719.5 C 765.515,724.111 764.848,728.777 764.5,733.5C 765.185,739.568 766.185,745.568 767.5,751.5C 766.5,751.5 765.5,751.5 764.5,751.5C 763.402,747.368 762.402,743.202 761.5,739C 763.079,733.606 764.079,728.106 764.5,722.5C 764.64,720.97 765.307,719.97 766.5,719.5 Z"/></g>
<g><path style="opacity:1" fill="#7abc64" d="M 743.5,719.5 C 743.169,726.863 743.503,734.197 744.5,741.5C 746.183,744.602 746.849,747.936 746.5,751.5C 747.5,751.5 748.5,751.5 749.5,751.5C 749.337,753.857 749.503,756.19 750,758.5C 752.95,761.031 756.117,763.198 759.5,765C 758.483,766.049 758.316,767.216 759,768.5C 760.685,770.017 762.185,771.684 763.5,773.5C 768.622,774.598 773.622,776.098 778.5,778C 785.492,778.5 792.492,778.666 799.5,778.5C 797.735,779.461 795.735,779.795 793.5,779.5C 787.824,779.666 782.157,779.499 776.5,779C 773.688,777.451 770.688,776.618 767.5,776.5C 760.712,774.371 755.379,770.371 751.5,764.5C 743.202,752.201 740.035,738.534 742,723.5C 742.21,721.942 742.71,720.609 743.5,719.5 Z"/></g>
<g><path style="opacity:1" fill="#e7fade" d="M 768.5,751.5 C 770.167,751.5 771.833,751.5 773.5,751.5C 775.142,754.819 776.809,758.153 778.5,761.5C 782.785,762.295 787.119,762.628 791.5,762.5C 784.747,764.765 778.747,763.432 773.5,758.5C 771.569,756.284 769.902,753.951 768.5,751.5 Z"/></g>
<g><path style="opacity:1" fill="#e8fae0" d="M 639.5,735.5 C 640.586,735.62 641.253,736.287 641.5,737.5C 644.051,747.49 646.385,757.49 648.5,767.5C 647.25,767.423 646.417,766.756 646,765.5C 643.83,755.419 641.664,745.419 639.5,735.5 Z"/></g>
<g><path style="opacity:1" fill="#edfde5" d="M 684.5,745.5 C 684.111,750.504 683.611,755.504 683,760.5C 681.89,767.29 679.723,773.624 676.5,779.5C 674.833,779.5 673.167,779.5 671.5,779.5C 671.5,779.167 671.5,778.833 671.5,778.5C 671.5,778.167 671.5,777.833 671.5,777.5C 673.017,777.489 674.184,776.823 675,775.5C 678.427,767.791 680.927,759.791 682.5,751.5C 682.875,749.302 683.542,747.302 684.5,745.5 Z"/></g>
<g><path style="opacity:1" fill="#81b96f" d="M 682.5,751.5 C 680.927,759.791 678.427,767.791 675,775.5C 674.184,776.823 673.017,777.489 671.5,777.5C 676.539,769.708 679.205,761.041 679.5,751.5C 680.5,751.5 681.5,751.5 682.5,751.5 Z"/></g>
<g><path style="opacity:1" fill="#7eb86e" d="M 767.5,751.5 C 767.833,751.5 768.167,751.5 768.5,751.5C 769.902,753.951 771.569,756.284 773.5,758.5C 778.747,763.432 784.747,764.765 791.5,762.5C 792.833,762.5 794.167,762.5 795.5,762.5C 795.389,763.117 795.056,763.617 794.5,764C 788.833,764.667 783.167,764.667 777.5,764C 774.354,761.688 771.354,759.188 768.5,756.5C 767.548,754.955 767.215,753.288 767.5,751.5 Z"/></g>
<g><path style="opacity:1" fill="#71ba59" d="M 635.5,706.5 C 634.834,703.311 634.167,699.977 633.5,696.5C 631.76,693.588 630.427,690.588 629.5,687.5C 629.167,687.5 628.833,687.5 628.5,687.5C 628.628,685.345 628.128,683.345 627,681.5C 626.5,710.831 626.333,740.165 626.5,769.5C 626.086,772.743 625.086,775.743 623.5,778.5C 618.568,780.8 613.568,780.967 608.5,779C 607.748,778.329 607.414,777.496 607.5,776.5C 607.634,774.708 607.301,773.042 606.5,771.5C 609.481,770.837 612.481,770.17 615.5,769.5C 618.783,770.327 622.116,770.66 625.5,770.5C 625.263,747.456 625.263,724.456 625.5,701.5C 624.866,693.189 624.366,685.522 624,678.5C 625.667,679.167 627.333,679.833 629,680.5C 629.333,680.167 629.667,679.833 630,679.5C 631.309,681.686 631.476,683.853 630.5,686C 631.953,689.132 633.453,692.299 635,695.5C 635.499,699.152 635.665,702.818 635.5,706.5 Z"/></g>
<g><path style="opacity:1" fill="#7eb76a" d="M 820.5,767.5 C 817.455,770.547 814.122,773.213 810.5,775.5C 807.069,777.124 803.402,778.124 799.5,778.5C 802.614,776.261 805.948,774.095 809.5,772C 813.448,770.968 817.114,769.468 820.5,767.5 Z"/></g>
<g><path style="opacity:1" fill="#91c081" d="M 767.5,776.5 C 770.688,776.618 773.688,777.451 776.5,779C 782.157,779.499 787.824,779.666 793.5,779.5C 790.375,780.479 787.042,780.813 783.5,780.5C 777.609,780.973 772.276,779.64 767.5,776.5 Z"/></g>
<g><path style="opacity:1" fill="#7ebc6d" d="M 703.5,776.5 C 708.797,777.275 714.13,777.608 719.5,777.5C 719.5,777.833 719.5,778.167 719.5,778.5C 714.54,780.747 709.54,780.914 704.5,779C 703.748,778.329 703.414,777.496 703.5,776.5 Z"/></g>
<g><path style="opacity:1" fill="#7fb96a" d="M 655.5,778.5 C 660.833,778.5 666.167,778.5 671.5,778.5C 671.5,778.833 671.5,779.167 671.5,779.5C 668.698,779.982 665.865,780.316 663,780.5C 660.134,780.7 657.634,780.033 655.5,778.5 Z"/></g>
<g><path style="opacity:1" fill="#e6f9e0" d="M 810.5,775.5 C 809.91,776.766 809.41,778.099 809,779.5C 808.667,779.167 808.333,778.833 808,778.5C 807.097,779.701 805.931,780.535 804.5,781C 797.321,781.821 790.321,781.655 783.5,780.5C 787.042,780.813 790.375,780.479 793.5,779.5C 795.735,779.795 797.735,779.461 799.5,778.5C 803.402,778.124 807.069,777.124 810.5,775.5 Z"/></g>
</svg>
