<?xml version="1.0" encoding="UTF-8"?>
<!DOCTYPE svg PUBLIC "-//W3C//DTD SVG 1.1//EN" "http://www.w3.org/Graphics/SVG/1.1/DTD/svg11.dtd">
<!-- Creator: CorelDRAW 2020 (64-Bit) -->
<svg xmlns="http://www.w3.org/2000/svg" xml:space="preserve" width="5in" height="6in" version="1.1" style="shape-rendering:geometricPrecision; text-rendering:geometricPrecision; image-rendering:optimizeQuality; fill-rule:evenodd; clip-rule:evenodd"
viewBox="0 0 5000 6000"
 xmlns:xlink="http://www.w3.org/1999/xlink"
 xmlns:xodm="http://www.corel.com/coreldraw/odm/2003">
 <defs>
  <style type="text/css">
   <![CDATA[
    .fil2 {fill:#FEFEFE}
    .fil0 {fill:#FEFEFE}
    .fil3 {fill:#00A859}
    .fil1 {fill:#201E1E}
    .fil4 {fill:#FEFEFE;fill-rule:nonzero}
    .fil5 {fill:#00A859;fill-rule:nonzero}
   ]]>
  </style>
 </defs>
 <g id="Layer_x0020_1">
  <metadata id="CorelCorpID_0Corel-Layer"/>
  <g id="_2487496112864">
   <ellipse class="fil0" cx="2544.92" cy="2505.75" rx="1417.7" ry="1363.95"/>
   <ellipse class="fil1" cx="2548.95" cy="2502.85" rx="1331.82" ry="1281.33"/>
   <g>
    <path class="fil2" d="M1444.13 2168.23l222.52 723.04c22.64,18.89 114.64,44.19 172.54,-5.85l324.82 -468.44 257.63 456.74c68.89,74.2 168.65,28.85 184.24,2.93l68.97 -450.44 -171.39 239.74 -248.85 -465.63c-49.9,-27.03 -98.24,-49.37 -163.76,3.27l-286.9 465.41 -143.16 -494.78 -216.67 -5.97z"/>
    <path class="fil3" d="M3728.87 2914.34l-216.51 -705.24c-22.62,-18.9 -114.61,-44.26 -172.54,5.73l-325.15 468.22 -257.32 -456.91c-68.83,-74.24 -168.63,-28.97 -184.24,-3.06l-69.28 450.39 171.56 -239.62 248.53 465.81c49.88,27.06 98.2,49.44 163.76,-3.16l287.22 -465.2 142.82 494.88 211.15 -11.83z"/>
   </g>
   <path class="fil4" d="M1668.85 4361.27l-88.01 -325.94 -89.02 325.94c-6.96,24.82 -12.41,42.55 -16.46,53.31 -4.05,10.64 -11.27,20.39 -21.4,28.87 -10.13,8.48 -23.55,12.79 -40.39,12.79 -13.67,0 -24.82,-2.53 -33.56,-7.6 -8.87,-5.07 -15.96,-12.28 -21.4,-21.53 -5.44,-9.24 -9.87,-20.26 -13.3,-33.05 -3.54,-12.66 -6.58,-24.44 -9.37,-35.33l-90.41 -366.08c-5.44,-21.27 -8.23,-37.48 -8.23,-48.63 0,-14.06 4.94,-25.96 14.81,-35.58 9.88,-9.62 22.16,-14.43 36.72,-14.43 20.13,0 33.56,6.46 40.52,19.25 6.83,12.91 12.91,31.53 18.11,56.09l71.29 317.46 79.78 -297.07c5.95,-22.79 11.27,-40.14 15.96,-51.92 4.69,-11.9 12.41,-22.16 23.04,-30.77 10.64,-8.74 25.07,-13.04 43.31,-13.04 18.61,0 33.05,4.56 43.31,13.55 10.26,8.99 17.35,18.87 21.28,29.5 3.93,10.64 9.24,28.11 15.95,52.68l80.54 297.07 71.29 -317.46c3.42,-16.59 6.71,-29.63 9.75,-39 3.17,-9.37 8.48,-17.85 15.95,-25.2 7.6,-7.47 18.49,-11.14 32.93,-11.14 14.31,0 26.46,4.81 36.47,14.31 10,9.5 15.07,21.4 15.07,35.71 0,10.13 -2.66,26.34 -8.11,48.63l-90.54 366.08c-6.2,24.69 -11.4,42.8 -15.45,54.32 -4.05,11.52 -11.02,21.53 -20.77,30.14 -9.75,8.74 -23.55,13.04 -41.41,13.04 -16.84,0 -30.26,-4.18 -40.39,-12.67 -10.13,-8.35 -17.22,-17.85 -21.15,-28.36 -4.05,-10.51 -9.5,-28.49 -16.71,-53.94z"/>
   <path id="1" class="fil4" d="M2226.52 4399.38c-24.57,19 -48.24,33.18 -71.04,42.67 -22.92,9.5 -48.62,14.19 -76.99,14.19 -25.96,0 -48.88,-5.19 -68.5,-15.45 -19.63,-10.26 -34.82,-24.06 -45.46,-41.66 -10.64,-17.6 -15.96,-36.59 -15.96,-57.11 0,-27.73 8.74,-51.28 26.34,-70.78 17.6,-19.63 41.79,-32.67 72.56,-39.38 6.33,-1.52 22.29,-4.81 47.74,-10 25.45,-5.19 47.36,-9.88 65.46,-14.31 18.11,-4.31 37.86,-9.5 59.13,-15.7 -1.26,-26.72 -6.58,-46.34 -16.08,-58.75 -9.63,-12.54 -29.25,-18.74 -59.26,-18.74 -25.7,0 -45.08,3.55 -58,10.76 -13.04,7.09 -24.19,17.85 -33.43,32.29 -9.24,14.31 -15.83,23.68 -19.63,28.37 -3.93,4.56 -12.16,6.83 -24.69,6.83 -11.4,0 -21.28,-3.67 -29.5,-11.02 -8.23,-7.22 -12.41,-16.59 -12.41,-27.98 0,-17.85 6.33,-35.2 18.87,-52.04 12.66,-16.84 32.29,-30.65 59.01,-41.54 26.72,-10.89 60.02,-16.33 99.91,-16.33 44.45,0 79.52,5.32 104.98,15.83 25.45,10.51 43.43,27.1 53.94,49.89 10.51,22.79 15.83,52.93 15.83,90.54 0,23.81 -0.13,43.94 -0.25,60.53 -0.13,16.59 -0.26,35.07 -0.51,55.33 0,19 3.17,38.88 9.5,59.52 6.33,20.52 9.37,33.81 9.37,39.76 0,10.38 -4.81,19.88 -14.56,28.36 -9.88,8.48 -20.89,12.79 -33.3,12.79 -10.39,0 -20.64,-4.81 -30.77,-14.56 -10.13,-9.75 -20.89,-23.81 -32.29,-42.3zm-6.71 -146.76c-14.81,5.44 -36.34,11.27 -64.7,17.22 -28.24,6.08 -47.87,10.64 -58.76,13.42 -10.89,2.91 -21.27,8.48 -31.15,16.72 -9.88,8.36 -14.81,19.88 -14.81,34.82 0,15.32 5.82,28.37 17.47,39.13 11.52,10.76 26.72,16.21 45.59,16.21 20.01,0 38.5,-4.43 55.34,-13.17 16.96,-8.86 29.37,-20.13 37.35,-34.06 9.12,-15.32 13.67,-40.65 13.67,-75.85l0 -14.44z"/>
   <path id="2" class="fil4" d="M2641.48 4414.33l-73.44 -107.76 -75.22 107.76c-10.89,15.07 -20.13,25.83 -27.61,32.29 -7.59,6.46 -17.09,9.63 -28.74,9.63 -12.79,0 -23.8,-4.05 -32.8,-12.03 -8.99,-8.1 -13.55,-17.22 -13.55,-27.6 0,-10.64 6.96,-25.83 20.77,-45.59l91.56 -131.31 -81.17 -109.53c-14.06,-17.98 -21.15,-33.69 -21.15,-47.11 0,-10.38 4.18,-19.5 12.67,-27.1 8.36,-7.72 19.37,-11.52 32.92,-11.52 11.91,0 21.65,3.29 29.5,10 7.72,6.71 16.84,17.22 27.23,31.53l65.59 89.91 63.82 -89.91c10.63,-14.81 19.88,-25.45 27.6,-31.91 7.85,-6.46 17.48,-9.62 29.13,-9.62 13.3,0 24.44,3.8 33.18,11.27 8.74,7.59 13.17,16.71 13.17,27.35 0,7.72 -1.78,15.07 -5.32,22.03 -3.67,7.09 -9.12,15.45 -16.59,25.07l-81.17 109.53 91.55 131.31c14.31,20.51 21.53,35.96 21.53,46.35 0,10.63 -4.43,19.75 -13.3,27.35 -8.99,7.72 -20,11.52 -33.05,11.52 -11.65,0 -21.4,-3.29 -29.5,-10 -7.98,-6.71 -17.22,-17.35 -27.61,-31.91z"/>
   <path id="3" class="fil5" d="M3008.44 4365.07l-87.25 -346.45 0 375.32c0,20.77 -4.69,36.34 -13.93,46.73 -9.24,10.38 -21.53,15.57 -36.72,15.57 -14.81,0 -26.97,-5.19 -36.34,-15.45 -9.37,-10.26 -14.06,-25.83 -14.06,-46.85l0 -430.28c0,-23.81 6.2,-39.76 18.49,-48.12 12.41,-8.23 29.12,-12.41 50.02,-12.41l34.19 0c20.52,0 35.33,1.9 44.57,5.57 9.24,3.67 16.21,10.38 20.64,20.01 4.43,9.62 9.5,25.32 15.2,47.1l79.02 298.08 79.02 -298.08c5.7,-21.78 10.76,-37.48 15.2,-47.1 4.43,-9.63 11.27,-16.33 20.51,-20.01 9.24,-3.67 24.19,-5.57 44.7,-5.57l34.06 0c21.02,0 37.74,4.18 50.15,12.41 12.28,8.35 18.49,24.31 18.49,48.12l0 430.28c0,20.77 -4.69,36.34 -13.93,46.73 -9.24,10.38 -21.65,15.57 -37.1,15.57 -14.56,0 -26.59,-5.19 -35.96,-15.57 -9.37,-10.39 -14.06,-25.96 -14.06,-46.73l0 -375.32 -87.25 346.45c-5.7,22.41 -10.26,39 -13.93,49.51 -3.54,10.38 -10.13,20.01 -19.75,28.62 -9.75,8.74 -23.05,13.04 -40.14,13.04 -12.92,0 -23.81,-2.79 -32.67,-8.36 -8.87,-5.57 -15.83,-12.66 -20.77,-21.27 -4.94,-8.74 -8.86,-18.24 -11.65,-28.75 -2.91,-10.51 -5.82,-21.52 -8.74,-32.8z"/>
   <path id="4" class="fil5" d="M3829.88 4250.47c0,30.26 -4.69,58 -14.06,83.45 -9.5,25.45 -23.05,47.36 -40.9,65.59 -17.73,18.36 -39.13,32.29 -63.82,42.04 -24.69,9.75 -52.55,14.69 -83.45,14.69 -30.77,0 -58.37,-4.94 -82.81,-14.81 -24.44,-9.88 -45.71,-24.06 -63.69,-42.55 -17.85,-18.36 -31.53,-40.14 -40.78,-65.21 -9.24,-25.2 -13.93,-52.93 -13.93,-83.32 0,-30.65 4.69,-58.76 14.06,-84.21 9.5,-25.45 22.92,-47.23 40.52,-65.34 17.6,-17.98 38.87,-31.91 63.82,-41.66 24.94,-9.75 52.55,-14.69 82.81,-14.69 30.65,0 58.5,4.94 83.45,14.81 24.94,9.88 46.35,24.06 64.2,42.42 17.85,18.24 31.4,40.02 40.65,65.34 9.24,25.2 13.93,53.06 13.93,83.45zm-101.81 0c0,-41.28 -9.12,-73.32 -27.22,-96.36 -18.24,-22.92 -42.55,-34.44 -73.19,-34.44 -19.88,0 -37.23,5.07 -52.3,15.32 -15.07,10.26 -26.72,25.45 -34.82,45.46 -8.23,20.01 -12.28,43.43 -12.28,70.02 0,26.46 4.05,49.64 12.03,69.39 8.11,19.75 19.5,34.95 34.44,45.46 14.94,10.51 32.67,15.7 52.93,15.7 30.65,0 54.96,-11.52 73.19,-34.7 18.11,-23.05 27.22,-55.08 27.22,-95.86z"/>
   <path class="fil4" d="M805.52 4657.77l2.94 -2.47 3.41 0.35c1.94,0 3.65,-0.47 5,-1.53 1.41,-1.06 2.53,-1.59 3.41,-1.71 0.83,-0.11 1.88,-0.7 3.06,-1.76 1.24,-1 3,-1.7 5.3,-2.11 2.29,-0.41 3.94,-1.12 5,-2.18 1.06,-1 2.24,-1.7 3.53,-2 1.35,-0.24 2.82,-0.76 4.59,-1.41l15.7 -4.82c0.23,0 0.82,0.18 1.88,0.65l0.7 0c1.35,0 2.7,-0.53 4.06,-1.65 1.29,-1.06 2.88,-1.59 4.7,-1.59 1.17,0 3.41,-0.7 6.76,-2.11l1 1.06c1.88,-2.06 3.41,-3.12 4.7,-3.12l1 0c0.24,0 1.3,0.24 3.12,0.7 2.88,-0.94 5.23,-1.35 7.06,-1.35l4 -0.35c0.24,0 0.59,0.12 1,0.35 0.94,-1.06 2.23,-1.71 3.82,-1.94l1.88 0 7.06 -1.7 2.12 0.7c1.35,-1.18 3.47,-1.7 6.35,-1.7l1.76 0 1.7 0.29c0.24,0 1.3,-0.29 3.18,-1 1.88,-0.7 6.53,-1.06 13.88,-1.06l4.53 0.7c2.82,-1.18 4.41,-1.7 4.65,-1.7l4.82 1 1.88 -0.71 0.7 0c0.24,0 0.82,0.24 1.7,0.71l0.35 0 12.41 -1.71c0.24,0 0.7,0.12 1.41,0.35 0.88,-0.82 1.59,-1.24 2.06,-1.24l3.3 0.88c0.88,0 2.53,-0.65 4.82,-1.88l1.06 1 11.7 -1.35 4.29 0.35 3.82 -0.7c3.76,0 6.65,1 8.53,3 1.88,2 2.88,4 2.88,6.06l0.65 5.35 -1 2.88 -0.35 3.47c-0.59,1.35 -1.47,2.29 -2.59,2.76 0,0.24 -0.53,0.47 -1.59,0.76 -1,0.3 -2.06,0.76 -3.06,1.47 -1.06,0.65 -4.47,1 -10.17,1 -2.88,0 -4.76,-0.88 -5.53,-2.65 -0.82,-1.76 -1.65,-2.76 -2.59,-3l-7.41 -3.11c-0.24,-0.24 -0.94,-0.35 -2.06,-0.35l-1.41 0 -7.06 0.7c-0.24,0 -0.88,-0.11 -1.88,-0.35 -1.53,0.7 -2.29,1 -2.41,1l-12.76 -0.65 -5.17 0.35 -3.65 -0.7c-0.47,0 -1.24,0.18 -2.41,0.53 -1.11,0.35 -3.59,0.59 -7.23,0.82 -3.7,0.24 -5.53,1.41 -5.53,3.47 0,1.23 0.47,2.65 1.47,4.11 1,1.53 1.47,2.7 1.47,3.65 -1.7,2.41 -2.59,3.94 -2.59,4.65 -0.47,0.35 -1.3,1.06 -2.41,2.24 -1.17,1.18 -3.29,2.94 -6.41,5.41 -3.06,2.47 -5.17,4.76 -6.35,6.82 -1.18,2.06 -2.53,3.12 -4.12,3.12 -2.11,1.94 -3.53,3.7 -4.35,5.35l-1.35 1.35c-0.24,0.24 -0.35,0.77 -0.35,1.53 0,0.7 -0.35,1.41 -1.06,2.11l-1.53 4.12c-0.82,0.35 -3.18,3.35 -7.06,8.94l-2.06 1.06 -2.11 2.41 -2.41 0c-1,0 -1.53,0.7 -1.53,2.06l0.7 5c-1.76,1.47 -3.12,3.53 -4.17,6.06l-2.06 3.41c-2.41,2.41 -3.59,3.76 -3.59,4 0,0.53 -1.18,3 -3.47,7.41l-0.35 1.7c0,1.94 -4,7.59 -12.06,16.88 -1.18,2.18 -1.82,5.53 -2.06,10 -3.47,6.76 -5.82,10.06 -7.06,9.82 -0.23,4.35 -1,7.94 -2.17,10.7 -1.24,2.76 -2.76,6.76 -4.65,12.11 -1.88,5.35 -3.88,9.17 -5.94,11.47l-0.7 1.41c-0.47,0.88 -1.06,1.82 -1.7,2.71 -0.24,3.11 -1.35,8.06 -3.3,14.82l-1.06 7.41 -3.41 9.7c-0.35,0.65 -0.53,1.35 -0.53,2.06 0,0.47 0.35,1.35 1.11,2.65 0.77,1.35 1.12,2.59 1.12,3.7 0,1.59 -0.29,2.88 -0.88,3.88 -0.53,1 -0.82,2.3 -0.82,3.88 0,3.59 -1.94,5.94 -5.7,7.06l-1.41 0 -3.59 0.35c-4.82,0 -9.17,-2.29 -13.11,-6.88 -3.88,-4.59 -5.82,-10.94 -5.82,-18.99 0,-0.41 0.35,-2.18 1,-5.24 0.7,-3.06 1.12,-5 1.23,-5.94 0.12,-0.94 0.41,-1.88 0.83,-2.82 0.47,-1 0.7,-2.41 0.7,-4.24 0,-5.65 1.41,-10.52 4.23,-14.64 2.82,-4.18 4.65,-7.11 5.59,-9 0.24,-0.77 0.65,-1.3 1.24,-1.53 -0.35,-0.94 -0.53,-2.06 -0.53,-3.47 0,-3.29 1.41,-6 4.3,-8.06 0.24,-0.94 0.65,-2 1.24,-3.24 0.53,-1.18 1.76,-4.11 3.59,-8.76 1.82,-4.65 4.23,-7.35 7.23,-8.17 -0.12,-0.24 0.59,-1.17 2.06,-2.76l-0.65 -6.06c0,-0.88 1,-2.47 3.06,-4.65l2.94 -4.82c0.47,-1.94 1.94,-3.7 4.47,-5.35 0.7,-1.12 1.47,-1.82 2.24,-2.06 0.12,-0.47 0.65,-1.88 1.47,-4.3 0.88,-2.41 2.7,-5.41 5.53,-9.06 2.82,-3.59 5.53,-7.35 8.12,-11.29 2.59,-3.88 4.94,-5.88 7.06,-6 2.12,-0.12 3.3,-1.35 3.53,-3.65l1 -6.35c3.35,-2.88 5.35,-4.88 6.06,-6.06l2.41 -2.76c0.47,-1.59 1.06,-2.65 1.82,-3.18 0.76,-0.53 1.7,-1.59 2.82,-3.17 1.18,-1.65 2.59,-3.06 4.3,-4.3 1.53,-4.76 4.88,-8.82 10.17,-12.23l2.76 -2.94c1.94,-2.76 3.59,-4.65 4.82,-5.65 1.29,-0.94 2.23,-2.23 2.88,-3.82 0.59,-1.65 1.83,-2.82 3.71,-3.65 1.82,-0.82 2.7,-1.7 2.7,-2.76 0,-0.47 -0.41,-0.7 -1.35,-0.7 -0.94,0 -2.47,0.35 -4.65,1.06l-1.41 0 -3.06 0.7 -1.06 0 -2.94 -0.7c-2.06,0.7 -3.65,1.06 -4.82,1.06 -0.23,0.24 -0.94,0.7 -2.23,1.53l-3.76 0 -2.06 2.06 -1.59 0.35 -4.47 -0.71c-1.35,0 -3.06,0.71 -5,2.12 0,0.24 -1.88,0.59 -5.59,1.18 -3.76,0.59 -7.29,1.65 -10.59,3.18 -3.35,1.59 -5.35,2.35 -6.06,2.35l-3.12 -0.7 -0.3 0c-1.53,0 -2.88,0.76 -4.17,2.23 -1.24,1.53 -3.12,2.47 -5.53,2.76l-2.06 0c-1.7,0 -4.06,0.71 -6.94,2.12 -2.94,1.35 -4.53,2.06 -4.76,2.06l-3.11 -0.35c-1.35,0.94 -2.59,1.53 -3.53,1.88 -1,0.35 -1.94,0.88 -2.88,1.65 -0.88,0.76 -1.82,1.29 -2.76,1.65 -0.89,0.35 -2,1 -3.18,1.88 -1.24,0.94 -2.18,1.41 -2.88,1.41l-0.65 0 -2.12 -0.35c-0.76,0 -1.82,0.7 -3.12,2.17 -1.23,1.41 -2.41,2.3 -3.53,2.65 -1.06,0.35 -2.12,0.88 -3.12,1.65 -0.94,0.76 -2,1.17 -3,1.29 -0.59,0.59 -1.41,1.82 -2.41,3.82 -1.06,1.94 -2.35,3.65 -4,5.06 -1.59,1.47 -2.65,2.59 -3.18,3.35 -0.53,0.82 -1,1.24 -1.47,1.24 -5.64,0 -8.46,-3.53 -8.46,-10.53l3.41 -7.41c2.41,-5.82 6.11,-9.41 11.06,-10.65 1.3,0 4.53,-1.29 9.82,-3.82l6.76 -2.88z"/>
   <path id="1" class="fil4" d="M907.91 4791.91l1.41 -1.88c3,-0.7 4.94,-1.82 5.7,-3.47 0.35,-0.76 3.24,-3.76 8.7,-8.94 5.41,-5.17 8.41,-7.94 9,-8.29 3.7,-6.65 5.94,-11.64 6.76,-15 1.41,-0.65 2.06,-1.47 2.06,-2.35l1.41 -2.76 1.53 -0.35 0.71 -0.7 0 -1.53c0,-2.11 2.29,-6.94 6.76,-14.46 4.53,-9.35 6.94,-14.47 7.3,-15.46 0.29,-0.94 1,-2.41 2.06,-4.3 1,-1.88 2.59,-5.53 4.7,-10.94 2.12,-5.41 5.47,-11 9.94,-16.88 0.47,-0.24 1.12,-1.53 2.06,-3.88 0.94,-2.35 2.35,-4.7 4.29,-7l2.06 -3.59c0.7,-1.17 1.88,-3.17 3.65,-6.06 1.7,-2.82 3.29,-5.12 4.7,-6.76 1.47,-1.7 2.53,-3.41 3.29,-5.29 0.76,-1.82 1.65,-3.12 2.65,-3.94 1.06,-0.82 2.12,-2.29 3.24,-4.41 1.06,-2.12 2.76,-3.18 5.06,-3.18 4.47,0 7.7,1.82 9.76,5.53 2,3.65 3,6.88 3,9.65 0,0.35 -0.7,2.82 -2.06,7.41l-2.59 15.46c-2.3,1.18 -3.47,2.47 -3.47,4 0,6.06 -2.35,12.41 -7.06,18.94 -0.47,0.47 -0.82,1.94 -1.12,4.47 -0.29,2.53 -1.29,4.59 -3,6.23 -1.77,1.59 -3.3,4.3 -4.65,8.06l-16.06 22.93 -1.35 1.41c-0.7,0.41 -1.53,1.41 -2.41,2.88l-2.76 -0.83c-3.12,0 -4.65,0.94 -4.65,2.88 0,0.71 0.23,1.65 0.65,2.76l0 0.35c0,0.12 -4.23,6.17 -12.7,18.11 -0.47,0.65 -1.3,2.94 -2.41,6.7l-2.41 5.18c-2.41,3.35 -4.12,6.59 -5.12,9.7 -0.94,3.17 -2.23,5.76 -3.88,7.7 -2.29,5.18 -3.41,7.88 -3.41,8.12 0,0.65 0.35,1 1,1 0.7,0 2.35,-1.71 4.94,-5.18 2.59,-3.41 4.7,-5.7 6.35,-6.88 1.65,-1.11 3.06,-2.7 4.23,-4.82l1.71 -1.18c0.47,-0.24 1.41,-0.94 2.88,-2.06l1.71 0.35c0.94,-0.71 1.53,-1.53 1.7,-2.41 0.24,-0.94 0.59,-1.65 1.06,-2.06 2.94,-0.35 4.82,-1.47 5.53,-3.29 0.76,-1.82 1.65,-2.76 2.65,-2.76 0.94,0 2.12,-1.06 3.59,-3.18 1.53,-2.11 3.59,-3.82 6.29,-5.17 2.65,-1.3 4.65,-2.47 5.94,-3.53 1.35,-1 4,-2.24 8,-3.65 3.94,-1.47 6.65,-2.18 8,-2.18l1.06 0 1.35 0.35 2.59 -0.35c3.94,0 7.94,1.12 12,3.35 4,2.24 5.7,5.7 5.11,10.41l-1.35 10.7 -1.88 8.41c-0.24,1.35 -1.18,4.41 -2.76,9.11 -1.59,4.7 -2.41,7.41 -2.41,8.11l-0.7 3.24 0.7 4.47 -0.35 3.65c0,1.12 0.59,1.7 1.76,1.7 0.41,0 1.7,-1.06 3.76,-3.11 1.29,0.23 2.53,-0.41 3.65,-2.06 1.17,-1.59 2.7,-3.24 4.7,-5 0,-0.41 0.7,-0.88 2.23,-1.24 1.47,-0.41 3.59,-1.76 6.24,-4.06 0.47,-1.06 2.7,-3.24 6.76,-6.65 4,-3.35 7.88,-6 11.59,-7.82l1.06 -1.35c1.94,-1.94 3.7,-2.94 5.35,-2.94 1.59,0 2.41,0.88 2.41,2.59 0,1.12 -0.29,2.35 -0.88,3.59 -0.53,1.3 -0.94,2.94 -1.17,4.94 -0.24,2 -1.41,4.88 -3.47,8.7l-0.7 1.7c-0.76,1.94 -1.76,3.12 -2.88,3.47 -1.18,0.3 -2.41,1.3 -3.7,2.82 -1.35,1.53 -4.06,3 -8.23,4.41 -1.82,3.41 -3.24,5.18 -4.29,5.18l-3.12 -1.41c-2.41,1.94 -3.59,3.94 -3.59,6.06 -3,2.47 -4.82,4.17 -5.35,4.94l-3.47 -0.3c-0.94,0 -1.35,1.24 -1.35,3.76 0,0.24 -1.24,1 -3.59,2.35 -2.35,1.3 -4.12,2.47 -5.41,3.53 -1.23,1 -3.94,1.53 -8.11,1.53 -0.47,0 -1.12,-0.41 -2.06,-1.24 -0.94,-0.76 -2.29,-1.47 -4.06,-2.06 -1.77,-0.53 -3,-1.88 -3.7,-4.06 -0.71,-2.12 -1.41,-3.76 -2.24,-5 -0.82,-1.18 -1.18,-2.12 -1.18,-2.82l0.3 -3.47 -0.82 -3.59 1.53 -2.41c-0.7,-1.59 -1,-2.7 -1,-3.29l1.7 -10.47c1.24,-7.59 2.3,-12.53 3.12,-14.82 0.18,-0.24 0.3,-0.94 0.3,-2.12l-0.3 -4.29 0.3 -2.41c0,-1.7 -0.53,-2.65 -1.7,-2.76 -1.12,-0.12 -1.82,-0.41 -2.06,-0.82 -1.53,-0.7 -2.35,-1.06 -2.59,-1.06 -0.94,0 -1.71,0.71 -2.41,2.18 -0.7,1.41 -1.59,2.7 -2.76,3.82l-4.29 -0.65 0 0.35c0,0.88 -1.59,2.7 -4.65,5.3 -2.88,0.7 -5.35,2.23 -7.41,4.53 -0.94,0 -2.53,0.88 -4.76,2.65 -2.24,1.76 -3.7,2.76 -4.41,3l-1.35 2.76 -2.76 0.88c-0.82,2.29 -2.7,3.76 -5.7,4.47l-1.7 3.24c-2.41,0.23 -4.06,1.47 -5,3.7 -0.94,2.29 -1.59,3.41 -2.06,3.41 -0.23,0 -0.59,-0.18 -1.11,-0.47 -0.53,-0.29 -1,-0.41 -1.47,-0.41 -2.53,0 -3.88,1.88 -4.11,5.7 0,0.41 -2.35,3.11 -7.06,8.06 -4.76,4.94 -7.29,7.47 -7.59,7.59 -0.35,0.12 -1,1.3 -2,3.53 -1,2.24 -2.35,3.94 -4.06,5 -1.7,1.12 -3,2 -3.88,2.65 -0.88,0.7 -1.53,1.06 -2,1.06 -2.41,0 -4.35,-1.7 -5.82,-5.18 -1.53,-3.41 -2.23,-5.23 -2.23,-5.35l1 -3.59 -0.35 -3.12c0,-0.12 0.76,-2.41 2.18,-7 1.41,-4.53 3.06,-8.06 4.94,-10.65 1.82,-2.59 3.24,-6.82 4.3,-12.7 -5.18,3.47 -8.29,5.17 -9.29,5.17 -2.3,0 -3.47,-1.47 -3.47,-4.47 0,-5.53 1.76,-10.47 5.35,-14.82z"/>
   <path id="2" class="fil4" d="M1081.86 4784.44l3.59 -2.94c2.76,-0.18 4.29,-1.65 4.47,-4.29 0.24,-2.65 2.18,-4.94 5.7,-6.88l2.06 -2.94c1.76,-1.7 6.47,-3.94 14.17,-6.7 1.94,-1.17 3.3,-2.17 3.94,-3.11 0.24,-0.24 0.47,-0.35 0.71,-0.35l2.76 0.7c1.47,0 3.41,-0.41 5.76,-1.23 2.35,-0.76 4.65,-1.18 6.82,-1.18l7.23 -0.35c0.47,0 1.41,0.35 2.88,1.06 1.41,0.65 3.18,1 5.24,1 2.53,0 4.88,1.18 7,3.47 2.12,2.3 3.18,4.41 3.18,6.35 0,3.59 -1.82,7.17 -5.53,10.88 -3.7,3.65 -6.65,5.7 -8.82,6.17 -1.94,1.94 -3.47,3.18 -4.53,3.7 -1,0.53 -2.06,1.35 -3.18,2.41 -1.11,1.12 -2,1.65 -2.7,1.65 -0.41,0 -0.76,-0.12 -1,-0.41 -0.23,-0.29 -0.59,-0.47 -1.06,-0.47 -1.82,0 -3.88,2.3 -6.06,6.76l-3.12 -0.35c-1.94,1.24 -3.23,2.65 -3.76,4.12 -0.59,1.53 -1.82,2.23 -3.65,2.23 -4.29,4.3 -7.17,6.41 -8.65,6.41 -0.23,0 -1.06,-0.23 -2.41,-0.7 -0.94,1.12 -1.41,2.35 -1.41,3.59 0,1.41 -0.94,2.24 -2.76,2.41l-2.24 2.11 -1.76 -0.35 -3.41 3.59c-1.76,0 -3.53,0.59 -5.41,1.76 -0.23,1.35 -0.53,3.12 -1,5.24 -0.47,2.11 -0.7,3.29 -0.7,3.53 0,3.35 3.06,5 9.11,5l8.29 -1.17c2.18,0 4.24,-0.59 6.12,-1.76 1.88,-1.12 3.94,-1.71 6.11,-1.71 0.71,0 1.76,-0.23 3.12,-0.7l1.7 0.7c0.82,-1.7 2.3,-3.23 4.53,-4.65 2.18,-1.35 3.88,-2.06 5.18,-2.06l1.7 -1c0.47,-1.41 1.12,-2.3 2.06,-2.76l1.35 -1.24c0.94,-0.88 1.82,-1.35 2.59,-1.35l2.41 0 0.7 -0.35c1.41,-2.94 3.3,-4.7 5.76,-5.24 2.47,-0.53 4.06,-1.35 4.7,-2.47 0.59,-1.18 1.7,-1.82 3.35,-2.06 1.59,-0.24 2.94,-1 4.06,-2.35 1.06,-1.3 2.41,-2.53 4,-3.7 1.65,-1.12 2.76,-2 3.41,-2.53 0.59,-0.59 1.18,-0.88 1.59,-0.88 0.71,0 1.06,0.53 1.06,1.53 0,1.06 0.24,1.59 0.71,1.59 0.47,0 0.7,-0.24 0.7,-0.7 0,-0.47 -0.12,-1.06 -0.35,-1.7l0 -1.24c0,-1.7 0.88,-2.82 2.76,-3.41l7.7 -5c0.24,-2.41 0.94,-3.82 2,-4.18 1.12,-0.41 1.94,-0.88 2.53,-1.41 0.53,-0.53 1.18,-0.76 1.88,-0.76 1.47,0 2.24,0.88 2.24,2.59l-0.88 4.47 0.88 4.65c0,0.7 -0.53,1.65 -1.65,2.82 -1.06,1.24 -1.88,3.06 -2.47,5.53 -0.59,2.47 -1.35,3.82 -2.24,4l-1.06 0c-2.06,2.24 -3.7,3.47 -4.88,3.88 -1.24,0.41 -2.18,1.12 -2.88,2.17l-5.82 6.7c-1.12,1.12 -2.12,2.18 -2.94,3.12 -0.76,0.88 -1.41,1.35 -1.88,1.35l-1.35 -1.35c0,-0.24 -0.24,-0.35 -0.7,-0.35 -1.18,0 -1.88,0.65 -2.18,2.06 -0.3,1.35 -0.88,2.59 -1.76,3.59 -3.47,1.65 -5.7,3.12 -6.7,4.47l-1.06 0.35 -3.12 0c-1.47,0 -2.53,1.12 -3.06,3.35 -0.59,2.23 -2.24,3.53 -4.94,3.88 -2.7,0.35 -4.59,1.06 -5.76,2.06 -0.24,0.24 -0.76,0.47 -1.53,0.7 -0.82,0.24 -2.41,1.12 -4.82,2.76l-14.47 5.12c-1.11,0.59 -1.88,0.88 -2.23,0.88l-4.82 0.7c-0.7,0 -1.35,-0.47 -2.06,-1.41 -0.7,-0.88 -1.18,-1.35 -1.35,-1.35l-3.12 1c-2.3,0.7 -4.47,1.06 -6.53,1.06 -1.18,0 -2.41,-0.41 -3.82,-1.24 -1.35,-0.76 -2.47,-1.35 -3.23,-1.7 -3.35,0 -5.7,-2.59 -7.06,-7.76l-2.06 0.35c-0.47,0 -2,-4.06 -4.65,-12.23 -0.7,-0.94 -1.82,-1.59 -3.29,-2 -1.47,-0.41 -2.24,-1.53 -2.24,-3.35 0,-5.18 1.12,-8.65 3.35,-10.41 2.23,-1.76 3.47,-3.12 3.7,-4.06l2.41 -8.94c0.47,-0.35 1.06,-1.53 1.7,-3.47l4 -7.24c0.47,-0.82 1.47,-2.82 3.12,-6.06zm36.17 -10.35l-2.06 1.06c-0.47,0.24 -1.82,1.24 -4.06,3 -2.23,1.76 -4.41,3.23 -6.53,4.29 -2.17,1.12 -4.35,3.94 -6.59,8.59 -2.23,4.59 -3.35,7.23 -3.35,7.88 0,0.71 0.35,1.06 1.06,1.06l5.82 -2.59c2.17,-1.06 4.23,-2.35 6.11,-3.94 1.94,-1.65 4.65,-3.59 8.23,-5.88l1.35 -1.35c0.24,-0.47 1.29,-1.3 3.17,-2.53 1.88,-1.24 3.3,-2.41 4.24,-3.53l1.7 -0.71c1.94,-3.11 3.94,-5 5.94,-5.7 2,-0.65 3.06,-1.35 3.06,-2.06 0,-1.35 -1.11,-2.06 -3.29,-2.06 -0.94,0 -2.3,0.59 -4.12,1.7l-4 0c-0.47,0 -1.7,0.7 -3.76,2.06l-2.94 0.7z"/>
   <path id="3" class="fil4" d="M1278.22 4844.83l1.94 -2.59c0.65,-0.94 1,-1.94 1,-3.12l4.11 -12.23c1.53,-4.35 2.35,-6.76 2.59,-7.23l0.7 -3.41 2.06 -4 0.7 -4.47c0.47,-3.3 2.12,-8.23 5,-14.82l0.35 -2.59 1.35 -3.76 0 -0.71c0,-1.11 -0.35,-1.7 -1,-1.7l-1.41 0c-2.06,0 -3.17,0.47 -3.41,1.35l-1.24 4.82c0,1.76 -1,2.59 -3.11,2.59 -0.24,0 -0.83,-0.18 -1.77,-0.47 -1,-0.35 -1.59,-0.53 -1.82,-0.53 -0.7,1.35 -1.65,3.12 -2.76,5.17 -1.17,0.47 -3.06,1.65 -5.65,3.59l-1.7 0.35c-1.29,1.82 -3.17,3.76 -5.7,5.7l-0.65 1c-1.59,2.53 -3.82,3.82 -6.7,3.82 -3.76,0 -5.65,-2.59 -5.65,-7.76 0,-3.23 1.53,-5.65 4.65,-7.29 3.12,-1.7 5.12,-3.18 6,-4.53 0.94,-1.3 3.41,-3.12 7.41,-5.41l1.7 -2.41c0.94,-1.23 1.76,-1.88 2.41,-1.88l2.94 -1.06c0.47,-0.47 1.47,-0.65 3.12,-0.65l-0.35 -2.47c0,-0.65 1.41,-1.41 4.3,-2.24 0.7,-0.65 2.23,-1.94 4.7,-3.76 2.47,-1.82 6.76,-6.76 12.82,-14.82 0.47,-1.18 1.35,-2.06 2.7,-2.65 1.3,-0.65 2.41,-1.41 3.35,-2.35l3.41 0c0.94,0 3,1.53 6.23,4.59 3.18,3.12 4.76,7.06 4.76,11.88l-4.94 22.23 0.3 1.53 -0.3 1.35c0,0.47 0.18,0.7 0.65,0.7 0.47,0 1.47,-0.88 2.94,-2.76 0.7,-2.18 2.11,-3.82 4.23,-5 2.18,-1.11 3.76,-2.35 4.76,-3.7 1.06,-1.29 2.47,-2.47 4.23,-3.53 1.82,-1 4.18,-2.7 7.12,-5.06 2.94,-2.35 5.59,-3.65 8.06,-3.88l1.7 -1.06 0.71 -2.59c2.06,-1.59 4.29,-3.06 6.76,-4.47l4.12 -3.23c4.94,-1.65 8.65,-2.41 11.06,-2.41 1.18,0 2.24,-0.47 3.12,-1.41l4 1.7c0.24,0 0.71,-0.3 1.35,-1 0,-0.24 0.24,-0.35 0.7,-0.35 4.76,0 8.76,1.82 12.06,5.53 3.24,3.65 4.88,7.7 4.88,12.06 0,0.23 -0.18,0.76 -0.53,1.59 -0.3,0.76 -0.47,1.47 -0.47,2.06l1 2.76 0 0.35 -3.76 9.82c-0.35,1.12 -1.06,4.35 -2.06,9.65 -2.17,3.47 -4.76,6.7 -7.7,9.82 -2.88,3.12 -4.82,5.47 -5.76,7.12 0.47,0.41 0.88,0.65 1.23,0.65 1,0 2.53,-1 4.47,-3.12l8.11 -4.94 1.35 0.65c1.59,-1.12 3.23,-2.47 4.94,-3.94 1.7,-1.53 3.24,-2.3 4.47,-2.41 0.71,-0.94 1.88,-2.06 3.59,-3.47l1.7 -1.88c0.7,0 1.47,-0.41 2.41,-1.17 0.88,-0.83 1.94,-1.35 3.18,-1.59 1.18,-0.24 2.41,-1.12 3.65,-2.65 1.29,-1.59 2.35,-2.47 3.17,-2.7 0.89,-0.24 1.41,-0.65 1.65,-1.35 3.88,-3.88 6.88,-6.06 9.06,-6.35l2.06 -0.7c0.24,-0.24 0.47,-0.35 0.7,-0.35 1.24,0 2.18,1.18 2.88,3.59l-2.24 3.47 0 1.7 0.53 1.94c0,1.12 -0.7,2.59 -2.06,4.35 -1.41,1.82 -2.94,2.7 -4.7,2.7 -1.94,0.88 -3.12,1.88 -3.53,3 -0.35,1.12 -2.06,2.65 -5.06,4.76 -3,2.06 -4.82,3.82 -5.53,5.41 -0.65,1.53 -1.65,2.3 -2.94,2.3l-3.06 -1c-2.65,3.41 -4.41,5.06 -5.35,4.82l-1.06 0 -0.65 0.35 -2.12 4.3c-1.23,0.23 -2.23,0.59 -2.88,1.06l-1.76 -0.35c-7,7 -11.46,10.53 -13.41,10.53l-3.12 -0.35c-0.24,0 -0.76,0.65 -1.65,2 -0.82,1.3 -1.59,2.24 -2.12,2.82 -0.59,0.59 -1.35,1.47 -2.23,2.59l-3.65 0c-0.94,0 -2.65,1 -5.17,2.94 0,0.24 -0.12,0.35 -0.35,0.35l-2.59 -1.06 -0.3 0c-1.17,0 -2.65,0.94 -4.53,2.76l-5.29 2.06c0,0.23 -0.12,0.35 -0.35,0.35l-3.65 -0.7c-0.7,0 -1.7,0.59 -3.11,1.76l-1.35 0.88c-0.7,0 -1.88,0.53 -3.65,1.7l-5.47 2.06c-0.59,-0.24 -1.12,-0.35 -1.59,-0.35l-3.06 0.35 -2.76 -0.7c-0.59,0 -1.47,0.82 -2.59,2.41 0,0.24 -0.23,0.35 -0.7,0.35 -0.24,0 -0.82,-0.12 -1.7,-0.35l-2.06 0 -4 1.06c-0.88,0 -2.53,-0.94 -4.88,-2.76 -2.35,-1.88 -3.88,-3.53 -4.59,-5l-1.7 -2.82c-1.65,-0.65 -2.71,-1.35 -3.3,-2.06l-1.35 0.7c-0.12,0.47 -0.65,1.18 -1.47,2.23 -0.88,1 -1.3,1.77 -1.3,2.24 0,1.47 -0.53,3.47 -1.65,5.94 -1.12,2.47 -2.7,6.88 -4.76,13.17l-2.23 2.76c-0.47,0.59 -0.71,1.17 -0.71,1.7 0,1.06 -0.88,2.82 -2.76,5.35 -0.11,2.88 -1.17,5.76 -3.29,8.65l-0.65 1.7 0 2.41c0,0.71 -1.18,3.47 -3.47,8.41l-0.35 3.65c-0.7,0.11 -1.88,2.35 -3.53,6.82 -1.65,4.41 -3.65,8.12 -5.94,11.11l-1.53 5.65 -1.77 3.12 -1 3.29c-0.24,0.53 -0.59,1 -1.06,1.35l-0.35 1.7 -1 0.7c0.24,1.71 -0.88,4.59 -3.29,8.65 0,0.41 -0.59,1.24 -1.71,2.41 -1.17,1.11 -2.47,2.82 -4,5.06 -1.47,2.24 -3.65,4.29 -6.53,6.12l-7.41 4.65c-5.53,0 -9.29,-2.94 -11.35,-8.76 -0.24,-0.7 -1.35,-2.59 -3.35,-5.7 -2.06,-3.12 -3.06,-7.7 -3.06,-13.76l1.59 -7.06c1,-6.35 2.18,-10.29 3.41,-11.94l2.06 -4.65c0.24,-0.88 0.65,-1.76 1.24,-2.65 0.59,-0.88 1.18,-2.18 1.82,-3.94 0.59,-1.82 2.18,-3.53 4.7,-5.11 1.65,-3.65 3.29,-6.82 5,-9.47l2.41 -4.65c0,-1.41 1.24,-2.88 3.65,-4.47 1,-2.18 2.47,-4.41 4.29,-6.65 1.82,-2.24 3.06,-3.59 3.65,-4.06 0.53,-0.47 1.06,-1.94 1.53,-4.41 0.47,-2.47 1.47,-3.94 3,-4.53 1.59,-0.59 2.47,-1.35 2.7,-2.24l1.7 -2.94c1.12,-0.94 2.23,-2.35 3.35,-4.29 1.12,-2 2.35,-3.24 3.7,-3.82 1.47,-2.76 2.88,-4.12 4.12,-4.12zm42.52 -19.93l6.06 -1c3.23,-0.71 5,-1.06 5.35,-1.06 0.24,0 0.76,0.18 1.59,0.53 0.77,0.35 1.65,0.71 2.65,1 1,0.35 2.06,1.65 3.23,3.82 5.65,-2.65 9,-4.53 10.17,-5.65 1.18,-1.18 2.12,-1.76 2.94,-1.76 0.24,0 0.59,0.12 1.06,0.35 0.24,-0.59 0.53,-1.24 0.82,-2.06 0.35,-0.82 1.18,-1.76 2.53,-2.82 1.35,-1.12 3.35,-3.59 6.12,-7.47l5.7 -6.35 6.06 -8.76c1.53,-2.29 2.76,-5 3.82,-8.11l1.06 -2.24c0.41,-1.35 0.65,-2.18 0.65,-2.41 0,-0.76 -0.76,-2.65 -2.41,-5.65l-4.3 1.88 0 -0.35c-1.41,-1 -2.53,-1.53 -3.47,-1.53 -0.7,0 -1.35,0.41 -1.88,1.29 -0.59,0.88 -1.41,1.41 -2.53,1.65 -1.12,0.23 -2.06,0.7 -2.88,1.53 -0.76,0.82 -1.82,1.3 -3.18,1.41 -1.29,0.06 -2.76,0.94 -4.41,2.53l-2.06 -0.3 -1.23 0.82 -2.06 -0.53c-2.41,2.76 -4.12,4.47 -5.12,5.11 -0.94,0.65 -2.29,2.12 -4.06,4.53l-2.41 0c-0.94,0 -1.76,1.3 -2.59,3.82 -1.18,0.71 -2.29,1.76 -3.47,3.24l-4.35 1.76c-0.88,1.47 -1.94,2.65 -3.06,3.41l-6.76 8.65c-0.47,0.41 -1,0.7 -1.59,0.82 -0.53,0.12 -1.12,0.3 -1.71,0.53l0.89 3.47 -0.53 0c-2.76,1.47 -4.53,4.12 -5.17,7.88l-1.06 4.18c0,0.65 0.24,1 0.7,1 0.47,0 1.06,-0.41 1.88,-1.24 0.82,-0.82 2.24,-2 4.35,-3.47 2.06,-1.53 3.59,-2.35 4.65,-2.47zm-82.98 115.14c0.59,-0.35 3.53,-4.82 8.76,-13.41l1.76 -3.3c1,-1.82 2,-3.35 2.88,-4.47l0.35 -1.35c0.59,-0.59 1.17,-1.47 1.76,-2.59l9.46 -24.99c1.35,-3.65 2.24,-6.29 2.65,-7.82 0.41,-1.53 2,-6.35 4.76,-14.35 -0.71,0.18 -1.41,1.06 -2.06,2.47 -0.7,1.41 -1.3,2.18 -1.76,2.18l-2.59 0.29c-0.23,0 -1.11,2.12 -2.76,6.24l-0.65 0.88c-1.76,0.18 -2.88,1.12 -3.47,2.7l-2.94 6.06 0 2.41c0,2.76 -2,5.29 -6,7.7 -1.29,3.35 -2.06,5 -2.41,5l-1.76 0 0.7 3.12c0,2.65 -0.76,4.88 -2.29,6.82 -1.59,1.88 -2.35,2.94 -2.35,3.17l0.35 3.41 -0.35 3.12c-1.35,3.35 -2.06,7.35 -2.06,12.06l0 4.65z"/>
   <path id="4" class="fil4" d="M1550.08 4810.13l2.71 -2.41c1.7,0 2.76,-0.76 3.06,-2.35 0.35,-1.53 1.59,-2.77 3.7,-3.7 2.12,-0.89 4.06,-2.77 5.88,-5.59 1.82,-2.82 3.7,-4.23 5.65,-4.23 0.7,0 1.47,0.59 2.41,1.7 0.88,1.18 1.35,2.06 1.35,2.76 0,3.82 -1.18,7.7 -3.47,11.7l-0.65 4.82 -1.23 2.29c-1.71,0.88 -2.82,1.88 -3.35,2.88 -0.53,1.06 -1.88,2.3 -4.06,3.82l-1.71 2.41c-2.53,0.82 -4.23,2.12 -5.06,3.94 -0.88,1.88 -2.06,2.88 -3.65,3.12 -1.53,0.24 -3.24,1.35 -5.06,3.47 -1.18,0.53 -2.53,1.06 -4.11,1.53l-0.35 1.71c-1.18,1.17 -3,2.06 -5.47,2.76 -2.41,0.7 -4.3,1.35 -5.47,2 -1.24,0.65 -2.06,0.94 -2.53,0.94 -2.17,0 -4.17,-0.41 -6,-1.29 -1.82,-0.88 -3.76,-1.41 -5.7,-1.65 -0.65,-0.65 -1.06,-1.41 -1.18,-2.24 -0.12,-0.76 -0.7,-1.82 -1.76,-3.18 -1,-1.29 -1.53,-3.11 -1.53,-5.41l0.7 -3.29c0,-0.41 -0.3,-1 -0.88,-1.7 -0.59,-0.65 -0.88,-1.24 -0.88,-1.71 0,-0.47 0.12,-0.82 0.35,-1.06 0.24,-0.18 0.35,-0.53 0.35,-1 0,-0.59 -0.12,-1.24 -0.35,-1.88 -0.23,-0.71 -0.35,-1.3 -0.35,-1.71l1.06 -8.46c0,-0.71 -0.24,-1 -0.71,-1 -0.41,0 -1.29,0.53 -2.47,1.7 -1.24,1.17 -2.65,1.7 -4.23,1.7 -0.94,0.7 -1.65,2.18 -2.24,4.35 -0.94,1.12 -2.06,2.18 -3.47,3.12l-0.7 1c-0.24,0.82 -1.06,1.47 -2.59,2 -1.47,0.53 -2.53,1.17 -3.06,2l-1.77 1.7 -3.29 -0.35c-0.18,0.24 -0.82,1.24 -1.88,3 -1,1.82 -2.35,3.29 -3.94,4.41l-13.11 10.7c-1.41,0.94 -3.41,2.06 -6.06,3.47l-1.06 1c-9.17,6.11 -15.7,9.17 -19.46,9.17 -3.12,0 -6.76,-0.88 -10.88,-2.59 -4.11,-1.7 -6.35,-3.76 -6.7,-6.23l-1.77 -7.06c-1,-1.59 -1.53,-3.82 -1.53,-6.7 0,-1.41 0.12,-2.29 0.35,-2.76l0 -1.06 -0.35 -5.65c0,-1.41 1.12,-2.11 3.3,-2.11l-0.35 -4.65c0,-0.47 1,-2.24 3,-5.41 2,-3.17 3.35,-5 4.06,-5.47l1.71 -2.23c-0.12,-1.35 0.7,-2.82 2.41,-4.41 1.76,-1.53 3.12,-3.11 4.18,-4.7 1.06,-1.65 3,-3.41 5.88,-5.35l5.18 -5.17c4.06,-4.06 8.47,-7.23 13.17,-9.65 0.7,-0.24 2.11,-1.41 4.23,-3.47 2.12,-2.06 4.59,-3.59 7.29,-4.59 2.7,-0.94 5.35,-2.18 7.94,-3.7 2.59,-1.47 4.65,-2.24 6.11,-2.24l1.41 0c0.47,0 3.53,-1.41 9.17,-4.29l1 0c0.47,0 1.59,0.47 3.29,1.35l0.35 0 2.76 -1.35c0.47,-0.24 1.06,-0.35 1.76,-0.35 7.11,0 11.06,4.94 11.76,14.76 0.24,2.06 0.82,3.12 1.71,3.12 1.17,0 2.82,-2.12 4.94,-6.29 2.12,-4.18 6.65,-6.3 13.53,-6.3 4.94,0 7.41,3.18 7.41,9.47 0,7.47 -3.3,14.59 -9.94,21.23 -0.47,0.94 -0.82,1.94 -1.06,3.11l-2.41 7.06 0 0.35c0,0.65 -0.47,1.65 -1.47,2.82 -1,1.24 -1.47,2.3 -1.47,3.18l0.35 4.35 -0.7 4.82c0,2.18 0.41,3.59 1.23,4.29 3.65,-0.94 6.3,-2.47 7.94,-4.59 1.65,-2.11 2.82,-3.29 3.47,-3.53l1.7 -0.7c1.06,-1.7 2.24,-3.12 3.65,-4.3zm-57.22 0.06c0.41,-2.53 1.82,-4.41 4.17,-5.76 2.35,-1.3 3.76,-2.65 4.24,-4.06 2.17,-1.59 5.29,-4.47 9.35,-8.59 4.06,-4.12 6.06,-6.65 6.06,-7.59 0,-0.29 -0.24,-0.47 -0.65,-0.47l-0.35 0 -1.41 0.82 -3.06 -0.35 -3.29 0.35 -2.35 -1.18 -2.23 0.35 -3.47 -0.71c-1.82,0 -3.41,0.35 -4.7,1.12 -1.29,0.76 -3.82,1.59 -7.53,2.47 -3.76,0.94 -7.11,2.53 -10.06,4.76 -3,2.23 -5.17,3.35 -6.53,3.35 -0.82,1.7 -3.47,4.17 -8.06,7.41 -2.76,0.88 -4.53,2.88 -5.35,6 -2.94,2.41 -4.47,3.76 -4.47,4.11l-1.17 2.94c-0.94,0.82 -2.06,1.47 -3.47,2 -1.35,0.47 -2.17,1.7 -2.41,3.59 -0.24,1.88 -1,3.59 -2.3,5.17 -1.35,1.53 -2,2.77 -2,3.71 0,5.59 1.12,8.41 3.3,8.41 0.88,0 2.82,-0.59 5.76,-1.83 2.94,-1.17 4.59,-2 5.06,-2.47 0.47,-0.47 1.35,-0.94 2.76,-1.41l3.24 -1.71c0.47,-0.47 1,-0.7 1.53,-0.82 0.59,-0.12 1.18,-0.53 1.76,-1.11 0.53,-0.65 1.59,-1.35 3.06,-2.12 1.53,-0.7 2.65,-1.7 3.47,-3 1.94,-1.12 5.06,-2.88 9.41,-5.29l3.59 -2.76c2.53,-1.18 4.06,-2.12 4.65,-2.94 0.59,-0.82 1.71,-1.59 3.47,-2.41z"/>
   <path id="5" class="fil4" d="M1619.94 4699.11l2.41 -0.7 1.7 -1.7 0.35 0 1.53 0.7 0.35 0c2.76,0 5.23,-0.59 7.35,-1.65 2.17,-1.12 3.94,-1.88 5.41,-2.35 1.41,-0.41 2.35,-0.76 2.65,-1 0.35,-0.24 0.65,-0.35 0.88,-0.35l2.82 0.35c0.88,0 2.12,-1.65 3.7,-4.94 1.53,-3.24 3.3,-5.65 5.24,-7.12 1.94,-1.53 3.88,-4.29 5.82,-8.46 0.47,-0.53 1,-1.47 1.59,-2.65 0.53,-1.23 1,-1.82 1.35,-1.82 1.7,0 3.12,-1.06 4.12,-3.29 3.47,-4 6.29,-6 8.47,-6 2.88,0 4.88,2.76 6,8.29l1.7 6.53c0,0.12 -0.23,0.94 -0.82,2.47 -0.59,1.59 -0.82,3.11 -0.76,4.65 0.06,1.59 0,2.59 -0.18,3.11 -0.17,0.53 -0.29,1.12 -0.29,1.82 0,0.94 1,1.35 2.94,1.35 0.7,0 1.94,-0.41 3.82,-1.35l1 -0.35c1.18,0.7 2.12,1.06 2.94,1.06 0.24,0 1.88,-0.59 4.88,-1.76 3.06,-1.12 5,-1.76 5.82,-1.88 0.76,-0.12 2.17,-0.59 4.11,-1.35l2.06 0 1.41 0.47c0.41,0 1.35,-0.47 2.82,-1.41 1.41,-1 4.17,-1.59 8.17,-1.82l2.41 -1.06 0.7 0c3.76,0 5.65,1.7 5.65,5 0,0.7 -0.53,1.88 -1.59,3.65 -1.12,1.7 -2,3.65 -2.7,5.82l-7.94 10c-2.65,3.47 -5.24,5.17 -7.88,5.17 -0.47,0 -1.94,-1.53 -4.35,-4.65 0,-0.23 -0.24,-0.35 -0.65,-0.35 -1.17,0 -2.35,0.24 -3.65,0.7 -1.23,0.47 -2.29,0.7 -3.11,0.7 -0.3,0 -3.35,0.82 -9.12,2.53l-4.11 0.7c-0.47,0 -1.59,0.24 -3.3,0.7l-8.76 1.7c-3,1.53 -5.35,4.3 -7.06,8.47 0,0.24 -0.59,0.7 -1.76,1.53l-7.76 14.11c-2.53,0.71 -4.17,2.18 -5,4.47l-0.65 1.06c-1.3,0.24 -2.41,0.94 -3.47,2.18 -1.06,1.18 -2,2.12 -2.94,2.82l-3.06 4.65c-1.3,1.59 -2.53,3.35 -3.82,5.24 -1.24,1.94 -2.18,3.94 -2.76,6.06 -0.59,2.12 -1,3.35 -1.35,3.7 -0.35,0.35 -0.53,0.94 -0.53,1.88l-0.53 1.35c-1.35,1.41 -2.06,2.94 -2.06,4.7l0.71 2.7c-1.65,5.53 -2.41,8.47 -2.41,8.82 0,0.24 0.12,0.82 0.35,1.88l0 1.06c0,2.53 -0.94,5.65 -2.76,9.47l0.35 2.76 -1.06 7.7c0,1.06 0.35,2.94 1.06,5.7 -0.47,0.47 -0.71,0.82 -0.71,1.06 0,3.18 1.7,6.7 5.06,10.59 3.41,3.82 5.11,9.82 5.11,18 0,0.7 -0.17,1.7 -0.53,3 -0.35,1.35 -0.59,2.76 -0.7,4.29 -0.12,1.59 -1,3.12 -2.65,4.59 -1.71,1.47 -3.06,2.24 -4.24,2.24 -6.11,0 -10.65,-4.41 -13.58,-13.23 -3,-8.82 -4.53,-14.53 -4.53,-17.06l0.35 -6.7 -1 -3.47 1 -15.11 -0.7 -3.65 4 -14.82 0 -5.35c0,-0.24 0.82,-1.12 2.41,-2.76 0,-0.24 -0.24,-0.35 -0.7,-0.35 -0.71,0 -1.59,0.7 -2.76,2.12 -1.12,1.35 -2.59,2.7 -4.3,3.94l-1.35 2.41c-0.24,-0.24 -0.7,-0.47 -1.41,-0.7 -0.59,0.24 -2.47,2.94 -5.65,8.11 -2.41,0.35 -4.35,1.7 -5.7,4.12 -1.41,2.41 -3.29,3.65 -5.7,3.65l-0.71 0.35c-0.41,3.3 -2.06,5 -4.82,5l-0.65 0.35c-1.76,3.88 -3.53,5.76 -5.35,5.65 -1.18,3.47 -4,5.82 -8.47,7.06 -0.65,1.41 -1.7,2.41 -3,3.12 -1.29,0.7 -2.29,1.35 -2.82,1.88 -0.59,0.59 -1.12,0.88 -1.59,0.88 -1.47,0 -2.24,-1.59 -2.24,-4.82 0,-0.94 0.41,-1.94 1.12,-3 0.76,-1.12 1.12,-1.88 1.12,-2.35 0,-0.24 -0.53,-0.94 -1.7,-2.06 0,-3.59 0.94,-5.82 2.76,-6.7 1.82,-0.94 3.17,-2.24 4.11,-4 0.59,-1.35 1.71,-2.35 3.47,-2.94 1.7,-0.53 2.53,-1.3 2.53,-2.24 0,-0.76 1.53,-2.41 4.53,-4.82 2.94,-2.41 5.12,-4.47 6.53,-6.29 1.35,-1.76 2.53,-2.65 3.41,-2.65l0.71 -0.71c0.23,-2.88 1.35,-4.29 3.29,-4.29l1.7 -1.06 0.35 -1.35 1 -0.71 1.41 0 0.82 -0.65c0.24,-2.88 1.59,-5.11 4.06,-6.76 2.47,-1.59 7,-6.11 13.53,-13.52 6.53,-7.41 10.23,-12.11 11,-14.23 0.82,-2.06 2.29,-4.82 4.41,-8.35 2.12,-3.47 3.3,-6.76 3.53,-9.88 -0.23,-0.47 -0.59,-0.94 -1.06,-1.41l-7.41 3.65c0,-0.35 -1.11,-0.88 -3.41,-1.53 -1.76,1 -3,2.06 -3.82,3.06 -0.76,1.06 -1.41,1.59 -1.88,1.59l-2.41 -0.35 -7.59 0.82c-6.76,0.59 -11.88,2 -15.35,4.18l-7.06 2.06 -1.53 0c-0.94,0 -2.3,0.59 -4.12,1.7l-4 -0.35c-3.65,2 -6.35,2.94 -8.11,2.94 -0.18,0 -0.88,-0.12 -2.06,-0.35l-17.58 4.82c-1.35,0.47 -4.47,2.82 -9.29,7.06l-1.35 0.35c-1.17,0 -2.53,-1.29 -4.06,-3.88 -1.53,-2.59 -2.35,-4.88 -2.35,-6.94 0,-11.41 9.76,-18 29.35,-19.82l7.06 -2.76 0.3 0 1.94 0.7 0.65 0c0.7,0 1.82,-0.47 3.3,-1.29 1.47,-0.88 4.82,-1.94 10,-3.18l7.06 -1.94 2.24 0.35c1.18,0 2.47,-0.47 3.88,-1.35 1.47,-0.94 3.65,-1.59 6.53,-2 2.94,-0.41 5,-0.82 6.11,-1.29l2.76 -0.7c0.47,0 1.41,-0.35 2.88,-1.18 1.41,-0.82 3.3,-1.24 5.59,-1.24 0.35,0 1.18,0.24 2.59,0.7z"/>
   <path id="6" class="fil4" d="M1672.63 4791.91l1.41 -1.88c3,-0.7 4.94,-1.82 5.7,-3.47 0.35,-0.76 3.24,-3.76 8.7,-8.94 5.41,-5.17 8.41,-7.94 9,-8.29 3.7,-6.65 5.94,-11.64 6.76,-15 1.41,-0.65 2.06,-1.47 2.06,-2.35l1.41 -2.76 1.53 -0.35 0.71 -0.7 0 -1.53c0,-2.11 2.29,-6.94 6.76,-14.46 4.53,-9.35 6.94,-14.47 7.3,-15.46 0.29,-0.94 1,-2.41 2.06,-4.3 1,-1.88 2.59,-5.53 4.7,-10.94 2.12,-5.41 5.47,-11 9.94,-16.88 0.47,-0.24 1.12,-1.53 2.06,-3.88 0.94,-2.35 2.35,-4.7 4.29,-7l2.06 -3.59c0.7,-1.17 1.88,-3.17 3.65,-6.06 1.7,-2.82 3.29,-5.12 4.7,-6.76 1.47,-1.7 2.53,-3.41 3.29,-5.29 0.76,-1.82 1.65,-3.12 2.65,-3.94 1.06,-0.82 2.12,-2.29 3.24,-4.41 1.06,-2.12 2.76,-3.18 5.06,-3.18 4.47,0 7.7,1.82 9.76,5.53 2,3.65 3,6.88 3,9.65 0,0.35 -0.7,2.82 -2.06,7.41l-2.59 15.46c-2.3,1.18 -3.47,2.47 -3.47,4 0,6.06 -2.35,12.41 -7.06,18.94 -0.47,0.47 -0.82,1.94 -1.12,4.47 -0.29,2.53 -1.29,4.59 -3,6.23 -1.77,1.59 -3.3,4.3 -4.65,8.06l-16.06 22.93 -1.35 1.41c-0.7,0.41 -1.53,1.41 -2.41,2.88l-2.76 -0.83c-3.12,0 -4.65,0.94 -4.65,2.88 0,0.71 0.23,1.65 0.65,2.76l0 0.35c0,0.12 -4.23,6.17 -12.7,18.11 -0.47,0.65 -1.3,2.94 -2.41,6.7l-2.41 5.18c-2.41,3.35 -4.12,6.59 -5.12,9.7 -0.94,3.17 -2.23,5.76 -3.88,7.7 -2.29,5.18 -3.41,7.88 -3.41,8.12 0,0.65 0.35,1 1,1 0.7,0 2.35,-1.71 4.94,-5.18 2.59,-3.41 4.7,-5.7 6.35,-6.88 1.65,-1.11 3.06,-2.7 4.23,-4.82l1.71 -1.18c0.47,-0.24 1.41,-0.94 2.88,-2.06l1.71 0.35c0.94,-0.71 1.53,-1.53 1.7,-2.41 0.24,-0.94 0.59,-1.65 1.06,-2.06 2.94,-0.35 4.82,-1.47 5.53,-3.29 0.76,-1.82 1.65,-2.76 2.65,-2.76 0.94,0 2.12,-1.06 3.59,-3.18 1.53,-2.11 3.59,-3.82 6.29,-5.17 2.65,-1.3 4.65,-2.47 5.94,-3.53 1.35,-1 4,-2.24 8,-3.65 3.94,-1.47 6.65,-2.18 8,-2.18l1.06 0 1.35 0.35 2.59 -0.35c3.94,0 7.94,1.12 12,3.35 4,2.24 5.7,5.7 5.11,10.41l-1.35 10.7 -1.88 8.41c-0.24,1.35 -1.18,4.41 -2.76,9.11 -1.59,4.7 -2.41,7.41 -2.41,8.11l-0.7 3.24 0.7 4.47 -0.35 3.65c0,1.12 0.59,1.7 1.76,1.7 0.41,0 1.7,-1.06 3.76,-3.11 1.29,0.23 2.53,-0.41 3.65,-2.06 1.17,-1.59 2.7,-3.24 4.7,-5 0,-0.41 0.7,-0.88 2.23,-1.24 1.47,-0.41 3.59,-1.76 6.24,-4.06 0.47,-1.06 2.7,-3.24 6.76,-6.65 4,-3.35 7.88,-6 11.59,-7.82l1.06 -1.35c1.94,-1.94 3.7,-2.94 5.35,-2.94 1.59,0 2.41,0.88 2.41,2.59 0,1.12 -0.29,2.35 -0.88,3.59 -0.53,1.3 -0.94,2.94 -1.17,4.94 -0.24,2 -1.41,4.88 -3.47,8.7l-0.7 1.7c-0.76,1.94 -1.76,3.12 -2.88,3.47 -1.18,0.3 -2.41,1.3 -3.7,2.82 -1.35,1.53 -4.06,3 -8.23,4.41 -1.82,3.41 -3.24,5.18 -4.29,5.18l-3.12 -1.41c-2.41,1.94 -3.59,3.94 -3.59,6.06 -3,2.47 -4.82,4.17 -5.35,4.94l-3.47 -0.3c-0.94,0 -1.35,1.24 -1.35,3.76 0,0.24 -1.24,1 -3.59,2.35 -2.35,1.3 -4.12,2.47 -5.41,3.53 -1.23,1 -3.94,1.53 -8.11,1.53 -0.47,0 -1.12,-0.41 -2.06,-1.24 -0.94,-0.76 -2.29,-1.47 -4.06,-2.06 -1.77,-0.53 -3,-1.88 -3.7,-4.06 -0.71,-2.12 -1.41,-3.76 -2.24,-5 -0.82,-1.18 -1.18,-2.12 -1.18,-2.82l0.3 -3.47 -0.82 -3.59 1.53 -2.41c-0.7,-1.59 -1,-2.7 -1,-3.29l1.7 -10.47c1.24,-7.59 2.3,-12.53 3.12,-14.82 0.18,-0.24 0.3,-0.94 0.3,-2.12l-0.3 -4.29 0.3 -2.41c0,-1.7 -0.53,-2.65 -1.7,-2.76 -1.12,-0.12 -1.82,-0.41 -2.06,-0.82 -1.53,-0.7 -2.35,-1.06 -2.59,-1.06 -0.94,0 -1.71,0.71 -2.41,2.18 -0.7,1.41 -1.59,2.7 -2.76,3.82l-4.29 -0.65 0 0.35c0,0.88 -1.59,2.7 -4.65,5.3 -2.88,0.7 -5.35,2.23 -7.41,4.53 -0.94,0 -2.53,0.88 -4.76,2.65 -2.24,1.76 -3.7,2.76 -4.41,3l-1.35 2.76 -2.76 0.88c-0.82,2.29 -2.7,3.76 -5.7,4.47l-1.7 3.24c-2.41,0.23 -4.06,1.47 -5,3.7 -0.94,2.29 -1.59,3.41 -2.06,3.41 -0.23,0 -0.59,-0.18 -1.11,-0.47 -0.53,-0.29 -1,-0.41 -1.47,-0.41 -2.53,0 -3.88,1.88 -4.11,5.7 0,0.41 -2.35,3.11 -7.06,8.06 -4.76,4.94 -7.29,7.47 -7.59,7.59 -0.35,0.12 -1,1.3 -2,3.53 -1,2.24 -2.35,3.94 -4.06,5 -1.7,1.12 -3,2 -3.88,2.65 -0.88,0.7 -1.53,1.06 -2,1.06 -2.41,0 -4.35,-1.7 -5.82,-5.18 -1.53,-3.41 -2.23,-5.23 -2.23,-5.35l1 -3.59 -0.35 -3.12c0,-0.12 0.76,-2.41 2.18,-7 1.41,-4.53 3.06,-8.06 4.94,-10.65 1.82,-2.59 3.24,-6.82 4.3,-12.7 -5.18,3.47 -8.29,5.17 -9.29,5.17 -2.3,0 -3.47,-1.47 -3.47,-4.47 0,-5.53 1.76,-10.47 5.35,-14.82z"/>
   <path id="7" class="fil4" d="M1961.08 4699.11l2.41 -0.7 1.7 -1.7 0.35 0 1.53 0.7 0.35 0c2.76,0 5.23,-0.59 7.35,-1.65 2.17,-1.12 3.94,-1.88 5.41,-2.35 1.41,-0.41 2.35,-0.76 2.65,-1 0.35,-0.24 0.65,-0.35 0.88,-0.35l2.82 0.35c0.88,0 2.12,-1.65 3.7,-4.94 1.53,-3.24 3.3,-5.65 5.24,-7.12 1.94,-1.53 3.88,-4.29 5.82,-8.46 0.47,-0.53 1,-1.47 1.59,-2.65 0.53,-1.23 1,-1.82 1.35,-1.82 1.7,0 3.12,-1.06 4.12,-3.29 3.47,-4 6.29,-6 8.47,-6 2.88,0 4.88,2.76 6,8.29l1.7 6.53c0,0.12 -0.23,0.94 -0.82,2.47 -0.59,1.59 -0.82,3.11 -0.76,4.65 0.06,1.59 0,2.59 -0.18,3.11 -0.17,0.53 -0.29,1.12 -0.29,1.82 0,0.94 1,1.35 2.94,1.35 0.7,0 1.94,-0.41 3.82,-1.35l1 -0.35c1.18,0.7 2.12,1.06 2.94,1.06 0.24,0 1.88,-0.59 4.88,-1.76 3.06,-1.12 5,-1.76 5.82,-1.88 0.76,-0.12 2.17,-0.59 4.11,-1.35l2.06 0 1.41 0.47c0.41,0 1.35,-0.47 2.82,-1.41 1.41,-1 4.17,-1.59 8.17,-1.82l2.41 -1.06 0.7 0c3.76,0 5.65,1.7 5.65,5 0,0.7 -0.53,1.88 -1.59,3.65 -1.12,1.7 -2,3.65 -2.7,5.82l-7.94 10c-2.65,3.47 -5.24,5.17 -7.88,5.17 -0.47,0 -1.94,-1.53 -4.35,-4.65 0,-0.23 -0.24,-0.35 -0.65,-0.35 -1.17,0 -2.35,0.24 -3.65,0.7 -1.23,0.47 -2.29,0.7 -3.11,0.7 -0.3,0 -3.35,0.82 -9.12,2.53l-4.11 0.7c-0.47,0 -1.59,0.24 -3.3,0.7l-8.76 1.7c-3,1.53 -5.35,4.3 -7.06,8.47 0,0.24 -0.59,0.7 -1.76,1.53l-7.76 14.11c-2.53,0.71 -4.17,2.18 -5,4.47l-0.65 1.06c-1.3,0.24 -2.41,0.94 -3.47,2.18 -1.06,1.18 -2,2.12 -2.94,2.82l-3.06 4.65c-1.3,1.59 -2.53,3.35 -3.82,5.24 -1.24,1.94 -2.18,3.94 -2.76,6.06 -0.59,2.12 -1,3.35 -1.35,3.7 -0.35,0.35 -0.53,0.94 -0.53,1.88l-0.53 1.35c-1.35,1.41 -2.06,2.94 -2.06,4.7l0.71 2.7c-1.65,5.53 -2.41,8.47 -2.41,8.82 0,0.24 0.12,0.82 0.35,1.88l0 1.06c0,2.53 -0.94,5.65 -2.76,9.47l0.35 2.76 -1.06 7.7c0,1.06 0.35,2.94 1.06,5.7 -0.47,0.47 -0.71,0.82 -0.71,1.06 0,3.18 1.7,6.7 5.06,10.59 3.41,3.82 5.11,9.82 5.11,18 0,0.7 -0.17,1.7 -0.53,3 -0.35,1.35 -0.59,2.76 -0.7,4.29 -0.12,1.59 -1,3.12 -2.65,4.59 -1.71,1.47 -3.06,2.24 -4.24,2.24 -6.11,0 -10.65,-4.41 -13.58,-13.23 -3,-8.82 -4.53,-14.53 -4.53,-17.06l0.35 -6.7 -1 -3.47 1 -15.11 -0.7 -3.65 4 -14.82 0 -5.35c0,-0.24 0.82,-1.12 2.41,-2.76 0,-0.24 -0.24,-0.35 -0.7,-0.35 -0.71,0 -1.59,0.7 -2.76,2.12 -1.12,1.35 -2.59,2.7 -4.3,3.94l-1.35 2.41c-0.24,-0.24 -0.7,-0.47 -1.41,-0.7 -0.59,0.24 -2.47,2.94 -5.65,8.11 -2.41,0.35 -4.35,1.7 -5.7,4.12 -1.41,2.41 -3.29,3.65 -5.7,3.65l-0.71 0.35c-0.41,3.3 -2.06,5 -4.82,5l-0.65 0.35c-1.76,3.88 -3.53,5.76 -5.35,5.65 -1.18,3.47 -4,5.82 -8.47,7.06 -0.65,1.41 -1.7,2.41 -3,3.12 -1.29,0.7 -2.29,1.35 -2.82,1.88 -0.59,0.59 -1.12,0.88 -1.59,0.88 -1.47,0 -2.24,-1.59 -2.24,-4.82 0,-0.94 0.41,-1.94 1.12,-3 0.76,-1.12 1.12,-1.88 1.12,-2.35 0,-0.24 -0.53,-0.94 -1.7,-2.06 0,-3.59 0.94,-5.82 2.76,-6.7 1.82,-0.94 3.17,-2.24 4.11,-4 0.59,-1.35 1.71,-2.35 3.47,-2.94 1.7,-0.53 2.53,-1.3 2.53,-2.24 0,-0.76 1.53,-2.41 4.53,-4.82 2.94,-2.41 5.12,-4.47 6.53,-6.29 1.35,-1.76 2.53,-2.65 3.41,-2.65l0.71 -0.71c0.23,-2.88 1.35,-4.29 3.29,-4.29l1.7 -1.06 0.35 -1.35 1 -0.71 1.41 0 0.82 -0.65c0.24,-2.88 1.59,-5.11 4.06,-6.76 2.47,-1.59 7,-6.11 13.53,-13.52 6.53,-7.41 10.23,-12.11 11,-14.23 0.82,-2.06 2.29,-4.82 4.41,-8.35 2.12,-3.47 3.3,-6.76 3.53,-9.88 -0.23,-0.47 -0.59,-0.94 -1.06,-1.41l-7.41 3.65c0,-0.35 -1.11,-0.88 -3.41,-1.53 -1.76,1 -3,2.06 -3.82,3.06 -0.76,1.06 -1.41,1.59 -1.88,1.59l-2.41 -0.35 -7.59 0.82c-6.76,0.59 -11.88,2 -15.35,4.18l-7.06 2.06 -1.53 0c-0.94,0 -2.3,0.59 -4.12,1.7l-4 -0.35c-3.65,2 -6.35,2.94 -8.11,2.94 -0.18,0 -0.88,-0.12 -2.06,-0.35l-17.58 4.82c-1.35,0.47 -4.47,2.82 -9.29,7.06l-1.35 0.35c-1.17,0 -2.53,-1.29 -4.06,-3.88 -1.53,-2.59 -2.35,-4.88 -2.35,-6.94 0,-11.41 9.76,-18 29.35,-19.82l7.06 -2.76 0.3 0 1.94 0.7 0.65 0c0.7,0 1.82,-0.47 3.3,-1.29 1.47,-0.88 4.82,-1.94 10,-3.18l7.06 -1.94 2.24 0.35c1.18,0 2.47,-0.47 3.88,-1.35 1.47,-0.94 3.65,-1.59 6.53,-2 2.94,-0.41 5,-0.82 6.11,-1.29l2.76 -0.7c0.47,0 1.41,-0.35 2.88,-1.18 1.41,-0.82 3.3,-1.24 5.59,-1.24 0.35,0 1.18,0.24 2.59,0.7z"/>
   <path id="8" class="fil4" d="M2098.52 4836.78l-8.11 7.06c-0.47,-0.47 -0.88,-0.65 -1.35,-0.65 -1.18,0 -2.59,1 -4.23,3.06 -1.65,2.06 -2.82,3.11 -3.53,3.11l-1.7 -0.35c-2.88,2.17 -4.94,3.47 -6.23,3.82 -1.24,0.29 -2.76,0.94 -4.59,1.88 -1.76,0.88 -3.35,1.41 -4.82,1.53 -1.41,0.12 -2.59,0.59 -3.53,1.47 -0.88,0.89 -3.12,1.3 -6.7,1.3l-2.76 -0.35c-1.47,0.71 -2.47,1.06 -2.94,1.06 -0.88,0 -1.88,-0.53 -2.94,-1.47 -1,-1 -2.12,-1.53 -3.35,-1.65 -1.18,-0.12 -2.41,-0.94 -3.7,-2.41 -1.24,-1.47 -2.41,-2.53 -3.53,-3.11 -1.06,-0.53 -2,-1.35 -2.65,-2.41l-2.41 -2.06c-2,-1.35 -3.88,-3.88 -5.7,-7.59 -1.82,-3.65 -2.76,-6.53 -2.76,-8.58l0 -0.71 0.35 -3.29 -0.35 -3.76c0.47,-0.47 1.06,-1.47 1.7,-2.94l0 -5.53 4.18 -13.76c0.23,-0.59 -0.24,-1.35 -1.41,-2.24 -1.12,1.7 -2.29,2.76 -3.41,3.12 -1.18,0.3 -1.94,1.12 -2.3,2.41 -0.41,1.24 -1.06,1.88 -2,1.88l-2.06 -0.7c-0.18,0.24 -0.71,1.41 -1.53,3.53 -0.76,2.12 -2.11,3.18 -4.06,3.18 -2.06,0 -3.06,-0.76 -3.06,-2.41l0.3 -3.06 -1 -4.35c0,-0.88 0.94,-2.7 2.76,-5.41 1.82,-2.7 3.53,-4.23 5.06,-4.65 1.59,-0.41 2.88,-1.53 3.94,-3.29 1.12,-1.76 3.47,-3.94 7.17,-6.47 2.06,-0.41 3.82,-1.94 5.35,-4.47 1.59,-1.23 3.7,-2.29 6.23,-3.11 2.59,-0.76 4.53,-1.94 5.88,-3.53 1.29,-1.53 5.23,-3.94 11.7,-7.24 6.47,-3.23 11.23,-4.88 14.17,-4.88 0.94,0 2.18,-0.29 3.82,-0.76 1.59,-0.53 3.06,-1 4.47,-1.41 1.35,-0.41 2.82,-1 4.29,-1.88 1.47,-0.88 2.71,-1.3 3.59,-1.3l5 1.7c3.7,1.06 5.94,1.82 6.7,2.24 0.24,0.24 1.41,0.76 3.53,1.47 2.12,0.77 4.3,1.77 6.59,3.06 2.24,1.24 3.35,3.59 3.35,7.06 -2,2.88 -2.94,4.41 -2.94,4.65 0,0.47 1.29,1.11 3.94,2.06 0.94,1.71 2.29,3.94 4.11,6.7l1.94 6.06 0.3 14.11 -0.3 1.35c-1.3,1.18 -1.94,1.94 -1.94,2.3l0.53 3.41 -1.35 4.82c-0.35,1.53 -0.94,2.47 -1.76,2.94 -0.76,0.47 -1.3,1.06 -1.53,1.7l-1.06 1.41c-0.18,0.35 -0.71,1.35 -1.47,3 -0.7,1.65 -1.53,2.94 -2.47,3.88 -0.94,0.94 -1.47,2 -1.7,3.3 -0.24,1.23 -0.82,2.17 -1.76,2.76 -0.88,0.53 -1.53,1.17 -1.94,1.76 -0.41,0.65 -1.06,1.17 -2,1.65zm-53.69 4.41l0.71 3.94 0.29 0.35 2.76 0 0.88 0.35c2.3,0.47 4,0.7 5.18,0.7 3.53,0 6.35,-0.88 8.47,-2.7 2.17,-1.76 3.82,-2.65 5.11,-2.65 1.24,0 2.3,-0.88 3.18,-2.59 0.88,-1.7 1.41,-2.59 1.65,-2.59l2.41 0 0.65 -0.35c0,-2.65 1.18,-4.53 3.53,-5.7 2.35,-1.12 4.06,-2.65 5,-4.53 1,-1.88 2.11,-3.35 3.35,-4.29 1.3,-1 2.12,-2.3 2.59,-3.88l1.41 -2.12c0.41,-0.41 0.65,-1.3 0.65,-2.59l3.3 -6.18c0.7,-2.88 1,-5.11 1,-6.7 0,-2.41 -1.24,-4.3 -3.7,-5.7 -2.41,-1.35 -3.65,-4.06 -3.65,-8.12 0,-2.65 1.3,-5.06 4,-7.29 2.7,-2.23 4.06,-3.59 4.06,-4.06 0,-0.71 -0.35,-1.06 -1,-1.06 -0.35,0 -1.7,0.47 -4,1.41 -0.76,1.59 -4.88,3.7 -12.23,6.35 -2.35,-1.11 -3.7,-1.7 -3.94,-1.7 -0.65,0 -1.35,0.7 -2.06,2.06 -0.71,1.41 -1.35,2.35 -2.06,2.94l-2.24 0c-0.23,0 -1,0.76 -2.23,2.24 -1.3,1.47 -2.88,2.23 -4.82,2.23l-2.06 2.06c0.12,1.88 -1.06,3.76 -3.47,5.7l-1.88 2.23c-1.12,1.35 -2.65,3 -4.47,4.82l-3.12 7.76c-1.24,3 -1.88,5.23 -1.88,6.7 -0.35,0.7 -1.12,1.41 -2.3,2.17 -1.23,0.71 -1.82,1.71 -1.82,2.82 0,0.24 0.41,0.83 1.18,1.71 0.82,0.94 1.24,1.65 1.24,2.11l-0.7 2.24 -0.65 6.35 1.7 5.53z"/>
   <path id="9" class="fil4" d="M2201.25 4900.87l1.7 -3.82 1.06 -4.29c0,-0.47 0.53,-1.12 1.65,-2.06 1.06,-0.94 1.65,-1.7 1.59,-2.41 2.76,-10.7 5.59,-18 8.47,-21.88l4.11 -10.35c0.47,-2.29 1.53,-4.11 3.24,-5.53 1.65,-1.35 2.47,-2.59 2.47,-3.59 0,-0.7 -1.18,-1.7 -3.53,-3.06 -2.35,-1.29 -3.53,-2.53 -3.53,-3.7 0,-1.12 3.76,-3.35 11.35,-6.7 0,-3.23 1.77,-6.59 5.18,-10.17 0.82,-0.65 1.24,-1.47 1.24,-2.41 0,-2.76 0.53,-5 1.7,-6.7l1.35 -3.94c0.47,-1.41 1.41,-2.94 2.88,-4.59 1.41,-1.65 2.12,-3.29 2.12,-4.94l0 -1.35c-1.47,-0.12 -3.59,1.82 -6.35,5.88 -2.88,0 -5.24,2.11 -7.06,6.35 -0.94,2.41 -3.06,3.94 -6.41,4.65 -1.47,2.76 -3.94,4.65 -7.41,5.7 -2.47,-1.53 -3.7,-2.76 -3.7,-3.82l1.53 -10.65c0,-2.41 5.88,-8.47 17.59,-18.11 0.7,0 2.94,-2.18 6.7,-6.53l9.53 -10.7c5.12,-5.17 9.06,-8.94 11.7,-11.35 4.94,-7.82 7.41,-13 7.41,-15.52 2.29,-2.06 4.29,-6.35 5.94,-12.82 1.65,-6.53 3.24,-11.23 4.65,-14.17 1.41,-2.88 2.3,-5.06 2.47,-6.47 4.65,-13.88 8,-22.58 10.17,-26.17l1.76 -5.7 2.59 -2.06c0.18,-0.59 0.41,-2.35 0.65,-5.35 1.29,-0.41 2.59,-2.94 4,-7.59 1.35,-4.59 2.7,-7.7 4.12,-9.47 1.35,-1.7 2.29,-3.53 2.76,-5.41 0.47,-1.88 1.88,-3.76 4.23,-5.7 2.35,-1.88 4.7,-2.82 7.12,-2.82 0.82,0 2.17,1.18 4.06,3.53 1.88,2.35 3.06,5.06 3.47,8.12 0.35,3.06 0.7,5.11 0.94,6.17 0.23,1.12 0.35,2.59 0.35,4.41l0.3 5c0,0.94 -0.41,3.82 -1.35,8.76 -0.94,4.94 -1.59,8.47 -2,10.65 -0.41,2.12 -1.59,3.53 -3.53,4.18 -1.94,0.7 -2.94,1.41 -2.94,2.11 0,0.65 0.47,1.24 1.41,1.59 0.94,0.41 1.35,0.76 1.35,0.94 0,0.47 -0.65,2 -1.94,4.59 -1.35,2.59 -2.59,4.23 -3.7,4.94 0.65,1.35 1,2.18 1,2.41 0,0.53 -0.82,2.35 -2.47,5.41 -1.7,3.06 -3.06,5.06 -4.06,6.12 -1.06,1.06 -2.06,3.41 -3.11,7.06 -1,3.7 -3.65,6.76 -7.94,9.29 -1.59,1.65 -3,4.29 -4.17,7.94 -1.24,3.71 -3,6 -5.3,6.88l-2.23 3.3 0 0.7c0,1.7 -0.59,3.59 -1.7,5.65 -1.18,2.12 -2.3,4.53 -3.47,7.35 -1.11,2.82 -2.23,4.7 -3.23,5.59 -0.47,2.65 -1.3,5.06 -2.41,7.17 -1.17,2.12 -1.88,4 -2.11,5.59l-1.18 1.35c-2.3,0.35 -3.47,1.47 -3.47,3.29l0.7 3.82c0,0.06 -1.06,2 -3.12,5.65l-0.65 3.47c-0.59,2.88 -1.7,4.76 -3.3,5.76 -1.59,1 -2.65,3.12 -3.11,6.47l-0.7 4.12c0,0.24 0.11,0.59 0.35,1.06 0.24,0 0.94,-0.65 2.06,-1.88 1.65,0.53 2.53,0.82 2.76,0.82 0.7,0 1.35,-0.47 2,-1.47 0.65,-0.94 1.65,-1.7 3,-2.11l0.7 -0.35c0.59,-1.65 1.41,-2.47 2.59,-2.59 1.12,-0.12 2.12,-0.65 2.94,-1.65 0.76,-1 1.41,-1.47 1.88,-1.47 0.24,0 1.06,0.47 2.41,1.41l0.35 0 1.53 -0.71 -0.35 -2.76c0,-1.17 0.53,-1.88 1.59,-2.23 1,-0.35 1.76,-0.94 2.24,-1.7l6.35 -4.18c2.76,-1.12 4.82,-2.35 6.11,-3.7 1.35,-1.3 2.76,-2.24 4.3,-2.82 1.59,-0.59 2.76,-1.29 3.65,-2.18 0.88,-0.82 2.76,-1.41 5.76,-1.65 3.35,-2.82 5.94,-4.82 7.76,-5.82l1.35 -1.88c0.24,-0.23 0.7,-0.47 1.41,-0.7 0.65,-0.24 1.59,-0.94 2.65,-2.06 1.11,-1.17 2.11,-1.76 3,-1.76 2.3,0 3.47,1.18 3.47,3.47 0,3.76 -1.71,6.82 -5.18,9.11l-0.35 0.53c-0.59,4.59 -2,6.88 -4.35,6.88 -0.47,0 -1.23,1 -2.41,2.94 -1.3,-0.24 -2,-0.35 -2.24,-0.35 -0.94,1.41 -2.06,2.65 -3.47,3.82l-1.06 0c-1.82,0 -9.29,5.35 -22.29,16 -0.7,0.7 -1.3,1.18 -1.76,1.41l-3.3 -0.35c0,0.24 -0.65,1.35 -2.06,3.41 -1.71,0.59 -3.65,1.7 -5.7,3.3 -2.06,1.59 -3.59,2.65 -4.59,3.11 -0.94,0.47 -1.83,1.24 -2.65,2.3 -0.82,1.12 -1.88,1.88 -3.29,2.35l-2.24 2.06 -1 0c-0.94,0 -2.06,0.59 -3.41,1.7 -1.3,1.18 -1.94,2.24 -1.94,3.3 0,0.47 0.53,1.35 1.53,2.76 0.94,-0.7 4.12,2.76 9.65,10.41 5.53,7.64 8.29,15 8.29,21.99 0,5.17 -0.76,8.53 -2.35,10.06 -1.53,1.59 -2.3,2.7 -2.3,3.35 0,0.47 0.18,1.82 0.53,4l0 0.71c0,1.11 -0.65,1.82 -2,2.06 -1.3,0.24 -2.06,0.65 -2.3,1.35l0 4.29 -0.65 2.06c-1.53,0.82 -3.06,3.53 -4.65,8.11 -3.41,3.59 -5.88,5.59 -7.35,6.06l-0.35 0.65 0.35 4.7c0,1.12 -0.53,2.06 -1.59,2.7 -1,0.71 -2.41,2.18 -4.18,4.41 -1.76,2.23 -3.59,3.82 -5.41,4.76 -0.41,2.17 -1.3,3.7 -2.65,4.65 -1.3,0.88 -2.65,2.23 -4,3.94l-1.06 0.71c-1,0.23 -2,1.47 -2.88,3.76l-1.41 0.35c-1.59,2.76 -3.12,4.76 -4.7,5.94 -1.53,1.23 -2.65,2.35 -3.3,3.41l-2.76 1.7c-1,2.06 -3.12,4.41 -6.35,7.06 -0.24,0 -0.7,-0.35 -1.35,-1.06l-0.53 0c-0.47,0 -0.88,0.47 -1.24,1.41 -0.29,0.88 -0.94,1.76 -1.88,2.59 -0.88,0.76 -1.82,1.94 -2.76,3.41l-0.65 0.7c-1.53,0 -3.88,2 -7.11,6.06 -2.18,0.41 -4.06,1.23 -5.65,2.41 -2.41,2.76 -4.12,4.12 -5,4.12 -0.12,0 -1.41,-0.94 -3.82,-2.82 -2.41,-1.94 -3.59,-4.94 -3.59,-9.06 0,-1.06 -0.7,-2.23 -2.06,-3.65 -0.24,-1.23 -0.47,-3.06 -0.7,-5.47l0 -1.59c0,-1.35 0.47,-3 1.35,-4.82l1.06 -3.59c0.24,-0.94 0.59,-1.7 1.06,-2.3 0.41,-0.53 1.12,-2.17 1.94,-4.88 0.88,-2.7 1.88,-5.35 3.06,-8l0.3 -1.76c1.29,-5.47 2.29,-8.17 3.11,-8.06 0.7,-1.76 1.41,-4.06 2.06,-6.94 0.7,-2.82 1.18,-5.17 1.47,-7.06 0.3,-1.82 1.12,-3.3 2.53,-4.47l4.29 -13.76zm35.52 -33.11l0.7 7.41c0,0.47 -0.94,2.65 -2.82,6.65 -1.94,3.94 -3.17,7.11 -3.7,9.52 -0.59,2.41 -1.88,3.65 -3.82,3.65l-1.7 0c-0.24,0.47 -0.35,0.88 -0.35,1.35l0.35 3.82c0,1.47 -0.41,4.12 -1.23,7.88 -0.77,3.82 -1.94,6.23 -3.41,7.23l-1.06 1.23c-0.23,1.71 -1.12,4.47 -2.65,8.18 -1.59,3.76 -2.88,6.65 -3.88,8.76 -1.06,2.18 -1.82,4.76 -2.41,7.94 -0.59,3.17 -1.35,5.17 -2.24,6.11 -0.7,3.24 -1.41,5.88 -2.11,8 -0.65,2.11 -1.53,5 -2.53,8.53 0.18,0.47 0.53,0.7 1,0.7 0.7,0 1.59,-1.24 2.59,-3.76 0.47,-0.47 1.24,-0.82 2.35,-1 1.06,-0.12 2,-1.35 2.82,-3.7l0.35 -0.65c1.24,-0.24 2.18,-0.88 2.77,-2 0.53,-1.06 1.17,-1.76 1.88,-2 0.71,-0.24 1.47,-0.76 2.41,-1.7l1.18 -0.35c0.47,-0.24 0.88,-0.82 1.23,-1.88 0.35,-1.06 0.77,-1.82 1.18,-2.41l2.41 0 0.71 -0.35c0.94,-3.65 2.06,-6.06 3.35,-7.11 1.35,-1.12 2.35,-2.41 3.06,-3.88 0.65,-1.53 1.47,-2.65 2.47,-3.47 1,-0.77 1.7,-2.3 2.18,-4.47 2.06,-2.41 3.35,-4.29 3.94,-5.7 0.59,-1.35 1.35,-2.53 2.41,-3.41l0.35 -1.24 -0.71 -2.06 0 -0.71c0,-0.88 1.35,-3.17 4.06,-6.88 2.7,-3.65 4.35,-6.7 5.06,-9.17 0.7,-2.47 1.29,-4.47 1.88,-5.94 0.59,-1.53 1.06,-3.24 1.41,-5.12 0.3,-1.88 0.94,-3.41 1.88,-4.65 0.88,-1.17 1.35,-2.82 1.35,-4.88 0,-3.59 -1.59,-8.06 -4.82,-13.47 -0.24,-0.24 -0.47,-0.88 -0.65,-2.06 -0.24,-1.17 -1.35,-2.47 -3.35,-4.06 -2.06,-1.53 -3.47,-2.3 -4.41,-2.3l-1.35 0.65c-0.23,0.24 -0.94,0.59 -2.17,1.06 -1.18,0.47 -1.82,1.53 -1.82,3.3l0 0.65 0.35 3.82c0,1 -1.47,2.35 -4.47,3.94z"/>
   <path id="10" class="fil4" d="M2375.26 4708.81l-1.06 -6.7 0 -1.06c0,-5.35 1.82,-8.35 5.53,-8.94 0.76,-0.12 3.24,-0.88 7.23,-2.24 2.06,0.47 4.24,2.3 6.47,5.41 2.23,3.18 3.35,5.94 3.35,8.35 0,0.23 -0.18,0.76 -0.53,1.53 -0.35,0.82 -0.59,2.35 -0.71,4.59 -0.06,2.24 -1.23,4.18 -3.35,5.88 -2.12,1.65 -4.35,2.47 -6.76,2.47 -1.65,0 -3.65,-1.12 -6.17,-3.35 -2.47,-2.24 -3.76,-4.24 -4,-5.94zm-74.45 86.21l2.76 -2.41 1.06 0c0.82,0 2,-0.88 3.65,-2.59l1.7 -0.7c2.35,-3.41 4.35,-5.41 6.11,-6l2.76 -2.06c0.47,-0.47 1.12,-0.88 2,-1.23 0.88,-0.35 2.24,-1.47 4.18,-3.35 1.88,-1.88 3.47,-2.82 4.59,-2.82 1.18,0 2.12,0.12 2.82,0.35 0.65,-1.41 2.06,-2.76 4.11,-4.06 2.12,-1.35 3.82,-2.94 5.06,-4.76l2.3 -1c1.82,-0.94 3.47,-2.11 4.94,-3.53 1.41,-1.47 3.3,-2.17 5.65,-2.17 3.35,0 6.82,1.7 10.47,5.06 3.59,3.41 5.41,6.65 5.41,9.76l-2.94 13.46c-1.94,9.88 -4.11,15.06 -6.53,15.53l-0.7 3.59c-1.59,1.18 -2.41,2.12 -2.41,2.76l1.06 4.17c0,0.53 -0.65,1.41 -1.88,2.59 -0.24,0 -0.35,0.35 -0.35,1l0 7.06c0,1.3 -0.82,2.35 -2.41,3.12 0.23,0.23 0.59,0.47 1,0.7 0.71,-0.7 2.24,-1.06 4.65,-1.06l2.76 0.35 3.76 -3.76c0.76,-0.24 1.88,-0.77 3.29,-1.65 1.41,-0.88 3.82,-2 7.23,-3.35l22.35 -17.29c3.06,-3.12 5.41,-4.65 7,-4.65 1.7,0 2.53,1.12 2.53,3.3 0,2.53 -0.47,4.59 -1.47,6.29 -0.94,1.65 -1.88,3.65 -2.65,6 -0.82,2.35 -1.76,4 -2.82,4.88 -1.12,0.94 -2,1.94 -2.71,3.06 -0.65,1.06 -2.53,2.65 -5.59,4.7 -3,2.06 -5.59,4.18 -7.7,6.3 -2.12,2.11 -3.88,3.65 -5.3,4.59l-7.35 5.29 -1.06 1.76c-0.23,0.24 -1.29,0.7 -3.17,1.47 -1.88,0.71 -3.59,1.65 -5.06,2.82l-3.12 1.71c-0.65,0.47 -1.82,0.76 -3.35,0.88 -1.53,0.12 -2.88,0.76 -4.06,2 -1.11,1.17 -2.06,1.76 -2.7,1.76l-2.59 -0.35 -3.47 1.06c-1.94,0 -4.3,-1.18 -7.12,-3.53 -2.82,-2.35 -4.23,-4.88 -4.23,-7.53l0 -1 0.35 -2.41c0,-0.47 -0.35,-1.65 -1.06,-3.53 -0.65,-1.94 -1,-3 -1,-3.23l0.35 -2.41 -0.35 -1c0,-3.11 0.24,-5.06 0.7,-5.88 0.41,-0.83 0.76,-1.94 1,-3.35 0.24,-1.47 0.47,-2.65 0.7,-3.53l0.82 -4.35c0.47,-1.35 1.06,-2.3 1.76,-2.7 0.24,-0.94 0.65,-2.47 1.35,-4.7l0.7 -3.06 1.7 -2.41c0.94,-0.94 1.47,-2.17 1.65,-3.7 0.17,-1.59 0.76,-3.23 1.82,-4.94 1,-1.71 1.53,-2.76 1.53,-3.12 0,-1.35 -0.65,-2.06 -2.06,-2.06 -0.47,0 -1.88,0.94 -4.29,2.76l-3.12 -1.06c-0.24,0 -0.88,0.59 -1.88,1.76 0,0.47 -0.53,0.77 -1.59,1 -1.06,0.24 -2,1.12 -2.94,2.59l-1.35 0.35 -2.3 -1 -0.65 0c-1.18,0 -1.88,1.24 -2.12,3.76 -1.24,1.88 -2.88,3.06 -5,3.65l-3.76 1c-1.29,0.47 -2.17,1.53 -2.76,3.12 -0.59,1.65 -1.76,3.12 -3.47,4.41 -1.7,1.35 -2.88,2 -3.47,2 -3.24,0 -4.82,-1.76 -4.82,-5.35l1.41 -8.06 -0.35 -1.06z"/>
   <path id="11" class="fil4" d="M2559.39 4820.9l0.71 0 1.7 0.65c0.24,0 0.47,-0.12 0.7,-0.35 0,-1.94 0.88,-3.59 2.76,-4.94 0.59,-2.18 1.88,-3.88 3.88,-5 2,-1.18 5.17,-3.06 9.59,-5.7l4.29 -3.76 2.06 -1.06 1.41 -1.71c1.24,-1.47 2.47,-2.23 3.65,-2.23 1.7,0 2.59,0.65 2.59,1.88l-1.59 3.47 0.71 5.65c0,2.06 -0.71,3.94 -2.18,5.53 -1.41,1.59 -3.65,3.94 -6.59,7.06l-8.82 9.3 -4.65 2.41c-1.11,0.7 -2.17,1.47 -3.11,2.41l-6.7 5.7c0,1.59 -0.53,2.76 -1.53,3.59l-2.76 0 -1.41 0.71c-0.76,2.17 -3.12,4.29 -7.06,6.35l-2.41 1.7c-0.76,0.7 -1.53,1.06 -2.23,1.06l-4.82 -0.7 -3.3 0.7c-0.88,0 -2.11,-0.47 -3.7,-1.35 -1.53,-0.94 -3.11,-1.65 -4.7,-2.17 -1.59,-0.53 -3.65,-2.65 -6.11,-6.35 -2.47,-3.76 -3.82,-6.17 -4.06,-7.35 0,-0.47 -0.23,-1.23 -0.76,-2.29 -0.53,-1.12 -0.76,-1.76 -0.76,-2 0,-0.24 0.47,-1.35 1.53,-3.41l0 -0.35c0,-0.35 -0.29,-1.18 -0.94,-2.41 -0.65,-1.3 -0.94,-2.82 -0.94,-4.65 0,-1.06 -0.35,-2.35 -1.06,-4 0.94,-0.88 1.41,-1.59 1.41,-2.06 0,-0.47 -0.18,-1.12 -0.53,-1.94 -0.35,-0.88 -0.53,-1.53 -0.53,-2l1.06 -8.41 -0.7 -4.35 0.35 -4.12c0,-2.41 -1.06,-3.59 -3.11,-3.59 -0.88,0 -2.06,0.59 -3.41,1.88l-1.17 0.35c-3.12,1.47 -5.3,2.7 -6.53,3.7 -1.3,0.94 -2.59,1.47 -3.94,1.47 -0.7,0.65 -2,1.3 -4,1.88l-1.35 1c-0.47,0.47 -1.35,1.18 -2.76,2.06 0,0.35 -2.11,2.29 -6.41,5.76 -4.29,3.53 -8.17,6.82 -11.58,9.94 -3.41,3.06 -5.94,4.76 -7.47,5.06 -1.53,0.29 -2.3,1.76 -2.3,4.41 0,0.41 -1.06,1.35 -3.11,2.76 -0.24,0 -1.41,1.24 -3.59,3.76 -1.82,-1.35 -2.88,-2.06 -3.11,-2.06 -1.47,0 -2.59,1.88 -3.24,5.65 -0.7,1.53 -2.53,2.41 -5.53,2.76 -0.24,0.12 -0.65,1 -1.24,2.59l-0.7 0.71 -1.7 0c-0.24,0 -1.06,0.65 -2.41,1.94 -1.41,1.35 -2.59,2.17 -3.65,2.53 -1.47,3.12 -2.76,4.65 -3.82,4.65 -0.41,0 -1.12,-0.24 -1.94,-0.7 -0.88,-0.47 -1.94,-0.88 -3.24,-1.18 -1.24,-0.35 -2.65,-1.76 -4.17,-4.3 -1.59,-2.47 -2.35,-4.59 -2.35,-6.29 0,-12.88 2.47,-19.87 7.41,-20.99l0.35 -0.71 0 -1.41c0,-1.47 0.65,-2.53 2,-3.18 1.29,-0.65 2.65,-1.94 4,-3.82 1.41,-1.88 2.3,-2.94 2.76,-3.17l2.24 0c0.47,0 0.7,-1.24 0.7,-3.65 0,-0.65 0.3,-1.3 0.88,-1.88 0.53,-0.59 0.88,-1.41 1,-2.47 0.12,-1.11 0.94,-2.88 2.53,-5.35 1.53,-2.47 2.29,-3.94 2.29,-4.41l-0.35 -0.7c-2.82,2.65 -4.94,4.11 -6.17,4.35 -1.24,0.18 -3,1.88 -5.17,5l-2.76 -0.53c-4.82,3.53 -7.82,5.53 -9,6 -1.12,0.47 -2.41,1.82 -3.76,4 0,0.65 -0.41,1.11 -1.23,1.35 -0.83,0.24 -2.3,1.18 -4.53,2.76l-1 0c-2.88,0 -4.35,-2.06 -4.35,-6.17l3.59 -9.82c1.06,-3.06 3.47,-5.7 7.35,-7.82 3.82,-2.12 7.06,-4.12 9.7,-6.12 2.65,-1.94 5.29,-2.94 7.94,-3.06l1.17 -1.7c3.88,-1.53 6.53,-3.88 7.94,-7.06 1.35,-3.24 3.23,-4.82 5.65,-4.82 6.29,0 11.11,2.35 14.46,7.11 3.35,4.7 5,8.41 5,11.17l0.35 4.65c0,1.65 -0.35,3.88 -1.06,6.76 -1.35,2.06 -2.06,3.59 -2.06,4.65 0,0.88 0.59,1.35 1.7,1.35 0.7,0 1.65,-0.47 2.76,-1.47 1.18,-0.94 2.47,-1.82 3.88,-2.65 1.41,-0.82 2.23,-1.47 2.47,-2.06 1.18,-2.76 3.18,-4.65 6.06,-5.7 2.82,-1 4.65,-1.88 5.29,-2.59l1.76 -1.35 1.35 -2.59c3.11,-1.41 5.17,-2.65 6.17,-3.82 1.06,-1.12 2.41,-1.88 4.18,-2.24 1.7,-0.35 3.65,-1.35 5.82,-3.06l2.59 -0.7 2.41 -1.41c0.24,-0.24 0.88,-0.47 2.06,-0.83 1.12,-0.35 2.82,-0.94 5.06,-1.82 2.24,-0.88 3.76,-1.29 4.59,-1.29 5.82,0 10.46,2.35 13.82,7.06 3.41,4.7 5.11,8.47 5.11,11.35l-0.35 3.12 0.65 4.65 0 0.7 -1.35 9.47 0.35 3.23c0,5.41 -1.18,9.12 -3.47,11.23 -0.59,0.18 -0.82,0.76 -0.82,1.7l0 1.53 3.41 7.23c1.06,2.53 1.82,3.76 2.41,3.76l5.53 -1.53c1.65,-0.47 2.94,-1.65 4,-3.59 0.94,-0.47 2.53,-1.88 4.82,-4.18 0.7,-1.82 1.76,-2.7 3.29,-2.7z"/>
   <path id="12" class="fil4" d="M2721.99 4810.13l2.71 -2.41c1.7,0 2.76,-0.76 3.06,-2.35 0.35,-1.53 1.59,-2.77 3.7,-3.7 2.12,-0.89 4.06,-2.77 5.88,-5.59 1.82,-2.82 3.7,-4.23 5.65,-4.23 0.7,0 1.47,0.59 2.41,1.7 0.88,1.18 1.35,2.06 1.35,2.76 0,3.82 -1.18,7.7 -3.47,11.7l-0.65 4.82 -1.23 2.29c-1.71,0.88 -2.82,1.88 -3.35,2.88 -0.53,1.06 -1.88,2.3 -4.06,3.82l-1.71 2.41c-2.53,0.82 -4.23,2.12 -5.06,3.94 -0.88,1.88 -2.06,2.88 -3.65,3.12 -1.53,0.24 -3.24,1.35 -5.06,3.47 -1.18,0.53 -2.53,1.06 -4.11,1.53l-0.35 1.71c-1.18,1.17 -3,2.06 -5.47,2.76 -2.41,0.7 -4.3,1.35 -5.47,2 -1.24,0.65 -2.06,0.94 -2.53,0.94 -2.17,0 -4.17,-0.41 -6,-1.29 -1.82,-0.88 -3.76,-1.41 -5.7,-1.65 -0.65,-0.65 -1.06,-1.41 -1.18,-2.24 -0.12,-0.76 -0.7,-1.82 -1.76,-3.18 -1,-1.29 -1.53,-3.11 -1.53,-5.41l0.7 -3.29c0,-0.41 -0.3,-1 -0.88,-1.7 -0.59,-0.65 -0.88,-1.24 -0.88,-1.71 0,-0.47 0.12,-0.82 0.35,-1.06 0.24,-0.18 0.35,-0.53 0.35,-1 0,-0.59 -0.12,-1.24 -0.35,-1.88 -0.23,-0.71 -0.35,-1.3 -0.35,-1.71l1.06 -8.46c0,-0.71 -0.24,-1 -0.71,-1 -0.41,0 -1.29,0.53 -2.47,1.7 -1.24,1.17 -2.65,1.7 -4.23,1.7 -0.94,0.7 -1.65,2.18 -2.24,4.35 -0.94,1.12 -2.06,2.18 -3.47,3.12l-0.7 1c-0.24,0.82 -1.06,1.47 -2.59,2 -1.47,0.53 -2.53,1.17 -3.06,2l-1.77 1.7 -3.29 -0.35c-0.18,0.24 -0.82,1.24 -1.88,3 -1,1.82 -2.35,3.29 -3.94,4.41l-13.11 10.7c-1.41,0.94 -3.41,2.06 -6.06,3.47l-1.06 1c-9.17,6.11 -15.7,9.17 -19.46,9.17 -3.12,0 -6.76,-0.88 -10.88,-2.59 -4.11,-1.7 -6.35,-3.76 -6.7,-6.23l-1.77 -7.06c-1,-1.59 -1.53,-3.82 -1.53,-6.7 0,-1.41 0.12,-2.29 0.35,-2.76l0 -1.06 -0.35 -5.65c0,-1.41 1.12,-2.11 3.3,-2.11l-0.35 -4.65c0,-0.47 1,-2.24 3,-5.41 2,-3.17 3.35,-5 4.06,-5.47l1.71 -2.23c-0.12,-1.35 0.7,-2.82 2.41,-4.41 1.76,-1.53 3.12,-3.11 4.18,-4.7 1.06,-1.65 3,-3.41 5.88,-5.35l5.18 -5.17c4.06,-4.06 8.47,-7.23 13.17,-9.65 0.7,-0.24 2.11,-1.41 4.23,-3.47 2.12,-2.06 4.59,-3.59 7.29,-4.59 2.7,-0.94 5.35,-2.18 7.94,-3.7 2.59,-1.47 4.65,-2.24 6.11,-2.24l1.41 0c0.47,0 3.53,-1.41 9.17,-4.29l1 0c0.47,0 1.59,0.47 3.29,1.35l0.35 0 2.76 -1.35c0.47,-0.24 1.06,-0.35 1.76,-0.35 7.11,0 11.06,4.94 11.76,14.76 0.24,2.06 0.82,3.12 1.71,3.12 1.17,0 2.82,-2.12 4.94,-6.29 2.12,-4.18 6.65,-6.3 13.53,-6.3 4.94,0 7.41,3.18 7.41,9.47 0,7.47 -3.3,14.59 -9.94,21.23 -0.47,0.94 -0.82,1.94 -1.06,3.11l-2.41 7.06 0 0.35c0,0.65 -0.47,1.65 -1.47,2.82 -1,1.24 -1.47,2.3 -1.47,3.18l0.35 4.35 -0.7 4.82c0,2.18 0.41,3.59 1.23,4.29 3.65,-0.94 6.3,-2.47 7.94,-4.59 1.65,-2.11 2.82,-3.29 3.47,-3.53l1.7 -0.7c1.06,-1.7 2.24,-3.12 3.65,-4.3zm-57.22 0.06c0.41,-2.53 1.82,-4.41 4.17,-5.76 2.35,-1.3 3.76,-2.65 4.24,-4.06 2.17,-1.59 5.29,-4.47 9.35,-8.59 4.06,-4.12 6.06,-6.65 6.06,-7.59 0,-0.29 -0.24,-0.47 -0.65,-0.47l-0.35 0 -1.41 0.82 -3.06 -0.35 -3.29 0.35 -2.35 -1.18 -2.23 0.35 -3.47 -0.71c-1.82,0 -3.41,0.35 -4.7,1.12 -1.29,0.76 -3.82,1.59 -7.53,2.47 -3.76,0.94 -7.11,2.53 -10.06,4.76 -3,2.23 -5.17,3.35 -6.53,3.35 -0.82,1.7 -3.47,4.17 -8.06,7.41 -2.76,0.88 -4.53,2.88 -5.35,6 -2.94,2.41 -4.47,3.76 -4.47,4.11l-1.17 2.94c-0.94,0.82 -2.06,1.47 -3.47,2 -1.35,0.47 -2.17,1.7 -2.41,3.59 -0.24,1.88 -1,3.59 -2.3,5.17 -1.35,1.53 -2,2.77 -2,3.71 0,5.59 1.12,8.41 3.3,8.41 0.88,0 2.82,-0.59 5.76,-1.83 2.94,-1.17 4.59,-2 5.06,-2.47 0.47,-0.47 1.35,-0.94 2.76,-1.41l3.24 -1.71c0.47,-0.47 1,-0.7 1.53,-0.82 0.59,-0.12 1.18,-0.53 1.76,-1.11 0.53,-0.65 1.59,-1.35 3.06,-2.12 1.53,-0.7 2.65,-1.7 3.47,-3 1.94,-1.12 5.06,-2.88 9.41,-5.29l3.59 -2.76c2.53,-1.18 4.06,-2.12 4.65,-2.94 0.59,-0.82 1.71,-1.59 3.47,-2.41z"/>
   <path id="13" class="fil4" d="M2893.59 4820.9l0.71 0 1.7 0.65c0.24,0 0.47,-0.12 0.7,-0.35 0,-1.94 0.88,-3.59 2.76,-4.94 0.59,-2.18 1.88,-3.88 3.88,-5 2,-1.18 5.17,-3.06 9.59,-5.7l4.29 -3.76 2.06 -1.06 1.41 -1.71c1.24,-1.47 2.47,-2.23 3.65,-2.23 1.7,0 2.59,0.65 2.59,1.88l-1.59 3.47 0.71 5.65c0,2.06 -0.71,3.94 -2.18,5.53 -1.41,1.59 -3.65,3.94 -6.59,7.06l-8.82 9.3 -4.65 2.41c-1.11,0.7 -2.17,1.47 -3.11,2.41l-6.7 5.7c0,1.59 -0.53,2.76 -1.53,3.59l-2.76 0 -1.41 0.71c-0.76,2.17 -3.12,4.29 -7.06,6.35l-2.41 1.7c-0.76,0.7 -1.53,1.06 -2.23,1.06l-4.82 -0.7 -3.3 0.7c-0.88,0 -2.11,-0.47 -3.7,-1.35 -1.53,-0.94 -3.11,-1.65 -4.7,-2.17 -1.59,-0.53 -3.65,-2.65 -6.11,-6.35 -2.47,-3.76 -3.82,-6.17 -4.06,-7.35 0,-0.47 -0.23,-1.23 -0.76,-2.29 -0.53,-1.12 -0.76,-1.76 -0.76,-2 0,-0.24 0.47,-1.35 1.53,-3.41l0 -0.35c0,-0.35 -0.29,-1.18 -0.94,-2.41 -0.65,-1.3 -0.94,-2.82 -0.94,-4.65 0,-1.06 -0.35,-2.35 -1.06,-4 0.94,-0.88 1.41,-1.59 1.41,-2.06 0,-0.47 -0.18,-1.12 -0.53,-1.94 -0.35,-0.88 -0.53,-1.53 -0.53,-2l1.06 -8.41 -0.7 -4.35 0.35 -4.12c0,-2.41 -1.06,-3.59 -3.11,-3.59 -0.88,0 -2.06,0.59 -3.41,1.88l-1.17 0.35c-3.12,1.47 -5.3,2.7 -6.53,3.7 -1.3,0.94 -2.59,1.47 -3.94,1.47 -0.7,0.65 -2,1.3 -4,1.88l-1.35 1c-0.47,0.47 -1.35,1.18 -2.76,2.06 0,0.35 -2.11,2.29 -6.41,5.76 -4.29,3.53 -8.17,6.82 -11.58,9.94 -3.41,3.06 -5.94,4.76 -7.47,5.06 -1.53,0.29 -2.3,1.76 -2.3,4.41 0,0.41 -1.06,1.35 -3.11,2.76 -0.24,0 -1.41,1.24 -3.59,3.76 -1.82,-1.35 -2.88,-2.06 -3.11,-2.06 -1.47,0 -2.59,1.88 -3.24,5.65 -0.7,1.53 -2.53,2.41 -5.53,2.76 -0.24,0.12 -0.65,1 -1.24,2.59l-0.7 0.71 -1.7 0c-0.24,0 -1.06,0.65 -2.41,1.94 -1.41,1.35 -2.59,2.17 -3.65,2.53 -1.47,3.12 -2.76,4.65 -3.82,4.65 -0.41,0 -1.12,-0.24 -1.94,-0.7 -0.88,-0.47 -1.94,-0.88 -3.24,-1.18 -1.24,-0.35 -2.65,-1.76 -4.17,-4.3 -1.59,-2.47 -2.35,-4.59 -2.35,-6.29 0,-12.88 2.47,-19.87 7.41,-20.99l0.35 -0.71 0 -1.41c0,-1.47 0.65,-2.53 2,-3.18 1.29,-0.65 2.65,-1.94 4,-3.82 1.41,-1.88 2.3,-2.94 2.76,-3.17l2.24 0c0.47,0 0.7,-1.24 0.7,-3.65 0,-0.65 0.3,-1.3 0.88,-1.88 0.53,-0.59 0.88,-1.41 1,-2.47 0.12,-1.11 0.94,-2.88 2.53,-5.35 1.53,-2.47 2.29,-3.94 2.29,-4.41l-0.35 -0.7c-2.82,2.65 -4.94,4.11 -6.17,4.35 -1.24,0.18 -3,1.88 -5.17,5l-2.76 -0.53c-4.82,3.53 -7.82,5.53 -9,6 -1.12,0.47 -2.41,1.82 -3.76,4 0,0.65 -0.41,1.11 -1.23,1.35 -0.83,0.24 -2.3,1.18 -4.53,2.76l-1 0c-2.88,0 -4.35,-2.06 -4.35,-6.17l3.59 -9.82c1.06,-3.06 3.47,-5.7 7.35,-7.82 3.82,-2.12 7.06,-4.12 9.7,-6.12 2.65,-1.94 5.29,-2.94 7.94,-3.06l1.17 -1.7c3.88,-1.53 6.53,-3.88 7.94,-7.06 1.35,-3.24 3.23,-4.82 5.65,-4.82 6.29,0 11.11,2.35 14.46,7.11 3.35,4.7 5,8.41 5,11.17l0.35 4.65c0,1.65 -0.35,3.88 -1.06,6.76 -1.35,2.06 -2.06,3.59 -2.06,4.65 0,0.88 0.59,1.35 1.7,1.35 0.7,0 1.65,-0.47 2.76,-1.47 1.18,-0.94 2.47,-1.82 3.88,-2.65 1.41,-0.82 2.23,-1.47 2.47,-2.06 1.18,-2.76 3.18,-4.65 6.06,-5.7 2.82,-1 4.65,-1.88 5.29,-2.59l1.76 -1.35 1.35 -2.59c3.11,-1.41 5.17,-2.65 6.17,-3.82 1.06,-1.12 2.41,-1.88 4.18,-2.24 1.7,-0.35 3.65,-1.35 5.82,-3.06l2.59 -0.7 2.41 -1.41c0.24,-0.24 0.88,-0.47 2.06,-0.83 1.12,-0.35 2.82,-0.94 5.06,-1.82 2.24,-0.88 3.76,-1.29 4.59,-1.29 5.82,0 10.46,2.35 13.82,7.06 3.41,4.7 5.11,8.47 5.11,11.35l-0.35 3.12 0.65 4.65 0 0.7 -1.35 9.47 0.35 3.23c0,5.41 -1.18,9.12 -3.47,11.23 -0.59,0.18 -0.82,0.76 -0.82,1.7l0 1.53 3.41 7.23c1.06,2.53 1.82,3.76 2.41,3.76l5.53 -1.53c1.65,-0.47 2.94,-1.65 4,-3.59 0.94,-0.47 2.53,-1.88 4.82,-4.18 0.7,-1.82 1.76,-2.7 3.29,-2.7z"/>
   <path id="14" class="fil4" d="M2939.75 4804.78l0 -1.76c0,-1.12 1.18,-3.59 3.47,-7.41 2.3,-3.76 4.88,-6.23 7.88,-7.41 0.24,0 0.35,-0.06 0.35,-0.3l-0.35 -2.76c0.47,-0.47 1.59,-1.94 3.47,-4.47 1.82,-2.53 3.59,-3.65 5.3,-3.29 1.29,-1.83 2.88,-3.35 4.82,-4.59 1.94,-1.17 3.76,-2.76 5.35,-4.7l6.35 -4c4.47,-2.94 7.76,-4.47 9.82,-4.47l2.59 0c1.35,-2.3 3.17,-3.41 5.47,-3.41 2.17,0 3.65,0.35 4.29,1 0.24,0.24 0.47,0.35 0.7,0.35 0.12,0 0.83,-0.47 2.06,-1.35 1.3,-0.94 2.82,-1.41 4.65,-1.41 0.47,0 3.06,0.94 7.76,2.76 1.35,-1.35 2.7,-2.06 3.94,-2.06 0.47,0 1.29,0.35 2.41,1.06 1.18,0.7 2.35,1.29 3.53,1.82 1.24,0.53 2.41,2.65 3.53,6.41 1.17,3.76 1.7,5.88 1.7,6.29 0,1.88 -1.47,4.06 -4.53,6.53 -3.06,2.47 -5.88,3.7 -8.53,3.7 -0.88,0 -2.06,-0.82 -3.41,-2.41 -3.47,-0.7 -6.41,-1.53 -8.76,-2.59 -3.24,0.7 -5.7,1.53 -7.41,2.59l-0.35 0 -1.53 -1.41 -1.41 -0.29 -0.35 0c-0.3,0.41 -0.77,1.23 -1.35,2.41 -1.82,1.24 -3.41,2.06 -4.7,2.47 -1.35,0.41 -2.41,1.06 -3.23,1.88 -0.77,0.89 -2.12,1.77 -4,2.71 -1.88,0.88 -3.3,2.17 -4.24,3.76 -2.29,1.23 -3.94,2 -5,2.23l-1 0c-0.94,1.82 -3.06,4.88 -6.35,9.11l-4.47 7.41c-1.06,0.88 -2.29,1.94 -3.82,3.18 -1.47,1.18 -2.24,2.24 -2.24,3.18 0,0.23 0.12,0.82 0.35,1.7l0 1.76c0,0.65 -0.53,1.47 -1.65,2.47 -1.06,1 -1.65,1.7 -1.65,2.18l0.35 3.76 -1.35 6c0,3.59 2.59,5.35 7.76,5.35l2.53 0 7.41 -1.24c2.41,-0.3 4.47,-0.65 6.06,-1 1.59,-0.35 2.53,-0.53 2.76,-0.53 0.23,0 1.12,-0.65 2.76,-1.88l1.7 0 1.53 -0.35c0.47,-2.41 3.76,-4.41 9.82,-6.06 1.41,-2.06 3.7,-3.53 7,-4.53 3.3,-1 6.59,-3.06 9.94,-6.29l2.59 0c0.3,0 1.41,-0.65 3.17,-2 1.77,-1.29 3.59,-2.35 5.53,-3.17 1.88,-0.82 3.06,-1.47 3.53,-2.06 0.41,-0.59 1.29,-1.12 2.59,-1.53 2.06,-3.24 4.53,-5.24 7.41,-6.06l0.65 -0.7c1.88,-1.59 3,-2.41 3.47,-2.41l2.06 0.35c1.18,0 1.88,-0.7 2.18,-2.12 0.3,-1.47 2.12,-3.41 5.47,-5.88 3.41,-2.47 5.59,-3.7 6.47,-3.7 2.18,0 3.3,1.11 3.3,3.41 0,1.76 -1,2.7 -2.94,2.94 1.3,3 1.88,4.65 1.88,5 0,3.76 -1.88,6.24 -5.65,7.41 -0.47,0.24 -0.7,0.59 -0.7,1l-0.35 3.12c0.12,0 0.12,0.12 0,0.3 -0.12,0.12 -0.35,0.41 -0.7,0.76l-2.53 0.35 -0.71 1c-2.53,1.41 -5.47,3.76 -8.82,7.06l-3.41 3.65 -0.53 0c-1.18,-1.18 -2.06,-1.76 -2.76,-1.76 -0.47,0 -1.06,0.82 -1.7,2.41 -3.94,3.94 -6.76,6.18 -8.47,6.7 -0.7,0.24 -1.88,1.18 -3.59,2.76l-3.47 2.24 -2.59 0c-0.35,0.35 -0.65,0.82 -0.94,1.47 -0.3,0.65 -1.29,1.59 -3,2.82 -1.76,1.3 -3,2.41 -3.7,3.35 -0.76,1 -1.82,1.7 -3.23,2.17l-3.06 -0.7c-1.06,1.88 -2.94,2.76 -5.7,2.76 -0.7,0.47 -1.7,1.35 -3,2.65 -1.35,1.35 -2.23,2 -2.7,2 -0.41,0 -1.65,-0.7 -3.59,-2.06l-0.35 0c-1.18,0 -1.71,0.88 -1.71,2.59 0,1.7 -1.06,2.65 -3.23,2.76 -2.12,0.11 -4.06,0.65 -5.94,1.7l-0.35 0c-2.59,0 -4.53,-0.47 -5.65,-1.47 -1.18,-0.94 -2.18,-1.7 -3.12,-2.17 -3.59,1.17 -5.47,1.76 -5.7,1.76 -1.35,0 -2.7,-0.59 -3.94,-1.76l-7.41 -3.76c-0.47,-0.35 -1.29,-1.88 -2.41,-4.65l-1.06 -1.35c-3.65,-0.7 -6.12,-4.53 -7.41,-11.41l-1.35 -4.11c-0.23,-0.24 -0.35,-0.76 -0.35,-1.53 0,-1.17 0.47,-2.94 1.35,-5.29 0.94,-2.35 1.88,-5.47 2.76,-9.47 0.94,-3.94 2.82,-6.47 5.7,-7.47z"/>
   <path id="15" class="fil4" d="M3117.59 4708.81l-1.06 -6.7 0 -1.06c0,-5.35 1.82,-8.35 5.53,-8.94 0.76,-0.12 3.24,-0.88 7.23,-2.24 2.06,0.47 4.24,2.3 6.47,5.41 2.23,3.18 3.35,5.94 3.35,8.35 0,0.23 -0.18,0.76 -0.53,1.53 -0.35,0.82 -0.59,2.35 -0.71,4.59 -0.06,2.24 -1.23,4.18 -3.35,5.88 -2.12,1.65 -4.35,2.47 -6.76,2.47 -1.65,0 -3.65,-1.12 -6.17,-3.35 -2.47,-2.24 -3.76,-4.24 -4,-5.94zm-74.45 86.21l2.76 -2.41 1.06 0c0.82,0 2,-0.88 3.65,-2.59l1.7 -0.7c2.35,-3.41 4.35,-5.41 6.11,-6l2.76 -2.06c0.47,-0.47 1.12,-0.88 2,-1.23 0.88,-0.35 2.24,-1.47 4.18,-3.35 1.88,-1.88 3.47,-2.82 4.59,-2.82 1.18,0 2.12,0.12 2.82,0.35 0.65,-1.41 2.06,-2.76 4.11,-4.06 2.12,-1.35 3.82,-2.94 5.06,-4.76l2.3 -1c1.82,-0.94 3.47,-2.11 4.94,-3.53 1.41,-1.47 3.3,-2.17 5.65,-2.17 3.35,0 6.82,1.7 10.47,5.06 3.59,3.41 5.41,6.65 5.41,9.76l-2.94 13.46c-1.94,9.88 -4.11,15.06 -6.53,15.53l-0.7 3.59c-1.59,1.18 -2.41,2.12 -2.41,2.76l1.06 4.17c0,0.53 -0.65,1.41 -1.88,2.59 -0.24,0 -0.35,0.35 -0.35,1l0 7.06c0,1.3 -0.82,2.35 -2.41,3.12 0.23,0.23 0.59,0.47 1,0.7 0.71,-0.7 2.24,-1.06 4.65,-1.06l2.76 0.35 3.76 -3.76c0.76,-0.24 1.88,-0.77 3.29,-1.65 1.41,-0.88 3.82,-2 7.23,-3.35l22.35 -17.29c3.06,-3.12 5.41,-4.65 7,-4.65 1.7,0 2.53,1.12 2.53,3.3 0,2.53 -0.47,4.59 -1.47,6.29 -0.94,1.65 -1.88,3.65 -2.65,6 -0.82,2.35 -1.76,4 -2.82,4.88 -1.12,0.94 -2,1.94 -2.71,3.06 -0.65,1.06 -2.53,2.65 -5.59,4.7 -3,2.06 -5.59,4.18 -7.7,6.3 -2.12,2.11 -3.88,3.65 -5.3,4.59l-7.35 5.29 -1.06 1.76c-0.23,0.24 -1.29,0.7 -3.17,1.47 -1.88,0.71 -3.59,1.65 -5.06,2.82l-3.12 1.71c-0.65,0.47 -1.82,0.76 -3.35,0.88 -1.53,0.12 -2.88,0.76 -4.06,2 -1.11,1.17 -2.06,1.76 -2.7,1.76l-2.59 -0.35 -3.47 1.06c-1.94,0 -4.3,-1.18 -7.12,-3.53 -2.82,-2.35 -4.23,-4.88 -4.23,-7.53l0 -1 0.35 -2.41c0,-0.47 -0.35,-1.65 -1.06,-3.53 -0.65,-1.94 -1,-3 -1,-3.23l0.35 -2.41 -0.35 -1c0,-3.11 0.24,-5.06 0.7,-5.88 0.41,-0.83 0.76,-1.94 1,-3.35 0.24,-1.47 0.47,-2.65 0.7,-3.53l0.82 -4.35c0.47,-1.35 1.06,-2.3 1.76,-2.7 0.24,-0.94 0.65,-2.47 1.35,-4.7l0.7 -3.06 1.7 -2.41c0.94,-0.94 1.47,-2.17 1.65,-3.7 0.17,-1.59 0.76,-3.23 1.82,-4.94 1,-1.71 1.53,-2.76 1.53,-3.12 0,-1.35 -0.65,-2.06 -2.06,-2.06 -0.47,0 -1.88,0.94 -4.29,2.76l-3.12 -1.06c-0.24,0 -0.88,0.59 -1.88,1.76 0,0.47 -0.53,0.77 -1.59,1 -1.06,0.24 -2,1.12 -2.94,2.59l-1.35 0.35 -2.3 -1 -0.65 0c-1.18,0 -1.88,1.24 -2.12,3.76 -1.24,1.88 -2.88,3.06 -5,3.65l-3.76 1c-1.29,0.47 -2.17,1.53 -2.76,3.12 -0.59,1.65 -1.76,3.12 -3.47,4.41 -1.7,1.35 -2.88,2 -3.47,2 -3.24,0 -4.82,-1.76 -4.82,-5.35l1.41 -8.06 -0.35 -1.06z"/>
   <path id="16" class="fil4" d="M3281.19 4810.13l2.71 -2.41c1.7,0 2.76,-0.76 3.06,-2.35 0.35,-1.53 1.59,-2.77 3.7,-3.7 2.12,-0.89 4.06,-2.77 5.88,-5.59 1.82,-2.82 3.7,-4.23 5.65,-4.23 0.7,0 1.47,0.59 2.41,1.7 0.88,1.18 1.35,2.06 1.35,2.76 0,3.82 -1.18,7.7 -3.47,11.7l-0.65 4.82 -1.23 2.29c-1.71,0.88 -2.82,1.88 -3.35,2.88 -0.53,1.06 -1.88,2.3 -4.06,3.82l-1.71 2.41c-2.53,0.82 -4.23,2.12 -5.06,3.94 -0.88,1.88 -2.06,2.88 -3.65,3.12 -1.53,0.24 -3.24,1.35 -5.06,3.47 -1.18,0.53 -2.53,1.06 -4.11,1.53l-0.35 1.71c-1.18,1.17 -3,2.06 -5.47,2.76 -2.41,0.7 -4.3,1.35 -5.47,2 -1.24,0.65 -2.06,0.94 -2.53,0.94 -2.17,0 -4.17,-0.41 -6,-1.29 -1.82,-0.88 -3.76,-1.41 -5.7,-1.65 -0.65,-0.65 -1.06,-1.41 -1.18,-2.24 -0.12,-0.76 -0.7,-1.82 -1.76,-3.18 -1,-1.29 -1.53,-3.11 -1.53,-5.41l0.7 -3.29c0,-0.41 -0.3,-1 -0.88,-1.7 -0.59,-0.65 -0.88,-1.24 -0.88,-1.71 0,-0.47 0.12,-0.82 0.35,-1.06 0.24,-0.18 0.35,-0.53 0.35,-1 0,-0.59 -0.12,-1.24 -0.35,-1.88 -0.23,-0.71 -0.35,-1.3 -0.35,-1.71l1.06 -8.46c0,-0.71 -0.24,-1 -0.71,-1 -0.41,0 -1.29,0.53 -2.47,1.7 -1.24,1.17 -2.65,1.7 -4.23,1.7 -0.94,0.7 -1.65,2.18 -2.24,4.35 -0.94,1.12 -2.06,2.18 -3.47,3.12l-0.7 1c-0.24,0.82 -1.06,1.47 -2.59,2 -1.47,0.53 -2.53,1.17 -3.06,2l-1.77 1.7 -3.29 -0.35c-0.18,0.24 -0.82,1.24 -1.88,3 -1,1.82 -2.35,3.29 -3.94,4.41l-13.11 10.7c-1.41,0.94 -3.41,2.06 -6.06,3.47l-1.06 1c-9.17,6.11 -15.7,9.17 -19.46,9.17 -3.12,0 -6.76,-0.88 -10.88,-2.59 -4.11,-1.7 -6.35,-3.76 -6.7,-6.23l-1.77 -7.06c-1,-1.59 -1.53,-3.82 -1.53,-6.7 0,-1.41 0.12,-2.29 0.35,-2.76l0 -1.06 -0.35 -5.65c0,-1.41 1.12,-2.11 3.3,-2.11l-0.35 -4.65c0,-0.47 1,-2.24 3,-5.41 2,-3.17 3.35,-5 4.06,-5.47l1.71 -2.23c-0.12,-1.35 0.7,-2.82 2.41,-4.41 1.76,-1.53 3.12,-3.11 4.18,-4.7 1.06,-1.65 3,-3.41 5.88,-5.35l5.18 -5.17c4.06,-4.06 8.47,-7.23 13.17,-9.65 0.7,-0.24 2.11,-1.41 4.23,-3.47 2.12,-2.06 4.59,-3.59 7.29,-4.59 2.7,-0.94 5.35,-2.18 7.94,-3.7 2.59,-1.47 4.65,-2.24 6.11,-2.24l1.41 0c0.47,0 3.53,-1.41 9.17,-4.29l1 0c0.47,0 1.59,0.47 3.29,1.35l0.35 0 2.76 -1.35c0.47,-0.24 1.06,-0.35 1.76,-0.35 7.11,0 11.06,4.94 11.76,14.76 0.24,2.06 0.82,3.12 1.71,3.12 1.17,0 2.82,-2.12 4.94,-6.29 2.12,-4.18 6.65,-6.3 13.53,-6.3 4.94,0 7.41,3.18 7.41,9.47 0,7.47 -3.3,14.59 -9.94,21.23 -0.47,0.94 -0.82,1.94 -1.06,3.11l-2.41 7.06 0 0.35c0,0.65 -0.47,1.65 -1.47,2.82 -1,1.24 -1.47,2.3 -1.47,3.18l0.35 4.35 -0.7 4.82c0,2.18 0.41,3.59 1.23,4.29 3.65,-0.94 6.3,-2.47 7.94,-4.59 1.65,-2.11 2.82,-3.29 3.47,-3.53l1.7 -0.7c1.06,-1.7 2.24,-3.12 3.65,-4.3zm-57.22 0.06c0.41,-2.53 1.82,-4.41 4.17,-5.76 2.35,-1.3 3.76,-2.65 4.24,-4.06 2.17,-1.59 5.29,-4.47 9.35,-8.59 4.06,-4.12 6.06,-6.65 6.06,-7.59 0,-0.29 -0.24,-0.47 -0.65,-0.47l-0.35 0 -1.41 0.82 -3.06 -0.35 -3.29 0.35 -2.35 -1.18 -2.23 0.35 -3.47 -0.71c-1.82,0 -3.41,0.35 -4.7,1.12 -1.29,0.76 -3.82,1.59 -7.53,2.47 -3.76,0.94 -7.11,2.53 -10.06,4.76 -3,2.23 -5.17,3.35 -6.53,3.35 -0.82,1.7 -3.47,4.17 -8.06,7.41 -2.76,0.88 -4.53,2.88 -5.35,6 -2.94,2.41 -4.47,3.76 -4.47,4.11l-1.17 2.94c-0.94,0.82 -2.06,1.47 -3.47,2 -1.35,0.47 -2.17,1.7 -2.41,3.59 -0.24,1.88 -1,3.59 -2.3,5.17 -1.35,1.53 -2,2.77 -2,3.71 0,5.59 1.12,8.41 3.3,8.41 0.88,0 2.82,-0.59 5.76,-1.83 2.94,-1.17 4.59,-2 5.06,-2.47 0.47,-0.47 1.35,-0.94 2.76,-1.41l3.24 -1.71c0.47,-0.47 1,-0.7 1.53,-0.82 0.59,-0.12 1.18,-0.53 1.76,-1.11 0.53,-0.65 1.59,-1.35 3.06,-2.12 1.53,-0.7 2.65,-1.7 3.47,-3 1.94,-1.12 5.06,-2.88 9.41,-5.29l3.59 -2.76c2.53,-1.18 4.06,-2.12 4.65,-2.94 0.59,-0.82 1.71,-1.59 3.47,-2.41z"/>
   <path id="17" class="fil4" d="M3318.12 4813.78l0 -1.24c0,-1.59 0.12,-2.82 0.35,-3.76 -0.7,-1.82 -1.06,-3.53 -1.06,-5 0,-0.24 0.59,-1.82 1.77,-4.82l1.53 -5.35c0.82,-2.06 1.24,-3.17 1.35,-3.29 -0.65,-1.82 -1,-2.82 -1,-3.06 0,-2.65 0.7,-4.82 2.23,-6.59 1.47,-1.7 2.7,-4.12 3.76,-7.23l3.41 -10.47 5.7 -13.82c0.12,-0.35 0.65,-1.24 1.59,-2.76 1,-1.47 1.82,-2.76 2.41,-3.82 0.65,-1.12 1.53,-2.7 2.7,-4.76l1.7 -0.35c0.47,-0.47 0.71,-0.88 0.71,-1.35 0,-0.24 -0.24,-1.18 -0.71,-2.76l6.06 -10 3.59 -7.41c1.18,-1.94 2.41,-3.23 3.82,-3.82 2.29,-4.23 4.29,-6.82 6,-7.7 0.7,-2.18 1.94,-4.59 3.82,-7.12l3.24 -0.29c0.59,-1.65 1.18,-2.82 1.7,-3.65l0.35 -3.41c0,0.65 0.29,0.47 0.88,-0.65 0.59,-1.06 1.41,-3.12 2.59,-6.12l4.65 -5.35 1.35 -2.41c0.59,-0.76 1.53,-2.35 2.76,-4.65 1.76,-0.65 3.17,-1.94 4.35,-3.76l3.59 -2.94c-0.24,-1.24 1.18,-4.06 4.12,-8.41 2,-0.82 3.76,-1.88 5.35,-3.12l2.41 -0.7c0,-4 1.47,-6.76 4.3,-8.29l2.12 -1.35c1.82,-0.94 2.82,-1.35 3.06,-1.35l1.24 -0.35c1.35,-0.47 3,-0.7 4.82,-0.7 4.23,0 8.11,1.59 11.52,4.76 3.47,3.12 5.18,6.7 5.18,10.76 0,1.59 -0.88,3.24 -2.59,5l-0.71 1.35c-1.59,6.29 -2.7,9.46 -3.41,9.46 -0.47,0 -1.12,0.35 -1.88,1.06 -0.24,3.76 -0.47,5.88 -0.7,6.35 -2.06,0.35 -3.12,2.94 -3.12,7.76 -0.24,0.7 -1.06,1.88 -2.47,3.53 -1.47,1.65 -2.59,3.94 -3.35,6.88 -0.82,2.94 -1.7,4.41 -2.59,4.41l-1.94 0 0.53 2.59c0,1.59 -0.76,3.18 -2.3,4.7 -1.59,1.59 -2.53,3.18 -2.88,4.94 -0.35,1.7 -1.7,3.76 -4.11,6.18l-1.71 2.76c-0.7,1.17 -1.65,2.35 -2.76,3.65 -1.17,1.23 -2.11,3.17 -2.94,5.82l-4.47 8.3c-3.11,5.64 -5.47,8.29 -7.06,8.06 -1.06,4.53 -1.76,7.11 -2.06,7.76 -0.35,0.7 -1.18,1.35 -2.41,1.94 -1.3,0.53 -2.3,1.53 -2.94,3 -0.7,1.41 -1.47,2.47 -2.24,3.18l-3.11 6.35c-1.82,0.82 -3.18,2.3 -4,4.47 -1.82,0.47 -2.94,2.06 -3.41,4.7 -0.47,0.41 -1.06,1.47 -1.71,3.06l-6.06 6.06c-3.12,2.18 -4.76,4.65 -5,7.47 -0.24,2.82 -1.7,4.24 -4.47,4.24 -1.94,0 -4.82,-0.88 -8.65,-2.59l-0.29 0c-0.35,1.59 -1.18,3.41 -2.41,5.35l0.65 4.65c0,0.59 -0.88,4.18 -2.76,10.88 0.94,1.71 1.41,2.88 1.41,3.59l-0.35 3.76 0.88 4.7c0.53,3.76 1.94,5.65 4.12,5.65l4.12 0.71c0.23,0 1.65,-0.88 4.29,-2.59l6.35 -3.47c0.24,0 0.35,0.12 0.35,0.35 1.18,0.47 2.06,0.7 2.76,0.7 1.12,0 1.7,-0.94 1.7,-2.76l0 -2.24c0.7,-1.11 1.53,-1.82 2.47,-2.06 1,-0.24 1.88,-0.77 2.7,-1.53 0.77,-0.82 1.41,-1.23 1.88,-1.23l1.71 0c1.7,0 2.59,-2 2.59,-6 0.47,-0.24 1.06,-0.7 1.7,-1.41l2.06 0c0.94,0 1.94,-1.11 3,-3.35 1.11,-2.24 1.88,-3.59 2.35,-4.06 2.06,-0.23 3.47,-0.59 4.29,-1 3.65,-6.7 6.47,-10 8.41,-10l1.06 0c1.94,-1.88 3,-3.47 3.18,-4.94 0.18,-1.41 0.7,-2.35 1.7,-2.82 0.94,-0.47 1.88,-1.06 2.65,-1.7 0.82,-0.7 1.35,-1.06 1.59,-1.06 1.7,0 2.53,0.65 2.53,1.88l-0.47 4.82 1.18 5.18c0,0.47 -0.47,1.35 -1.47,2.7 -0.94,1.29 -1.47,2.76 -1.47,4.35 0,3.35 -0.53,5.12 -1.7,5.35 -1.12,0.24 -2.06,1 -2.82,2.35 -0.76,1.3 -2,2.53 -3.7,3.59 -1.7,1.12 -3.06,2.7 -3.94,4.76l-2.94 0.7 -1.7 1c-1.35,3.59 -2.82,5.76 -4.35,6.59 -1.59,0.76 -3.47,3.18 -5.76,7.23 -0.35,0 -0.53,0.12 -0.53,0.35l-2.76 -0.35c-1,1.82 -2.06,2.88 -3.06,3.24 -1.06,0.35 -1.94,1 -2.59,2 -0.71,1 -1.94,1.82 -3.7,2.53 -1.76,0.65 -2.88,1.47 -3.35,2.41 -0.47,0.88 -1.18,1.41 -2.06,1.53 -0.94,0.12 -1.76,0.53 -2.59,1.29 -0.82,0.77 -1.47,1.12 -2.06,1.12 -0.23,0 -1.06,-0.12 -2.41,-0.35l-0.7 0c-1.94,1.41 -3.53,2.06 -4.76,2.06 -1.53,0 -2.59,0.24 -3.3,0.71 -0.7,-0.47 -1.76,-0.82 -3.17,-1.06 -1.41,-0.18 -3.06,-0.76 -4.88,-1.7 -1.94,0.47 -3.18,0.7 -3.65,0.7 -1.94,0 -4.41,-1.94 -7.35,-5.76 -3,-3.88 -4.47,-7.65 -4.47,-11.29 0,-0.12 -0.65,-1 -2,-2.7 -1.3,-1.65 -2,-3.47 -2,-5.41l0 -1.7 0.35 -2.06 0 -3.3 0.35 -1.06c1.7,-0.23 2.59,-0.41 2.59,-0.65l-2.23 -3.11zm34.93 -45.64l3.59 -2.06c0.47,-1.88 2,-4.06 4.53,-6.65 2.53,-2.59 4.29,-3.88 5.29,-3.88l1.41 0c0,-0.82 0.18,-1.59 0.53,-2.41 0.3,-0.82 0.47,-1.88 0.47,-3.29 0,-0.65 1.59,-2.59 4.7,-5.65l1.35 -3.12c1.06,-3 3.59,-5.47 7.76,-7.41 1.59,-3.29 2.82,-5 3.59,-5l1.41 -0.3c0.47,-1.76 1.35,-3.29 2.76,-4.65l0.65 -1.06 0 -2.76c0,-0.24 0.82,-1.18 2.35,-2.82 1.53,-1.65 2.65,-3.23 3.35,-4.65 0.71,-1.47 1.65,-2.59 2.82,-3.35 1.24,-0.82 2.06,-2.24 2.53,-4.3l2.76 -0.35c0,-1.53 0.12,-2.47 0.35,-2.94l0.35 -1.7c0.53,-1.41 2.53,-5 6,-10.88l2.76 -6.35c0,-0.7 0.47,-1.53 1.47,-2.47 0.94,-1 1.47,-2.41 1.47,-4.24l1.35 -5.7c0,-2.65 -0.47,-3.94 -1.35,-3.94 -1.17,0.82 -2.23,1.35 -3.23,1.7 -0.94,0.35 -1.88,2.41 -2.82,6.23 -3.41,0.76 -5.41,2.41 -5.94,4.88 -0.53,2.47 -1.94,4.59 -4.23,6.29l-1.18 2.06c-0.24,1.24 -1.35,2.59 -3.29,3.94 -1.94,1.41 -3.76,3.76 -5.53,7.06 -5.7,7.94 -8.88,12.17 -9.47,12.76l-1.7 2.06 -2.59 -0.35c0.47,1.82 0.71,2.88 0.71,3.11 0,0.71 -0.35,1.35 -1.06,2 -0.71,0.59 -1.18,1.35 -1.53,2.3 -0.35,0.94 -1.06,2 -2.06,3.17 -1.06,1.24 -2,3.18 -2.88,5.88 -0.83,2.65 -1.65,4.23 -2.3,4.7l-2.41 -0.35c-1.53,0.94 -2.24,1.88 -2.24,2.76l0.47 2.41c0,0.47 -0.3,1 -0.94,1.65 -0.59,0.65 -1.24,1.88 -1.77,3.7 -0.59,1.82 -2.06,4.59 -4.35,8.35 -2.29,3.7 -4.12,7.7 -5.41,11.88 -1.3,4.18 -2.59,6.82 -3.88,8 0.24,0.24 0.59,0.35 1.06,0.35 1.47,0 2.88,-1.59 4.29,-4.65z"/>
   <path id="18" class="fil4" d="M3474.61 4958.98l-2.76 1.88c-1.12,0.7 -2.35,1.06 -3.59,1.06 -2.88,0 -5.65,-1.88 -8.35,-5.7 -2.71,-3.76 -4.06,-7.7 -4.06,-11.7 0,-7.23 0.7,-12.35 2.18,-15.41 1.41,-3.06 2.23,-5.35 2.47,-6.82 0,-0.12 1.24,-2.94 3.7,-8.53 2.47,-5.59 4.82,-9.82 7,-12.64 2.18,-2.88 4,-5.59 5.47,-8.11l0.7 -1.41c1.76,-2.7 3.41,-4.65 5,-5.65 0,-0.7 2.23,-3.11 6.64,-7.17 4.41,-4.06 8.59,-7.53 12.47,-10.41l1.76 -2.41c2.76,-1.76 4.35,-2.59 4.82,-2.59l10 -2.76c0.88,-0.94 3.12,-2.7 6.7,-5.35l1.35 0 4.65 -1.35c2.53,-1.18 6.47,-2.24 11.82,-3.24 5.29,-0.94 8.29,-2.12 9.06,-3.41 0.71,-1.35 1.3,-2.59 1.82,-3.7 0.47,-1.18 1.71,-3.59 3.7,-7.24 0.47,-1.94 0.88,-3.53 1.24,-4.65 0.35,-1.17 0.7,-1.88 1.12,-2.06 0.41,-0.24 1.06,-1.35 1.94,-3.41 0.94,-2 1.88,-3.7 2.76,-5.06 0.24,0 0.35,-0.12 0.35,-0.35l-1 -2.94c0.88,-2.76 1.82,-4.41 2.82,-5.06 1,-0.65 1.47,-1.06 1.47,-1.3l-1.24 -3.12 2.94 -6.35c0,-0.47 -0.24,-0.7 -0.7,-0.7 -6.06,4.23 -9.65,6.35 -10.65,6.35 -0.59,0.82 -1.82,2.24 -3.76,4.18 -2,0.7 -3.29,1.88 -4,3.59l-1.35 0.35 -1 1.76c0,0.24 -0.41,0.47 -1.24,0.83 -0.82,0.35 -2.41,1.29 -4.82,2.76l-2.06 -0.35c-0.47,0 -1,1.18 -1.7,3.47 -1.94,2.3 -3.82,3.7 -5.59,4.24 -1.77,0.53 -2.88,1.12 -3.35,1.82l-1.35 1.7 -1.71 -0.35c-2.41,0 -3.65,0.94 -3.65,2.76 0,1.06 -0.65,2.24 -2.06,3.65 -0.89,0 -2.06,0.29 -3.41,1l-2.59 0c-1.12,2.53 -3.18,4.12 -6.17,4.65l-5 3.47 -2.88 1.06c-1.41,0.65 -2.76,1.53 -4.12,2.47 -1.41,1 -3.7,1.59 -7.06,1.82 -1.59,-0.94 -4.06,-1.82 -7.41,-2.65 -3.3,-0.88 -5.65,-6.47 -7.06,-16.82l-0.35 0c-0.88,0 -1.88,0.35 -3,1.06 -1.06,0.65 -1.88,1 -2.29,1 -2.76,0 -4.18,-1.12 -4.18,-3.41 0,-5.17 1.94,-8.58 5.88,-10.17l4.29 -5.35 11.06 -10.82c7.7,-7.7 12.88,-12.65 15.53,-14.82 2.65,-2.17 5.53,-4.29 8.58,-6.35l8.82 -5.88c3,-1.94 4.82,-3 5.53,-3.18 0.7,-0.18 1.41,-0.53 2.18,-1.12 0.7,-0.59 2.82,-1.47 6.29,-2.59l3.12 -1.41c6.41,-2.17 10.58,-3.23 12.41,-3.23l2.41 0.35c1.23,0 2.47,-0.47 3.65,-1.41 1.59,0 4.06,-1.24 7.41,-3.76l6.17 -1.7c1.76,-0.59 3.18,-0.88 4.35,-0.88l3.23 0c2.41,0 4,1.88 4.76,5.65 0.76,3.76 1.41,5.7 2,5.7 0.24,0 0.88,-0.88 2.06,-2.59l2.41 -1.76c1.7,-1.11 2.82,-1.7 3.24,-1.7 2.76,0 4.53,1.18 5.17,3.47l0 0.3 0.7 0.88c1.06,5.53 1.53,8.88 1.53,10.17 0,5.53 -1.18,9.82 -3.53,12.94 -2.35,3.06 -3.76,5.24 -4.18,6.53 -2.3,9.29 -4.59,16.29 -6.94,21 -0.53,1.3 -1.94,4.59 -4.11,10l-1.7 1.7c-0.47,0.24 -0.71,0.59 -0.71,1.06l0.35 2.41c-1.94,3.11 -2.94,5.59 -2.94,7.41 0,1.06 -0.88,3.17 -2.76,6.35 0.24,0.24 1.24,0.88 3.06,1.82 1.76,1 3.76,2.82 6,5.53 2.24,2.7 3.35,4.7 3.35,6.11 0,0.35 -0.59,2.59 -1.88,6.7 -4.12,3.12 -7.65,4.65 -10.53,4.65 -1.12,0 -2.82,-0.76 -5,-2.23l-1.06 0.35 0 -0.7c-1.47,-0.35 -2.65,-0.76 -3.53,-1.3 -0.88,-0.47 -1.7,-0.76 -2.53,-0.76 -0.88,0 -1.35,0.47 -1.35,1.41 0,0.41 0.11,0.88 0.35,1.35 -0.7,0.59 -1.65,1.41 -2.76,2.59 0,0.35 -0.82,2.06 -2.41,5.06 -1.65,3.06 -3.06,5.12 -4.35,6.12 -2.53,0.11 -4.23,2.06 -5.17,5.7 -0.88,3.65 -2,6 -3.24,7.06l-1.76 -0.7c-3.88,7.82 -7.82,13.46 -11.7,16.94 -2.41,0.53 -3.65,1 -3.7,1.23 -0.06,0.3 -0.18,1.06 -0.35,2.24 -0.18,1.24 -1.53,3.11 -4.11,5.7 -2.59,2.59 -4.12,3.88 -4.59,3.88l-1.71 0.35 -1.06 1.06c0.11,2.3 -2.88,5.94 -9.12,11 -3.35,1.82 -5.11,3.12 -5.35,3.76 -0.88,2.24 -4.29,4.76 -10.17,7.76l-3.24 2.94c-1.53,1.35 -3,2.35 -4.47,2.94l-4.35 1.53zm59.33 -143.55l2.06 -2.88c0.7,-0.94 1.88,-1.65 3.53,-2.12 1.65,-0.41 3,-1.41 4.06,-2.88 2.76,-3.94 6,-6.82 9.82,-8.65l1.71 -1.17c1.7,-3.35 3.29,-5.18 4.65,-5.47 1.41,-0.3 2.59,-1.3 3.65,-3.12 1,-1.76 1.53,-3.24 1.53,-4.35 0,-0.47 -0.35,-0.71 -1.06,-0.71 -1.59,0 -3,0.47 -4.17,1.35 -1.24,0.94 -2.06,1.41 -2.53,1.41l-3.41 -0.35c-2.12,1.17 -4.94,2.53 -8.65,4.11l-3.11 2.59c-1.35,0.94 -2.59,1.53 -3.7,1.76 -1.06,0.23 -1.88,0.94 -2.47,2.11 -0.59,1.24 -1.35,1.82 -2.23,1.82l-1.41 0.71c-0.41,0.47 -1.76,0.7 -3.94,0.7 -1.17,0.65 -2.35,1.65 -3.53,2.88 -1.24,1.29 -1.94,1.94 -2.18,1.94 -2.65,2.82 -4.88,4.65 -6.76,5.29 -1.94,0.7 -3.18,1.7 -3.7,2.94 -2.24,0.59 -4.06,1.88 -5.53,3.88 -1.53,2 -2.88,3.41 -4.06,4.17 -1.24,0.71 -2.3,1.65 -3.18,2.82l-1.7 1.35c-0.7,0.47 -1.65,2 -2.88,4.59 -1.17,2.59 -1.82,4.41 -1.82,5.41 0,0.7 0.41,1.06 1.24,1.06 1.12,0 3.29,-0.82 6.47,-2.53 3.12,-1.65 5.17,-2.94 6.11,-3.82 0.88,-0.94 1.53,-1.41 1.88,-1.41l6.53 0.35c0.71,-1.47 1.88,-2.47 3.53,-2.94 1.7,-0.47 3,-1.41 3.88,-2.94 0.94,-1.47 3.53,-3.06 7.76,-4.82l1.88 -3.11 1.76 0zm2.76 54.98l-5.17 0.7c-1.24,-0.94 -2.24,-1.41 -2.88,-1.41 -0.47,0 -0.82,0.35 -1.06,1.06 -1.35,1.83 -4.41,3.35 -9.11,4.65 -4.7,1.23 -7.94,2.53 -9.59,3.88 -1.65,1.3 -3.06,2 -4.23,2.12 -1.12,0.12 -1.71,0.35 -1.71,0.7 -1.17,0.94 -2,1.7 -2.59,2.41 -1.12,0.47 -2.29,1.17 -3.47,2.17 -1.12,0.94 -2.35,1.59 -3.59,1.77 -2.06,4.53 -3.59,6.76 -4.47,6.76 -0.24,0 -0.83,-0.12 -1.77,-0.35l-0.29 0c-1.53,3 -2.65,4.7 -3.47,5.17 -0.82,0.47 -1.47,1.12 -2.06,1.94 -0.59,0.88 -1.7,1.82 -3.35,2.88 -1.7,1 -2.82,2.76 -3.35,5.23 -0.59,2.47 -1.3,4.12 -2.18,5 -0.88,0.88 -1.41,2.76 -1.65,5.76l-1 2.41c-0.35,0.7 -0.88,2.7 -1.47,5.94 -0.65,3.29 -0.94,5 -0.94,5.11 0,1.59 0.65,3 2.06,4.3 0.47,-0.59 1.41,-1 2.88,-1.24l10.17 -4.11c0.35,-0.24 1.65,-1.3 3.82,-3.18 2.18,-1.88 4.12,-3.12 5.76,-3.7 1.65,-0.59 3.18,-1.59 4.59,-3.12 0.88,-1.35 2,-2.53 3.35,-3.41 1.29,-0.94 2.06,-2.06 2.29,-3.47 2.65,-2.3 5.06,-4.47 7.23,-6.47 2.18,-2 3.59,-3.65 4.24,-5 0.65,-1.3 1.65,-2.41 3,-3.35l0.7 -2.23c0.24,-0.12 0.7,-0.24 1.47,-0.41 0.77,-0.18 2,-2.06 3.7,-5.65l4.65 -7.7c2.76,-2.76 5,-6.3 6.7,-10.53l2.41 -2.06c0.47,-0.24 0.7,-0.76 0.7,-1.59l-0.35 -1z"/>
   <path id="19" class="fil4" d="M3643.91 4771.03l2.53 -0.65 1.06 -2.3c5.59,-3.29 9.59,-6.47 12,-9.46 0.24,-0.47 0.76,-0.88 1.59,-1.35 0.76,-0.47 1.65,-1.3 2.53,-2.41 4.23,-4.3 9.29,-6.41 15.17,-6.41 6.88,0 10.52,4.17 11,12.58l1.06 2.59c0.88,1.59 2.17,4.88 3.88,9.82 1.65,4.94 2.47,8 2.47,9.11 0,3.12 -1,6.23 -2.94,9.29 -1.59,0.82 -5.47,5.12 -11.53,12.94l-1.7 1.24c-0.94,2.06 -2.12,4.11 -3.65,6.17 -2.29,0.82 -3.41,1.65 -3.41,2.59l0 3.12c0,0.24 -0.3,0.7 -0.82,1.35 -0.47,0.7 -1.24,2.06 -2.12,4l-1.41 2.06c-0.47,0.47 -0.88,1.41 -1.35,2.82 -0.47,1.47 -1.12,2.76 -2,3.88 -0.88,1.18 -1.3,2.06 -1.3,2.76 0,1.7 2.24,2.59 6.7,2.59 0.24,0 1.12,-0.35 2.59,-1.06l2.41 0.71c0.24,0 0.82,-0.35 1.76,-1.12 0.94,-0.76 2.3,-1.35 4.23,-1.82 1.88,-0.41 3.53,-1.12 5,-2.06 1.41,-0.88 3.18,-1.7 5.18,-2.41 2,-0.65 3.94,-1.82 5.76,-3.35 1.88,-1.53 3.65,-2.65 5.47,-3.35 1.76,-0.7 3.41,-1.76 5,-3.18 1.53,-1.41 3.3,-2.76 5.24,-4.06 2,-1.24 5.11,-4 9.35,-8.24 2.76,-2.17 4.65,-3.41 5.7,-3.65 0.24,0 1.24,-1.53 3,-4.53 1.76,-3.06 3.82,-4.59 6.12,-4.59 2.41,0 3.65,1.12 3.65,3.41 0,1.3 -0.59,2.47 -1.7,3.65l0 1.06 0.35 2.7c0.18,0.35 0.3,0.88 0.3,1.59 0,0.41 -0.41,1.12 -1.3,2.06 -0.82,0.88 -1.47,2.06 -1.76,3.53 -0.35,1.41 -1.47,2.35 -3.29,2.82 -0.71,2.53 -1.59,3.94 -2.7,4.29 -1.06,0.35 -2.59,1.53 -4.53,3.47 -1.94,1.94 -4.7,4.24 -8.29,6.88 -3.59,2.65 -6,4.65 -7.35,6.11 -1.29,1.41 -2.17,2.12 -2.65,2.12 -0.24,0 -0.7,-0.24 -1.35,-0.65 -0.7,-0.47 -1.17,-0.7 -1.41,-0.7 -0.7,0 -1.12,0.82 -1.35,2.41l-0.7 1.7c-1.47,0.94 -2.35,1.41 -2.59,1.41l-1.06 -0.35 -0.65 0c-1.41,0 -2.12,0.47 -2.12,1.53l1.06 1.71 0 0.35c0,1.59 -0.94,2.41 -2.76,2.41 -1.24,0 -4.94,2.11 -11,6.35l-5.06 1.06 -4.11 2.23c-1.35,-0.82 -2.24,-1.23 -2.59,-1.23l-2.76 0.88 -5 0.35c-0.12,0 -2.18,-1.17 -6.3,-3.47 -4.06,-2.29 -6.53,-4.59 -7.29,-6.88 -0.82,-2.29 -1.88,-4.59 -3.12,-6.94 -1.29,-2.35 -1.88,-4 -1.88,-4.94 0,-5.53 0.41,-9.41 1.35,-11.76 0.94,-2.41 1.47,-4.12 1.7,-5.3 0.24,-1.11 0.88,-2.35 2,-3.7 1.12,-1.29 2,-3.47 2.7,-6.47 3.3,-6.65 5.59,-10.7 6.88,-12.23 1.23,-1.47 2.23,-3.29 2.88,-5.47l2.29 -3.11c0.18,-0.24 0.53,-1.12 1,-2.65 0.47,-1.59 1.06,-2.47 1.7,-2.7 0.94,-1.59 1.41,-2.65 1.41,-3.11 0,-3.3 -1.53,-5 -4.47,-5 -0.59,0 -1.24,0.65 -1.94,1.82 -0.65,1.24 -2.24,2.41 -4.7,3.59 -2.47,1.12 -4,2 -4.59,2.59 -0.53,0.53 -1.76,1.3 -3.65,2.12 -1.94,0.88 -3.53,2.24 -4.94,4.06l-2.88 1.41c-0.94,2.18 -1.76,3.41 -2.41,3.65 -0.71,0.24 -2.82,0.77 -6.35,1.71 -0.23,0.11 -0.82,0.82 -1.7,2.06 -0.94,1.3 -2.23,1.88 -4,1.88 -1.35,1.41 -2.7,3 -4.11,4.88 -0.47,0 -1.65,0.47 -3.59,1.35l-3.41 0.88c-0.94,0.7 -1.94,1.76 -3.06,3.29 -1.06,1.47 -3.12,2.24 -6.06,2.24 -1.7,0 -2.59,-1.35 -2.59,-4.12 0,-5.65 2,-10.17 5.94,-13.46 3.94,-3.35 6.82,-5.12 8.64,-5.35 1.82,-0.23 3,-0.94 3.47,-2.11 0.41,-1.12 1.53,-2.06 3.35,-2.82 1.76,-0.76 3.82,-2.41 6.17,-5 2.35,-2.59 4.88,-4.35 7.65,-5.23l2.06 -2.47z"/>
   <path id="20" class="fil4" d="M3827.56 4836.78l-8.11 7.06c-0.47,-0.47 -0.88,-0.65 -1.35,-0.65 -1.18,0 -2.59,1 -4.23,3.06 -1.65,2.06 -2.82,3.11 -3.53,3.11l-1.7 -0.35c-2.88,2.17 -4.94,3.47 -6.23,3.82 -1.24,0.29 -2.76,0.94 -4.59,1.88 -1.76,0.88 -3.35,1.41 -4.82,1.53 -1.41,0.12 -2.59,0.59 -3.53,1.47 -0.88,0.89 -3.12,1.3 -6.7,1.3l-2.76 -0.35c-1.47,0.71 -2.47,1.06 -2.94,1.06 -0.88,0 -1.88,-0.53 -2.94,-1.47 -1,-1 -2.12,-1.53 -3.35,-1.65 -1.18,-0.12 -2.41,-0.94 -3.7,-2.41 -1.24,-1.47 -2.41,-2.53 -3.53,-3.11 -1.06,-0.53 -2,-1.35 -2.65,-2.41l-2.41 -2.06c-2,-1.35 -3.88,-3.88 -5.7,-7.59 -1.82,-3.65 -2.76,-6.53 -2.76,-8.58l0 -0.71 0.35 -3.29 -0.35 -3.76c0.47,-0.47 1.06,-1.47 1.7,-2.94l0 -5.53 4.18 -13.76c0.23,-0.59 -0.24,-1.35 -1.41,-2.24 -1.12,1.7 -2.29,2.76 -3.41,3.12 -1.18,0.3 -1.94,1.12 -2.3,2.41 -0.41,1.24 -1.06,1.88 -2,1.88l-2.06 -0.7c-0.18,0.24 -0.71,1.41 -1.53,3.53 -0.76,2.12 -2.11,3.18 -4.06,3.18 -2.06,0 -3.06,-0.76 -3.06,-2.41l0.3 -3.06 -1 -4.35c0,-0.88 0.94,-2.7 2.76,-5.41 1.82,-2.7 3.53,-4.23 5.06,-4.65 1.59,-0.41 2.88,-1.53 3.94,-3.29 1.12,-1.76 3.47,-3.94 7.17,-6.47 2.06,-0.41 3.82,-1.94 5.35,-4.47 1.59,-1.23 3.7,-2.29 6.23,-3.11 2.59,-0.76 4.53,-1.94 5.88,-3.53 1.29,-1.53 5.23,-3.94 11.7,-7.24 6.47,-3.23 11.23,-4.88 14.17,-4.88 0.94,0 2.18,-0.29 3.82,-0.76 1.59,-0.53 3.06,-1 4.47,-1.41 1.35,-0.41 2.82,-1 4.29,-1.88 1.47,-0.88 2.71,-1.3 3.59,-1.3l5 1.7c3.7,1.06 5.94,1.82 6.7,2.24 0.24,0.24 1.41,0.76 3.53,1.47 2.12,0.77 4.3,1.77 6.59,3.06 2.24,1.24 3.35,3.59 3.35,7.06 -2,2.88 -2.94,4.41 -2.94,4.65 0,0.47 1.29,1.11 3.94,2.06 0.94,1.71 2.29,3.94 4.11,6.7l1.94 6.06 0.3 14.11 -0.3 1.35c-1.3,1.18 -1.94,1.94 -1.94,2.3l0.53 3.41 -1.35 4.82c-0.35,1.53 -0.94,2.47 -1.76,2.94 -0.76,0.47 -1.3,1.06 -1.53,1.7l-1.06 1.41c-0.18,0.35 -0.71,1.35 -1.47,3 -0.7,1.65 -1.53,2.94 -2.47,3.88 -0.94,0.94 -1.47,2 -1.7,3.3 -0.24,1.23 -0.82,2.17 -1.76,2.76 -0.88,0.53 -1.53,1.17 -1.94,1.76 -0.41,0.65 -1.06,1.17 -2,1.65zm-53.69 4.41l0.71 3.94 0.29 0.35 2.76 0 0.88 0.35c2.3,0.47 4,0.7 5.18,0.7 3.53,0 6.35,-0.88 8.47,-2.7 2.17,-1.76 3.82,-2.65 5.11,-2.65 1.24,0 2.3,-0.88 3.18,-2.59 0.88,-1.7 1.41,-2.59 1.65,-2.59l2.41 0 0.65 -0.35c0,-2.65 1.18,-4.53 3.53,-5.7 2.35,-1.12 4.06,-2.65 5,-4.53 1,-1.88 2.11,-3.35 3.35,-4.29 1.3,-1 2.12,-2.3 2.59,-3.88l1.41 -2.12c0.41,-0.41 0.65,-1.3 0.65,-2.59l3.3 -6.18c0.7,-2.88 1,-5.11 1,-6.7 0,-2.41 -1.24,-4.3 -3.7,-5.7 -2.41,-1.35 -3.65,-4.06 -3.65,-8.12 0,-2.65 1.3,-5.06 4,-7.29 2.7,-2.23 4.06,-3.59 4.06,-4.06 0,-0.71 -0.35,-1.06 -1,-1.06 -0.35,0 -1.7,0.47 -4,1.41 -0.76,1.59 -4.88,3.7 -12.23,6.35 -2.35,-1.11 -3.7,-1.7 -3.94,-1.7 -0.65,0 -1.35,0.7 -2.06,2.06 -0.71,1.41 -1.35,2.35 -2.06,2.94l-2.24 0c-0.23,0 -1,0.76 -2.23,2.24 -1.3,1.47 -2.88,2.23 -4.82,2.23l-2.06 2.06c0.12,1.88 -1.06,3.76 -3.47,5.7l-1.88 2.23c-1.12,1.35 -2.65,3 -4.47,4.82l-3.12 7.76c-1.24,3 -1.88,5.23 -1.88,6.7 -0.35,0.7 -1.12,1.41 -2.3,2.17 -1.23,0.71 -1.82,1.71 -1.82,2.82 0,0.24 0.41,0.83 1.18,1.71 0.82,0.94 1.24,1.65 1.24,2.11l-0.7 2.24 -0.65 6.35 1.7 5.53z"/>
   <path id="21" class="fil4" d="M3889.07 4778.09l2.94 -0.7c0.88,-1 1.88,-2.18 2.88,-3.41 1.06,-1.29 2.59,-2.35 4.59,-3.29 2,-0.88 3.59,-2.7 4.7,-5.35 4.94,-4.94 9.11,-7.7 12.41,-8.41 4.82,2.06 7.7,4.35 8.53,6.82 0.88,2.47 1.3,6.53 1.3,12.17 0,1.47 -0.53,3.35 -1.7,5.59 -1.18,2.24 -1.94,4 -2.41,5.24 -0.47,1.29 -1.53,3.23 -3.29,5.88 0,0.24 -0.3,0.65 -0.82,1.24 -0.59,0.59 -1.3,1.76 -2.12,3.53 -0.76,1.76 -1.82,3.35 -3.18,4.76 -1.29,1.35 -2.29,2.94 -3,4.7 -0.7,1.82 -2.23,4.7 -4.65,8.7 -2.53,6.94 -3.82,10.88 -3.82,11.94 0,1.24 0.35,1.88 1.06,1.88 0.47,0 1.3,-0.35 2.41,-1.06l1.53 -0.47 2.06 0 2.41 -1.76c0.24,-0.53 0.47,-1.35 0.71,-2.41 0.23,-0.24 1.76,-0.88 4.65,-2.06l0.35 -0.35c-0.23,-0.59 -0.35,-1.18 -0.35,-1.88 0,-1.18 1.11,-1.88 3.35,-2.24 2.24,-0.35 3.88,-1.12 5.06,-2.3 0,-1.47 0.29,-2.35 0.88,-2.59 0.53,-0.18 1.17,-1 1.94,-2.41 0.76,-1.35 2,-2.18 3.7,-2.41 1.7,-0.23 2.59,-0.88 2.59,-2.06 0,-3.76 2.12,-6.76 6.35,-8.94 0.88,-0.24 1.35,-0.82 1.35,-1.76 0,-2.18 0.17,-3.41 0.53,-3.7 0.35,-0.3 1.35,-0.94 3.06,-2l3.47 -4.47 1.53 -3.65c0.47,-0.88 1.06,-1.65 1.71,-2.24 0.7,-0.59 1.59,-1.88 2.59,-3.88 1.06,-2 1.88,-3.35 2.59,-4.06l1.88 -2.94c1.59,-3 3.59,-4.47 6,-4.47 1.29,0 4.06,1.82 8.35,5.41 4.29,3.65 6.47,9 6.47,16.11 0,2.76 -0.71,4.47 -2.18,5 -1.41,0.59 -2.47,2.53 -3.18,5.88 -0.7,3.35 -1.82,6.41 -3.35,9.23 -1.53,2.82 -2.3,4.35 -2.3,4.59l0.65 2.06 0 0.65c0,2.65 -0.65,4.76 -2.06,6.41 0.24,0.12 0.59,1.06 1.06,2.94l-1.76 2.76c0.47,4.47 1.29,6.7 2.47,6.7 0.65,0 1.59,-0.24 2.65,-0.7 1.12,-0.47 2.18,-0.76 3.24,-0.82 1.06,-0.12 2.76,-0.94 5.17,-2.41l11.29 -7.06 2.06 -2.41 1.59 -1.06c1.82,-0.88 3.12,-2.18 3.82,-3.88 0.7,-1.65 1.76,-2.59 3.3,-2.82 0.47,-2.65 1.82,-5.12 4.17,-7.41l5 -9.47c1.29,-2.53 2.12,-3.94 2.47,-4.3 0,-3.88 -1.53,-9.41 -4.53,-16.52l0 -1c0,-2.29 0.76,-4.53 2.24,-6.7 1.53,-2.17 3,-3.29 4.35,-3.29l3.65 0.35 4.7 -1.06c0.94,0 3.41,1.7 7.53,5.11 4.06,3.35 6.11,7.59 6.11,12.65 0,3.17 -0.59,6 -1.76,8.35 -1.12,2.35 -1.88,4.59 -2.23,6.7 -0.35,2.11 -1.47,3.76 -3.41,4.88l-0.7 0.88c-0.35,5.41 -2.59,9.47 -6.7,12.23 -1.17,1.7 -2.41,3.82 -3.65,6.29 -1.29,2.47 -2.41,3.88 -3.47,4.35 -0.24,0 -1.12,1.29 -2.7,3.88 -1.53,2.59 -2.7,4.11 -3.53,4.65 -0.83,0.53 -2.41,1.23 -4.76,2.23 -2.35,1 -3.53,2.24 -3.53,3.7l-0.35 2.41c-4.06,2.88 -6.65,5 -7.82,6.35 -1.47,0.24 -2.65,0.47 -3.41,0.7 -4.76,4.7 -11.35,7.06 -19.76,7.06 -4.06,0 -8.35,-2 -13,-5.94 -4.59,-4 -6.88,-8.06 -6.88,-12.17l-1.59 -5.53c0,-9.17 0.35,-15.58 1.06,-19.11 0.35,-0.47 0.53,-0.94 0.53,-1.41 0,-1.35 -0.41,-2.06 -1.23,-2.06 -0.59,0.59 -1.18,1.53 -1.82,2.88 -0.59,1.3 -1.35,2.18 -2.3,2.65l-2.59 2.24c-0.59,2.76 -1.18,4.35 -1.82,4.7 -0.59,0.35 -1.65,1.23 -3,2.65 -1.35,1.47 -2.94,2.76 -4.65,3.88 0.12,0.7 -2.24,4.17 -7.06,10.35l0 1.06c0,0.11 -0.59,0.47 -1.71,1.06l-2.76 2.76c-1.7,1.71 -6.11,4.7 -13.17,9.06 -7.06,4.29 -11.11,6.47 -12.29,6.47 -3.06,0 -5.76,-1.12 -8,-3.3 -2.23,-2.17 -3.53,-4.53 -3.88,-7.06 -0.35,-2.53 -0.82,-4.82 -1.53,-6.88 -0.7,-2.11 -1.06,-3.65 -1.06,-4.7 0,-0.41 0.24,-1.59 0.7,-3.41 0.47,-1.88 0.77,-3.53 0.88,-5.12 0.12,-1.53 0.3,-2.41 0.47,-2.65l0 -3.29c0,-0.24 0.7,-1.18 2,-2.76 1.35,-1.59 2,-3.3 2,-5 0,-0.7 0.53,-1.76 1.53,-3.29 1.06,-1.47 1.76,-2.76 2.18,-3.88 0.41,-1.06 1.29,-2.3 2.65,-3.7 0.24,-1.12 0.76,-2.76 1.59,-4.94 0.76,-2.12 1.18,-3.41 1.18,-3.88 0,-0.18 -0.12,-0.41 -0.35,-0.65 -1.59,0 -3.94,1.47 -7.06,4.47l-3.12 1.7c-1.47,0.82 -4.06,2.7 -7.7,5.65 -1.7,2.18 -3.23,3.3 -4.65,3.3 -5.35,0 -8.06,-2.47 -8.06,-7.41 0,-2.41 0.65,-4.06 2,-5 1.29,-0.88 2.06,-1.82 2.29,-2.65 0.24,-0.88 1.65,-1.59 4.24,-2.06 2.59,-0.53 5.35,-3.23 8.35,-8.06 2.65,0 4.17,-0.35 4.65,-1.18 0.47,-0.82 1.12,-1.65 2.06,-2.59z"/>
   <path id="22" class="fil4" d="M4103.95 4699.11l2.41 -0.7 1.7 -1.7 0.35 0 1.53 0.7 0.35 0c2.76,0 5.23,-0.59 7.35,-1.65 2.17,-1.12 3.94,-1.88 5.41,-2.35 1.41,-0.41 2.35,-0.76 2.65,-1 0.35,-0.24 0.65,-0.35 0.88,-0.35l2.82 0.35c0.88,0 2.12,-1.65 3.7,-4.94 1.53,-3.24 3.3,-5.65 5.24,-7.12 1.94,-1.53 3.88,-4.29 5.82,-8.46 0.47,-0.53 1,-1.47 1.59,-2.65 0.53,-1.23 1,-1.82 1.35,-1.82 1.7,0 3.12,-1.06 4.12,-3.29 3.47,-4 6.29,-6 8.47,-6 2.88,0 4.88,2.76 6,8.29l1.7 6.53c0,0.12 -0.23,0.94 -0.82,2.47 -0.59,1.59 -0.82,3.11 -0.76,4.65 0.06,1.59 0,2.59 -0.18,3.11 -0.17,0.53 -0.29,1.12 -0.29,1.82 0,0.94 1,1.35 2.94,1.35 0.7,0 1.94,-0.41 3.82,-1.35l1 -0.35c1.18,0.7 2.12,1.06 2.94,1.06 0.24,0 1.88,-0.59 4.88,-1.76 3.06,-1.12 5,-1.76 5.82,-1.88 0.76,-0.12 2.17,-0.59 4.11,-1.35l2.06 0 1.41 0.47c0.41,0 1.35,-0.47 2.82,-1.41 1.41,-1 4.17,-1.59 8.17,-1.82l2.41 -1.06 0.7 0c3.76,0 5.65,1.7 5.65,5 0,0.7 -0.53,1.88 -1.59,3.65 -1.12,1.7 -2,3.65 -2.7,5.82l-7.94 10c-2.65,3.47 -5.24,5.17 -7.88,5.17 -0.47,0 -1.94,-1.53 -4.35,-4.65 0,-0.23 -0.24,-0.35 -0.65,-0.35 -1.17,0 -2.35,0.24 -3.65,0.7 -1.23,0.47 -2.29,0.7 -3.11,0.7 -0.3,0 -3.35,0.82 -9.12,2.53l-4.11 0.7c-0.47,0 -1.59,0.24 -3.3,0.7l-8.76 1.7c-3,1.53 -5.35,4.3 -7.06,8.47 0,0.24 -0.59,0.7 -1.76,1.53l-7.76 14.11c-2.53,0.71 -4.17,2.18 -5,4.47l-0.65 1.06c-1.3,0.24 -2.41,0.94 -3.47,2.18 -1.06,1.18 -2,2.12 -2.94,2.82l-3.06 4.65c-1.3,1.59 -2.53,3.35 -3.82,5.24 -1.24,1.94 -2.18,3.94 -2.76,6.06 -0.59,2.12 -1,3.35 -1.35,3.7 -0.35,0.35 -0.53,0.94 -0.53,1.88l-0.53 1.35c-1.35,1.41 -2.06,2.94 -2.06,4.7l0.71 2.7c-1.65,5.53 -2.41,8.47 -2.41,8.82 0,0.24 0.12,0.82 0.35,1.88l0 1.06c0,2.53 -0.94,5.65 -2.76,9.47l0.35 2.76 -1.06 7.7c0,1.06 0.35,2.94 1.06,5.7 -0.47,0.47 -0.71,0.82 -0.71,1.06 0,3.18 1.7,6.7 5.06,10.59 3.41,3.82 5.11,9.82 5.11,18 0,0.7 -0.17,1.7 -0.53,3 -0.35,1.35 -0.59,2.76 -0.7,4.29 -0.12,1.59 -1,3.12 -2.65,4.59 -1.71,1.47 -3.06,2.24 -4.24,2.24 -6.11,0 -10.65,-4.41 -13.58,-13.23 -3,-8.82 -4.53,-14.53 -4.53,-17.06l0.35 -6.7 -1 -3.47 1 -15.11 -0.7 -3.65 4 -14.82 0 -5.35c0,-0.24 0.82,-1.12 2.41,-2.76 0,-0.24 -0.24,-0.35 -0.7,-0.35 -0.71,0 -1.59,0.7 -2.76,2.12 -1.12,1.35 -2.59,2.7 -4.3,3.94l-1.35 2.41c-0.24,-0.24 -0.7,-0.47 -1.41,-0.7 -0.59,0.24 -2.47,2.94 -5.65,8.11 -2.41,0.35 -4.35,1.7 -5.7,4.12 -1.41,2.41 -3.29,3.65 -5.7,3.65l-0.71 0.35c-0.41,3.3 -2.06,5 -4.82,5l-0.65 0.35c-1.76,3.88 -3.53,5.76 -5.35,5.65 -1.18,3.47 -4,5.82 -8.47,7.06 -0.65,1.41 -1.7,2.41 -3,3.12 -1.29,0.7 -2.29,1.35 -2.82,1.88 -0.59,0.59 -1.12,0.88 -1.59,0.88 -1.47,0 -2.24,-1.59 -2.24,-4.82 0,-0.94 0.41,-1.94 1.12,-3 0.76,-1.12 1.12,-1.88 1.12,-2.35 0,-0.24 -0.53,-0.94 -1.7,-2.06 0,-3.59 0.94,-5.82 2.76,-6.7 1.82,-0.94 3.17,-2.24 4.11,-4 0.59,-1.35 1.71,-2.35 3.47,-2.94 1.7,-0.53 2.53,-1.3 2.53,-2.24 0,-0.76 1.53,-2.41 4.53,-4.82 2.94,-2.41 5.12,-4.47 6.53,-6.29 1.35,-1.76 2.53,-2.65 3.41,-2.65l0.71 -0.71c0.23,-2.88 1.35,-4.29 3.29,-4.29l1.7 -1.06 0.35 -1.35 1 -0.71 1.41 0 0.82 -0.65c0.24,-2.88 1.59,-5.11 4.06,-6.76 2.47,-1.59 7,-6.11 13.53,-13.52 6.53,-7.41 10.23,-12.11 11,-14.23 0.82,-2.06 2.29,-4.82 4.41,-8.35 2.12,-3.47 3.3,-6.76 3.53,-9.88 -0.23,-0.47 -0.59,-0.94 -1.06,-1.41l-7.41 3.65c0,-0.35 -1.11,-0.88 -3.41,-1.53 -1.76,1 -3,2.06 -3.82,3.06 -0.76,1.06 -1.41,1.59 -1.88,1.59l-2.41 -0.35 -7.59 0.82c-6.76,0.59 -11.88,2 -15.35,4.18l-7.06 2.06 -1.53 0c-0.94,0 -2.3,0.59 -4.12,1.7l-4 -0.35c-3.65,2 -6.35,2.94 -8.11,2.94 -0.18,0 -0.88,-0.12 -2.06,-0.35l-17.58 4.82c-1.35,0.47 -4.47,2.82 -9.29,7.06l-1.35 0.35c-1.17,0 -2.53,-1.29 -4.06,-3.88 -1.53,-2.59 -2.35,-4.88 -2.35,-6.94 0,-11.41 9.76,-18 29.35,-19.82l7.06 -2.76 0.3 0 1.94 0.7 0.65 0c0.7,0 1.82,-0.47 3.3,-1.29 1.47,-0.88 4.82,-1.94 10,-3.18l7.06 -1.94 2.24 0.35c1.18,0 2.47,-0.47 3.88,-1.35 1.47,-0.94 3.65,-1.59 6.53,-2 2.94,-0.41 5,-0.82 6.11,-1.29l2.76 -0.7c0.47,0 1.41,-0.35 2.88,-1.18 1.41,-0.82 3.3,-1.24 5.59,-1.24 0.35,0 1.18,0.24 2.59,0.7z"/>
   <path id="23" class="fil4" d="M4156.65 4791.91l1.41 -1.88c3,-0.7 4.94,-1.82 5.7,-3.47 0.35,-0.76 3.24,-3.76 8.7,-8.94 5.41,-5.17 8.41,-7.94 9,-8.29 3.7,-6.65 5.94,-11.64 6.76,-15 1.41,-0.65 2.06,-1.47 2.06,-2.35l1.41 -2.76 1.53 -0.35 0.71 -0.7 0 -1.53c0,-2.11 2.29,-6.94 6.76,-14.46 4.53,-9.35 6.94,-14.47 7.3,-15.46 0.29,-0.94 1,-2.41 2.06,-4.3 1,-1.88 2.59,-5.53 4.7,-10.94 2.12,-5.41 5.47,-11 9.94,-16.88 0.47,-0.24 1.12,-1.53 2.06,-3.88 0.94,-2.35 2.35,-4.7 4.29,-7l2.06 -3.59c0.7,-1.17 1.88,-3.17 3.65,-6.06 1.7,-2.82 3.29,-5.12 4.7,-6.76 1.47,-1.7 2.53,-3.41 3.29,-5.29 0.76,-1.82 1.65,-3.12 2.65,-3.94 1.06,-0.82 2.12,-2.29 3.24,-4.41 1.06,-2.12 2.76,-3.18 5.06,-3.18 4.47,0 7.7,1.82 9.76,5.53 2,3.65 3,6.88 3,9.65 0,0.35 -0.7,2.82 -2.06,7.41l-2.59 15.46c-2.3,1.18 -3.47,2.47 -3.47,4 0,6.06 -2.35,12.41 -7.06,18.94 -0.47,0.47 -0.82,1.94 -1.12,4.47 -0.29,2.53 -1.29,4.59 -3,6.23 -1.77,1.59 -3.3,4.3 -4.65,8.06l-16.06 22.93 -1.35 1.41c-0.7,0.41 -1.53,1.41 -2.41,2.88l-2.76 -0.83c-3.12,0 -4.65,0.94 -4.65,2.88 0,0.71 0.23,1.65 0.65,2.76l0 0.35c0,0.12 -4.23,6.17 -12.7,18.11 -0.47,0.65 -1.3,2.94 -2.41,6.7l-2.41 5.18c-2.41,3.35 -4.12,6.59 -5.12,9.7 -0.94,3.17 -2.23,5.76 -3.88,7.7 -2.29,5.18 -3.41,7.88 -3.41,8.12 0,0.65 0.35,1 1,1 0.7,0 2.35,-1.71 4.94,-5.18 2.59,-3.41 4.7,-5.7 6.35,-6.88 1.65,-1.11 3.06,-2.7 4.23,-4.82l1.71 -1.18c0.47,-0.24 1.41,-0.94 2.88,-2.06l1.71 0.35c0.94,-0.71 1.53,-1.53 1.7,-2.41 0.24,-0.94 0.59,-1.65 1.06,-2.06 2.94,-0.35 4.82,-1.47 5.53,-3.29 0.76,-1.82 1.65,-2.76 2.65,-2.76 0.94,0 2.12,-1.06 3.59,-3.18 1.53,-2.11 3.59,-3.82 6.29,-5.17 2.65,-1.3 4.65,-2.47 5.94,-3.53 1.35,-1 4,-2.24 8,-3.65 3.94,-1.47 6.65,-2.18 8,-2.18l1.06 0 1.35 0.35 2.59 -0.35c3.94,0 7.94,1.12 12,3.35 4,2.24 5.7,5.7 5.11,10.41l-1.35 10.7 -1.88 8.41c-0.24,1.35 -1.18,4.41 -2.76,9.11 -1.59,4.7 -2.41,7.41 -2.41,8.11l-0.7 3.24 0.7 4.47 -0.35 3.65c0,1.12 0.59,1.7 1.76,1.7 0.41,0 1.7,-1.06 3.76,-3.11 1.29,0.23 2.53,-0.41 3.65,-2.06 1.17,-1.59 2.7,-3.24 4.7,-5 0,-0.41 0.7,-0.88 2.23,-1.24 1.47,-0.41 3.59,-1.76 6.24,-4.06 0.47,-1.06 2.7,-3.24 6.76,-6.65 4,-3.35 7.88,-6 11.59,-7.82l1.06 -1.35c1.94,-1.94 3.7,-2.94 5.35,-2.94 1.59,0 2.41,0.88 2.41,2.59 0,1.12 -0.29,2.35 -0.88,3.59 -0.53,1.3 -0.94,2.94 -1.17,4.94 -0.24,2 -1.41,4.88 -3.47,8.7l-0.7 1.7c-0.76,1.94 -1.76,3.12 -2.88,3.47 -1.18,0.3 -2.41,1.3 -3.7,2.82 -1.35,1.53 -4.06,3 -8.23,4.41 -1.82,3.41 -3.24,5.18 -4.29,5.18l-3.12 -1.41c-2.41,1.94 -3.59,3.94 -3.59,6.06 -3,2.47 -4.82,4.17 -5.35,4.94l-3.47 -0.3c-0.94,0 -1.35,1.24 -1.35,3.76 0,0.24 -1.24,1 -3.59,2.35 -2.35,1.3 -4.12,2.47 -5.41,3.53 -1.23,1 -3.94,1.53 -8.11,1.53 -0.47,0 -1.12,-0.41 -2.06,-1.24 -0.94,-0.76 -2.29,-1.47 -4.06,-2.06 -1.77,-0.53 -3,-1.88 -3.7,-4.06 -0.71,-2.12 -1.41,-3.76 -2.24,-5 -0.82,-1.18 -1.18,-2.12 -1.18,-2.82l0.3 -3.47 -0.82 -3.59 1.53 -2.41c-0.7,-1.59 -1,-2.7 -1,-3.29l1.7 -10.47c1.24,-7.59 2.3,-12.53 3.12,-14.82 0.18,-0.24 0.3,-0.94 0.3,-2.12l-0.3 -4.29 0.3 -2.41c0,-1.7 -0.53,-2.65 -1.7,-2.76 -1.12,-0.12 -1.82,-0.41 -2.06,-0.82 -1.53,-0.7 -2.35,-1.06 -2.59,-1.06 -0.94,0 -1.71,0.71 -2.41,2.18 -0.7,1.41 -1.59,2.7 -2.76,3.82l-4.29 -0.65 0 0.35c0,0.88 -1.59,2.7 -4.65,5.3 -2.88,0.7 -5.35,2.23 -7.41,4.53 -0.94,0 -2.53,0.88 -4.76,2.65 -2.24,1.76 -3.7,2.76 -4.41,3l-1.35 2.76 -2.76 0.88c-0.82,2.29 -2.7,3.76 -5.7,4.47l-1.7 3.24c-2.41,0.23 -4.06,1.47 -5,3.7 -0.94,2.29 -1.59,3.41 -2.06,3.41 -0.23,0 -0.59,-0.18 -1.11,-0.47 -0.53,-0.29 -1,-0.41 -1.47,-0.41 -2.53,0 -3.88,1.88 -4.11,5.7 0,0.41 -2.35,3.11 -7.06,8.06 -4.76,4.94 -7.29,7.47 -7.59,7.59 -0.35,0.12 -1,1.3 -2,3.53 -1,2.24 -2.35,3.94 -4.06,5 -1.7,1.12 -3,2 -3.88,2.65 -0.88,0.7 -1.53,1.06 -2,1.06 -2.41,0 -4.35,-1.7 -5.82,-5.18 -1.53,-3.41 -2.23,-5.23 -2.23,-5.35l1 -3.59 -0.35 -3.12c0,-0.12 0.76,-2.41 2.18,-7 1.41,-4.53 3.06,-8.06 4.94,-10.65 1.82,-2.59 3.24,-6.82 4.3,-12.7 -5.18,3.47 -8.29,5.17 -9.29,5.17 -2.3,0 -3.47,-1.47 -3.47,-4.47 0,-5.53 1.76,-10.47 5.35,-14.82z"/>
  </g>
 </g>
</svg>
