<svg height="auto" viewBox="0 0 2000 1000" xmlns="http://www.w3.org/2000/svg"><path d="M0 1000h160v-19.95q0-4-4-4H4q-4 0-4 4ZM200 1000h160v-84.807q0-4-4-4H204q-4 0-4 4ZM400 1000h160V840.55q0-4-4-4H404q-4 0-4 4ZM600 1000h160V754.073q0-4-4-4H604q-4 0-4 4ZM800 1000h160V659.034q0-4-4-4H804q-4 0-4 4ZM1000 1000h160V618.13q0-4-4-4h-152q-4 0-4 4ZM1200 1000h160V561.297q0-4-4-4h-152q-4 0-4 4ZM1400 1000h160V310.093q0-4-4-4h-152q-4 0-4 4ZM1600 1000h160V310.467q0-4-4-4h-152q-4 0-4 4ZM1800 1000h160V180.853q0-4-4-4h-152q-4 0-4 4Z" fill="#444cf7"/></svg>