<svg height="auto" viewBox="0 0 2000 1000" xmlns="http://www.w3.org/2000/svg"><path d="M0 976.05c44.4-12.971 133.2-36.957 222-64.857 88.8-27.9 133.2-42.419 222-74.643 88.8-32.224 133.2-50.174 222-86.477 88.8-36.304 133.2-67.85 222-95.04 88.8-27.188 133.2-21.355 222-40.902 88.8-19.548 133.2 4.774 222-56.834 88.8-61.607 133.2-201.038 222-251.204 88.8-50.166 133.2 26.222 222 .374 88.8-25.848 177.6-103.691 222-129.614l2 823.147H0Z" fill="#444cf71a"/><path d="M0 976.05c44.4-12.971 133.2-36.957 222-64.857 88.8-27.9 133.2-42.419 222-74.643 88.8-32.224 133.2-50.174 222-86.477 88.8-36.304 133.2-67.85 222-95.04 88.8-27.188 133.2-21.355 222-40.902 88.8-19.548 133.2 4.774 222-56.834 88.8-61.607 133.2-201.038 222-251.204 88.8-50.166 133.2 26.222 222 .374 88.8-25.848 177.6-103.691 222-129.614" fill="none" stroke="#444cf7" stroke-width="4"/></svg>